solid MeshRefinement
 facet normal 0.9995065927505493 0.031411029398441315 0.0
  outer loop
   vertex 0.035 -8.572527385761024e-18 0.025
   vertex 0.035 -8.572527385761024e-18 -0.005
   vertex 0.03493093490600586 0.0021976680755615235 0.025
  endloop
 endfacet
 facet normal 0.9955618977546692 0.09410816431045532 0.0
  outer loop
   vertex 0.03493093490600586 0.0021976680755615235 0.025
   vertex 0.03493093490600586 0.0021976680755615235 -0.005
   vertex 0.034724014282226566 0.00438666296005249 0.025
  endloop
 endfacet
 facet normal 0.9995065927505493 0.031411029398441315 0.0
  outer loop
   vertex 0.035 -8.572527385761024e-18 -0.005
   vertex 0.03493093490600586 0.0021976680755615235 -0.005
   vertex 0.03493093490600586 0.0021976680755615235 0.025
  endloop
 endfacet
 facet normal 0.987688422203064 0.1564340442419052 0.0
  outer loop
   vertex 0.034724014282226566 0.00438666296005249 0.025
   vertex 0.034724014282226566 0.00438666296005249 -0.005
   vertex 0.03438005447387695 0.006558345794677734 0.025
  endloop
 endfacet
 facet normal 0.9955618977546692 0.09410816431045532 0.0
  outer loop
   vertex 0.03493093490600586 0.0021976680755615235 -0.005
   vertex 0.034724014282226566 0.00438666296005249 -0.005
   vertex 0.034724014282226566 0.00438666296005249 0.025
  endloop
 endfacet
 facet normal 0.987688422203064 0.1564340442419052 0.0
  outer loop
   vertex 0.034724014282226566 0.00438666296005249 -0.005
   vertex 0.03438005447387695 0.006558345794677734 -0.005
   vertex 0.03438005447387695 0.006558345794677734 0.025
  endloop
 endfacet
 facet normal 0.9759166836738586 0.21814391016960144 0.0
  outer loop
   vertex 0.03438005447387695 0.006558345794677734 0.025
   vertex 0.03390040969848633 0.008704146385192872 -0.005
   vertex 0.03390040969848633 0.008704146385192872 0.025
  endloop
 endfacet
 facet normal 0.9602939486503601 0.27899008989334106 0.0
  outer loop
   vertex 0.03390040969848633 0.008704146385192872 0.025
   vertex 0.03390040969848633 0.008704146385192872 -0.005
   vertex 0.03328697967529297 0.010815594673156738 0.025
  endloop
 endfacet
 facet normal 0.9759166836738586 0.21814391016960144 -0.0
  outer loop
   vertex 0.03438005447387695 0.006558345794677734 -0.005
   vertex 0.03390040969848633 0.008704146385192872 -0.005
   vertex 0.03438005447387695 0.006558345794677734 0.025
  endloop
 endfacet
 facet normal 0.9602939486503601 0.27899008989334106 0.0
  outer loop
   vertex 0.03390040969848633 0.008704146385192872 -0.005
   vertex 0.03328697967529297 0.010815594673156738 -0.005
   vertex 0.03328697967529297 0.010815594673156738 0.025
  endloop
 endfacet
 facet normal 0.9408803582191467 0.3387392461299896 0.0
  outer loop
   vertex 0.03328697967529297 0.010815594673156738 0.025
   vertex 0.03254217529296875 0.01288435935974121 -0.005
   vertex 0.03254217529296875 0.01288435935974121 0.025
  endloop
 endfacet
 facet normal 0.9408803582191467 0.3387392461299896 -0.0
  outer loop
   vertex 0.03328697967529297 0.010815594673156738 -0.005
   vertex 0.03254217529296875 0.01288435935974121 -0.005
   vertex 0.03328697967529297 0.010815594673156738 0.025
  endloop
 endfacet
 facet normal 0.9177550077438354 0.39714711904525757 0.0
  outer loop
   vertex 0.03254217529296875 0.01288435935974121 0.025
   vertex 0.031668947219848635 0.014902275085449218 -0.005
   vertex 0.031668947219848635 0.014902275085449218 0.025
  endloop
 endfacet
 facet normal 0.9177550077438354 0.39714711904525757 -0.0
  outer loop
   vertex 0.03254217529296875 0.01288435935974121 -0.005
   vertex 0.031668947219848635 0.014902275085449218 -0.005
   vertex 0.03254217529296875 0.01288435935974121 0.025
  endloop
 endfacet
 facet normal 0.8910065293312073 0.4539905786514282 0.0
  outer loop
   vertex 0.031668947219848635 0.014902275085449218 0.025
   vertex 0.03067073440551758 0.016861377716064455 -0.005
   vertex 0.03067073440551758 0.016861377716064455 0.025
  endloop
 endfacet
 facet normal 0.8910065293312073 0.4539905786514282 -0.0
  outer loop
   vertex 0.031668947219848635 0.014902275085449218 -0.005
   vertex 0.03067073440551758 0.016861377716064455 -0.005
   vertex 0.031668947219848635 0.014902275085449218 0.025
  endloop
 endfacet
 facet normal 0.8607421517372131 0.5090412497520447 0.0
  outer loop
   vertex 0.03067073440551758 0.016861377716064455 0.025
   vertex 0.029551477432250978 0.018753938674926758 -0.005
   vertex 0.029551477432250978 0.018753938674926758 0.025
  endloop
 endfacet
 facet normal 0.8607421517372131 0.5090412497520447 -0.0
  outer loop
   vertex 0.03067073440551758 0.016861377716064455 -0.005
   vertex 0.029551477432250978 0.018753938674926758 -0.005
   vertex 0.03067073440551758 0.016861377716064455 0.025
  endloop
 endfacet
 facet normal 0.8270805478096008 0.5620834827423096 0.0
  outer loop
   vertex 0.029551477432250978 0.018753938674926758 0.025
   vertex 0.028315595626831055 0.020572483062744142 -0.005
   vertex 0.028315595626831055 0.020572483062744142 0.025
  endloop
 endfacet
 facet normal 0.8270805478096008 0.5620834827423096 -0.0
  outer loop
   vertex 0.029551477432250978 0.018753938674926758 -0.005
   vertex 0.028315595626831055 0.020572483062744142 -0.005
   vertex 0.029551477432250978 0.018753938674926758 0.025
  endloop
 endfacet
 facet normal 0.7901549935340881 0.6129069924354553 0.0
  outer loop
   vertex 0.028315595626831055 0.020572483062744142 0.025
   vertex 0.02696796417236328 0.022309839248657228 -0.005
   vertex 0.02696796417236328 0.022309839248657228 0.025
  endloop
 endfacet
 facet normal 0.7901549935340881 0.6129069924354553 -0.0
  outer loop
   vertex 0.028315595626831055 0.020572483062744142 -0.005
   vertex 0.02696796417236328 0.022309839248657228 -0.005
   vertex 0.028315595626831055 0.020572483062744142 0.025
  endloop
 endfacet
 facet normal 0.7501111030578613 0.6613118648529053 0.0
  outer loop
   vertex 0.02696796417236328 0.022309839248657228 0.025
   vertex 0.02551390266418457 0.023959148406982423 -0.005
   vertex 0.02551390266418457 0.023959148406982423 0.025
  endloop
 endfacet
 facet normal 0.7501111030578613 0.6613118648529053 -0.0
  outer loop
   vertex 0.02696796417236328 0.022309839248657228 -0.005
   vertex 0.02551390266418457 0.023959148406982423 -0.005
   vertex 0.02696796417236328 0.022309839248657228 0.025
  endloop
 endfacet
 facet normal 0.7071067690849304 0.7071067690849304 0.0
  outer loop
   vertex 0.02551390266418457 0.023959148406982423 0.025
   vertex 0.023959148406982423 0.02551390266418457 -0.005
   vertex 0.023959148406982423 0.02551390266418457 0.025
  endloop
 endfacet
 facet normal 0.7071067690849304 0.7071067690849304 -0.0
  outer loop
   vertex 0.02551390266418457 0.023959148406982423 -0.005
   vertex 0.023959148406982423 0.02551390266418457 -0.005
   vertex 0.02551390266418457 0.023959148406982423 0.025
  endloop
 endfacet
 facet normal 0.6613118648529053 0.7501111030578613 0.0
  outer loop
   vertex 0.023959148406982423 0.02551390266418457 0.025
   vertex 0.022309839248657228 0.02696796417236328 -0.005
   vertex 0.022309839248657228 0.02696796417236328 0.025
  endloop
 endfacet
 facet normal 0.6613118648529053 0.7501111030578613 -0.0
  outer loop
   vertex 0.023959148406982423 0.02551390266418457 -0.005
   vertex 0.022309839248657228 0.02696796417236328 -0.005
   vertex 0.023959148406982423 0.02551390266418457 0.025
  endloop
 endfacet
 facet normal 0.6129069924354553 0.7901549935340881 0.0
  outer loop
   vertex 0.022309839248657228 0.02696796417236328 0.025
   vertex 0.020572483062744142 0.028315595626831055 -0.005
   vertex 0.020572483062744142 0.028315595626831055 0.025
  endloop
 endfacet
 facet normal 0.6129069924354553 0.7901549935340881 -0.0
  outer loop
   vertex 0.022309839248657228 0.02696796417236328 -0.005
   vertex 0.020572483062744142 0.028315595626831055 -0.005
   vertex 0.022309839248657228 0.02696796417236328 0.025
  endloop
 endfacet
 facet normal 0.5620834827423096 0.8270805478096008 0.0
  outer loop
   vertex 0.020572483062744142 0.028315595626831055 0.025
   vertex 0.018753938674926758 0.029551477432250978 -0.005
   vertex 0.018753938674926758 0.029551477432250978 0.025
  endloop
 endfacet
 facet normal 0.5090412497520447 0.8607421517372131 0.0
  outer loop
   vertex 0.018753938674926758 0.029551477432250978 0.025
   vertex 0.018753938674926758 0.029551477432250978 -0.005
   vertex 0.016861377716064455 0.03067073440551758 0.025
  endloop
 endfacet
 facet normal 0.5620834827423096 0.8270805478096008 -0.0
  outer loop
   vertex 0.020572483062744142 0.028315595626831055 -0.005
   vertex 0.018753938674926758 0.029551477432250978 -0.005
   vertex 0.020572483062744142 0.028315595626831055 0.025
  endloop
 endfacet
 facet normal 0.5090412497520447 0.8607421517372131 0.0
  outer loop
   vertex 0.018753938674926758 0.029551477432250978 -0.005
   vertex 0.016861377716064455 0.03067073440551758 -0.005
   vertex 0.016861377716064455 0.03067073440551758 0.025
  endloop
 endfacet
 facet normal 0.4539905786514282 0.8910065293312073 0.0
  outer loop
   vertex 0.016861377716064455 0.03067073440551758 0.025
   vertex 0.014902275085449218 0.031668947219848635 -0.005
   vertex 0.014902275085449218 0.031668947219848635 0.025
  endloop
 endfacet
 facet normal 0.39714711904525757 0.9177550077438354 0.0
  outer loop
   vertex 0.014902275085449218 0.031668947219848635 0.025
   vertex 0.014902275085449218 0.031668947219848635 -0.005
   vertex 0.01288435935974121 0.03254217529296875 0.025
  endloop
 endfacet
 facet normal 0.4539905786514282 0.8910065293312073 -0.0
  outer loop
   vertex 0.016861377716064455 0.03067073440551758 -0.005
   vertex 0.014902275085449218 0.031668947219848635 -0.005
   vertex 0.016861377716064455 0.03067073440551758 0.025
  endloop
 endfacet
 facet normal 0.39714711904525757 0.9177550077438354 0.0
  outer loop
   vertex 0.014902275085449218 0.031668947219848635 -0.005
   vertex 0.01288435935974121 0.03254217529296875 -0.005
   vertex 0.01288435935974121 0.03254217529296875 0.025
  endloop
 endfacet
 facet normal 0.3387392461299896 0.9408803582191467 0.0
  outer loop
   vertex 0.01288435935974121 0.03254217529296875 0.025
   vertex 0.010815594673156738 0.03328697967529297 -0.005
   vertex 0.010815594673156738 0.03328697967529297 0.025
  endloop
 endfacet
 facet normal 0.3387392461299896 0.9408803582191467 -0.0
  outer loop
   vertex 0.01288435935974121 0.03254217529296875 -0.005
   vertex 0.010815594673156738 0.03328697967529297 -0.005
   vertex 0.01288435935974121 0.03254217529296875 0.025
  endloop
 endfacet
 facet normal 0.27899008989334106 0.9602939486503601 0.0
  outer loop
   vertex 0.010815594673156738 0.03328697967529297 0.025
   vertex 0.008704146385192872 0.03390040969848633 -0.005
   vertex 0.008704146385192872 0.03390040969848633 0.025
  endloop
 endfacet
 facet normal 0.21814391016960144 0.9759166836738586 0.0
  outer loop
   vertex 0.008704146385192872 0.03390040969848633 0.025
   vertex 0.008704146385192872 0.03390040969848633 -0.005
   vertex 0.006558345794677734 0.03438005447387695 0.025
  endloop
 endfacet
 facet normal 0.27899008989334106 0.9602939486503601 -0.0
  outer loop
   vertex 0.010815594673156738 0.03328697967529297 -0.005
   vertex 0.008704146385192872 0.03390040969848633 -0.005
   vertex 0.010815594673156738 0.03328697967529297 0.025
  endloop
 endfacet
 facet normal 0.21814391016960144 0.9759166836738586 0.0
  outer loop
   vertex 0.008704146385192872 0.03390040969848633 -0.005
   vertex 0.006558345794677734 0.03438005447387695 -0.005
   vertex 0.006558345794677734 0.03438005447387695 0.025
  endloop
 endfacet
 facet normal 0.1564340442419052 0.987688422203064 0.0
  outer loop
   vertex 0.006558345794677734 0.03438005447387695 0.025
   vertex 0.00438666296005249 0.034724014282226566 -0.005
   vertex 0.00438666296005249 0.034724014282226566 0.025
  endloop
 endfacet
 facet normal 0.09410816431045532 0.9955618977546692 0.0
  outer loop
   vertex 0.00438666296005249 0.034724014282226566 0.025
   vertex 0.00438666296005249 0.034724014282226566 -0.005
   vertex 0.0021976680755615235 0.03493093490600586 0.025
  endloop
 endfacet
 facet normal 0.1564340442419052 0.987688422203064 -0.0
  outer loop
   vertex 0.006558345794677734 0.03438005447387695 -0.005
   vertex 0.00438666296005249 0.034724014282226566 -0.005
   vertex 0.006558345794677734 0.03438005447387695 0.025
  endloop
 endfacet
 facet normal 0.09410816431045532 0.9955618977546692 0.0
  outer loop
   vertex 0.00438666296005249 0.034724014282226566 -0.005
   vertex 0.0021976680755615235 0.03493093490600586 -0.005
   vertex 0.0021976680755615235 0.03493093490600586 0.025
  endloop
 endfacet
 facet normal 0.031411029398441315 0.9995065927505493 0.0
  outer loop
   vertex 0.0021976680755615235 0.03493093490600586 0.025
   vertex 0.0021976680755615235 0.03493093490600586 -0.005
   vertex -2.117155124717156e-17 0.035 0.025
  endloop
 endfacet
 facet normal 0.031411029398441315 0.9995065927505493 0.0
  outer loop
   vertex 0.0021976680755615235 0.03493093490600586 -0.005
   vertex -2.117155124717156e-17 0.035 -0.005
   vertex -2.117155124717156e-17 0.035 0.025
  endloop
 endfacet
 facet normal -0.031411029398441315 0.9995065927505493 0.0
  outer loop
   vertex -2.117155124717156e-17 0.035 0.025
   vertex -2.117155124717156e-17 0.035 -0.005
   vertex -0.0021976680755615235 0.03493093490600586 0.025
  endloop
 endfacet
 facet normal -0.031411029398441315 0.9995065927505493 0.0
  outer loop
   vertex -2.117155124717156e-17 0.035 -0.005
   vertex -0.0021976680755615235 0.03493093490600586 -0.005
   vertex -0.0021976680755615235 0.03493093490600586 0.025
  endloop
 endfacet
 facet normal -0.09410816431045532 0.9955618977546692 0.0
  outer loop
   vertex -0.0021976680755615235 0.03493093490600586 -0.005
   vertex -0.00438666296005249 0.034724014282226566 -0.005
   vertex -0.0021976680755615235 0.03493093490600586 0.025
  endloop
 endfacet
 facet normal -0.09410816431045532 0.9955618977546692 0.0
  outer loop
   vertex -0.0021976680755615235 0.03493093490600586 0.025
   vertex -0.00438666296005249 0.034724014282226566 -0.005
   vertex -0.00438666296005249 0.034724014282226566 0.025
  endloop
 endfacet
 facet normal -0.1564340442419052 0.987688422203064 0.0
  outer loop
   vertex -0.00438666296005249 0.034724014282226566 0.025
   vertex -0.00438666296005249 0.034724014282226566 -0.005
   vertex -0.006558345794677734 0.03438005447387695 0.025
  endloop
 endfacet
 facet normal -0.1564340442419052 0.987688422203064 0.0
  outer loop
   vertex -0.00438666296005249 0.034724014282226566 -0.005
   vertex -0.006558345794677734 0.03438005447387695 -0.005
   vertex -0.006558345794677734 0.03438005447387695 0.025
  endloop
 endfacet
 facet normal -0.21814391016960144 0.9759166836738586 0.0
  outer loop
   vertex -0.006558345794677734 0.03438005447387695 -0.005
   vertex -0.008704146385192872 0.03390040969848633 -0.005
   vertex -0.006558345794677734 0.03438005447387695 0.025
  endloop
 endfacet
 facet normal -0.21814391016960144 0.9759166836738586 0.0
  outer loop
   vertex -0.006558345794677734 0.03438005447387695 0.025
   vertex -0.008704146385192872 0.03390040969848633 -0.005
   vertex -0.008704146385192872 0.03390040969848633 0.025
  endloop
 endfacet
 facet normal -0.27899008989334106 0.9602939486503601 0.0
  outer loop
   vertex -0.008704146385192872 0.03390040969848633 -0.005
   vertex -0.010815594673156738 0.03328697967529297 -0.005
   vertex -0.008704146385192872 0.03390040969848633 0.025
  endloop
 endfacet
 facet normal -0.27899008989334106 0.9602939486503601 0.0
  outer loop
   vertex -0.008704146385192872 0.03390040969848633 0.025
   vertex -0.010815594673156738 0.03328697967529297 -0.005
   vertex -0.010815594673156738 0.03328697967529297 0.025
  endloop
 endfacet
 facet normal -0.3387392461299896 0.9408803582191467 0.0
  outer loop
   vertex -0.010815594673156738 0.03328697967529297 0.025
   vertex -0.010815594673156738 0.03328697967529297 -0.005
   vertex -0.01288435935974121 0.03254217529296875 0.025
  endloop
 endfacet
 facet normal -0.3387392461299896 0.9408803582191467 0.0
  outer loop
   vertex -0.010815594673156738 0.03328697967529297 -0.005
   vertex -0.01288435935974121 0.03254217529296875 -0.005
   vertex -0.01288435935974121 0.03254217529296875 0.025
  endloop
 endfacet
 facet normal -0.39714711904525757 0.9177550077438354 0.0
  outer loop
   vertex -0.01288435935974121 0.03254217529296875 -0.005
   vertex -0.014902275085449218 0.031668947219848635 -0.005
   vertex -0.01288435935974121 0.03254217529296875 0.025
  endloop
 endfacet
 facet normal -0.39714711904525757 0.9177550077438354 0.0
  outer loop
   vertex -0.01288435935974121 0.03254217529296875 0.025
   vertex -0.014902275085449218 0.031668947219848635 -0.005
   vertex -0.014902275085449218 0.031668947219848635 0.025
  endloop
 endfacet
 facet normal -0.4539905786514282 0.8910065293312073 0.0
  outer loop
   vertex -0.014902275085449218 0.031668947219848635 0.025
   vertex -0.016861377716064455 0.03067073440551758 -0.005
   vertex -0.016861377716064455 0.03067073440551758 0.025
  endloop
 endfacet
 facet normal -0.4539905786514282 0.8910065293312073 0.0
  outer loop
   vertex -0.014902275085449218 0.031668947219848635 -0.005
   vertex -0.016861377716064455 0.03067073440551758 -0.005
   vertex -0.014902275085449218 0.031668947219848635 0.025
  endloop
 endfacet
 facet normal -0.5090412497520447 0.8607421517372131 0.0
  outer loop
   vertex -0.016861377716064455 0.03067073440551758 0.025
   vertex -0.018753938674926758 0.029551477432250978 -0.005
   vertex -0.018753938674926758 0.029551477432250978 0.025
  endloop
 endfacet
 facet normal -0.5090412497520447 0.8607421517372131 0.0
  outer loop
   vertex -0.016861377716064455 0.03067073440551758 -0.005
   vertex -0.018753938674926758 0.029551477432250978 -0.005
   vertex -0.016861377716064455 0.03067073440551758 0.025
  endloop
 endfacet
 facet normal -0.5620834827423096 0.8270805478096008 0.0
  outer loop
   vertex -0.018753938674926758 0.029551477432250978 0.025
   vertex -0.020572483062744142 0.028315595626831055 -0.005
   vertex -0.020572483062744142 0.028315595626831055 0.025
  endloop
 endfacet
 facet normal -0.5620834827423096 0.8270805478096008 0.0
  outer loop
   vertex -0.018753938674926758 0.029551477432250978 -0.005
   vertex -0.020572483062744142 0.028315595626831055 -0.005
   vertex -0.018753938674926758 0.029551477432250978 0.025
  endloop
 endfacet
 facet normal -0.6129069924354553 0.7901549935340881 0.0
  outer loop
   vertex -0.020572483062744142 0.028315595626831055 0.025
   vertex -0.022309839248657228 0.02696796417236328 -0.005
   vertex -0.022309839248657228 0.02696796417236328 0.025
  endloop
 endfacet
 facet normal -0.6129069924354553 0.7901549935340881 0.0
  outer loop
   vertex -0.020572483062744142 0.028315595626831055 -0.005
   vertex -0.022309839248657228 0.02696796417236328 -0.005
   vertex -0.020572483062744142 0.028315595626831055 0.025
  endloop
 endfacet
 facet normal -0.6613118648529053 0.7501111030578613 0.0
  outer loop
   vertex -0.022309839248657228 0.02696796417236328 0.025
   vertex -0.023959148406982423 0.02551390266418457 -0.005
   vertex -0.023959148406982423 0.02551390266418457 0.025
  endloop
 endfacet
 facet normal -0.6613118648529053 0.7501111030578613 0.0
  outer loop
   vertex -0.022309839248657228 0.02696796417236328 -0.005
   vertex -0.023959148406982423 0.02551390266418457 -0.005
   vertex -0.022309839248657228 0.02696796417236328 0.025
  endloop
 endfacet
 facet normal -0.7071067690849304 0.7071067690849304 0.0
  outer loop
   vertex -0.023959148406982423 0.02551390266418457 0.025
   vertex -0.02551390266418457 0.023959148406982423 -0.005
   vertex -0.02551390266418457 0.023959148406982423 0.025
  endloop
 endfacet
 facet normal -0.7501111030578613 0.6613118648529053 0.0
  outer loop
   vertex -0.02551390266418457 0.023959148406982423 0.025
   vertex -0.02551390266418457 0.023959148406982423 -0.005
   vertex -0.02696796417236328 0.022309839248657228 0.025
  endloop
 endfacet
 facet normal -0.7071067690849304 0.7071067690849304 0.0
  outer loop
   vertex -0.023959148406982423 0.02551390266418457 -0.005
   vertex -0.02551390266418457 0.023959148406982423 -0.005
   vertex -0.023959148406982423 0.02551390266418457 0.025
  endloop
 endfacet
 facet normal -0.7501111030578613 0.6613118648529053 0.0
  outer loop
   vertex -0.02551390266418457 0.023959148406982423 -0.005
   vertex -0.02696796417236328 0.022309839248657228 -0.005
   vertex -0.02696796417236328 0.022309839248657228 0.025
  endloop
 endfacet
 facet normal -0.7901549935340881 0.6129069924354553 0.0
  outer loop
   vertex -0.02696796417236328 0.022309839248657228 0.025
   vertex -0.028315595626831055 0.020572483062744142 -0.005
   vertex -0.028315595626831055 0.020572483062744142 0.025
  endloop
 endfacet
 facet normal -0.8270805478096008 0.5620834827423096 0.0
  outer loop
   vertex -0.028315595626831055 0.020572483062744142 0.025
   vertex -0.028315595626831055 0.020572483062744142 -0.005
   vertex -0.029551477432250978 0.018753938674926758 0.025
  endloop
 endfacet
 facet normal -0.7901549935340881 0.6129069924354553 0.0
  outer loop
   vertex -0.02696796417236328 0.022309839248657228 -0.005
   vertex -0.028315595626831055 0.020572483062744142 -0.005
   vertex -0.02696796417236328 0.022309839248657228 0.025
  endloop
 endfacet
 facet normal -0.8270805478096008 0.5620834827423096 0.0
  outer loop
   vertex -0.028315595626831055 0.020572483062744142 -0.005
   vertex -0.029551477432250978 0.018753938674926758 -0.005
   vertex -0.029551477432250978 0.018753938674926758 0.025
  endloop
 endfacet
 facet normal -0.8607421517372131 0.5090412497520447 0.0
  outer loop
   vertex -0.029551477432250978 0.018753938674926758 0.025
   vertex -0.03067073440551758 0.016861377716064455 -0.005
   vertex -0.03067073440551758 0.016861377716064455 0.025
  endloop
 endfacet
 facet normal -0.8910065293312073 0.4539905786514282 0.0
  outer loop
   vertex -0.03067073440551758 0.016861377716064455 0.025
   vertex -0.03067073440551758 0.016861377716064455 -0.005
   vertex -0.031668947219848635 0.014902275085449218 0.025
  endloop
 endfacet
 facet normal -0.8607421517372131 0.5090412497520447 0.0
  outer loop
   vertex -0.029551477432250978 0.018753938674926758 -0.005
   vertex -0.03067073440551758 0.016861377716064455 -0.005
   vertex -0.029551477432250978 0.018753938674926758 0.025
  endloop
 endfacet
 facet normal -0.8910065293312073 0.4539905786514282 0.0
  outer loop
   vertex -0.03067073440551758 0.016861377716064455 -0.005
   vertex -0.031668947219848635 0.014902275085449218 -0.005
   vertex -0.031668947219848635 0.014902275085449218 0.025
  endloop
 endfacet
 facet normal -0.9177550077438354 0.39714711904525757 0.0
  outer loop
   vertex -0.031668947219848635 0.014902275085449218 0.025
   vertex -0.03254217529296875 0.01288435935974121 -0.005
   vertex -0.03254217529296875 0.01288435935974121 0.025
  endloop
 endfacet
 facet normal -0.9177550077438354 0.39714711904525757 0.0
  outer loop
   vertex -0.031668947219848635 0.014902275085449218 -0.005
   vertex -0.03254217529296875 0.01288435935974121 -0.005
   vertex -0.031668947219848635 0.014902275085449218 0.025
  endloop
 endfacet
 facet normal -0.9408803582191467 0.3387392461299896 0.0
  outer loop
   vertex -0.03254217529296875 0.01288435935974121 0.025
   vertex -0.03328697967529297 0.010815594673156738 -0.005
   vertex -0.03328697967529297 0.010815594673156738 0.025
  endloop
 endfacet
 facet normal -0.9408803582191467 0.3387392461299896 0.0
  outer loop
   vertex -0.03254217529296875 0.01288435935974121 -0.005
   vertex -0.03328697967529297 0.010815594673156738 -0.005
   vertex -0.03254217529296875 0.01288435935974121 0.025
  endloop
 endfacet
 facet normal -0.9602939486503601 0.27899008989334106 0.0
  outer loop
   vertex -0.03328697967529297 0.010815594673156738 0.025
   vertex -0.03390040969848633 0.008704146385192872 -0.005
   vertex -0.03390040969848633 0.008704146385192872 0.025
  endloop
 endfacet
 facet normal -0.9602939486503601 0.27899008989334106 0.0
  outer loop
   vertex -0.03328697967529297 0.010815594673156738 -0.005
   vertex -0.03390040969848633 0.008704146385192872 -0.005
   vertex -0.03328697967529297 0.010815594673156738 0.025
  endloop
 endfacet
 facet normal -0.9759166836738586 0.21814391016960144 0.0
  outer loop
   vertex -0.03390040969848633 0.008704146385192872 0.025
   vertex -0.03438005447387695 0.006558345794677734 -0.005
   vertex -0.03438005447387695 0.006558345794677734 0.025
  endloop
 endfacet
 facet normal -0.9759166836738586 0.21814391016960144 0.0
  outer loop
   vertex -0.03390040969848633 0.008704146385192872 -0.005
   vertex -0.03438005447387695 0.006558345794677734 -0.005
   vertex -0.03390040969848633 0.008704146385192872 0.025
  endloop
 endfacet
 facet normal -0.987688422203064 0.1564340442419052 0.0
  outer loop
   vertex -0.03438005447387695 0.006558345794677734 0.025
   vertex -0.034724014282226566 0.00438666296005249 -0.005
   vertex -0.034724014282226566 0.00438666296005249 0.025
  endloop
 endfacet
 facet normal -0.987688422203064 0.1564340442419052 0.0
  outer loop
   vertex -0.03438005447387695 0.006558345794677734 -0.005
   vertex -0.034724014282226566 0.00438666296005249 -0.005
   vertex -0.03438005447387695 0.006558345794677734 0.025
  endloop
 endfacet
 facet normal -0.9955618977546692 0.09410816431045532 0.0
  outer loop
   vertex -0.034724014282226566 0.00438666296005249 0.025
   vertex -0.03493093490600586 0.0021976680755615235 -0.005
   vertex -0.03493093490600586 0.0021976680755615235 0.025
  endloop
 endfacet
 facet normal -0.9955618977546692 0.09410816431045532 0.0
  outer loop
   vertex -0.034724014282226566 0.00438666296005249 -0.005
   vertex -0.03493093490600586 0.0021976680755615235 -0.005
   vertex -0.034724014282226566 0.00438666296005249 0.025
  endloop
 endfacet
 facet normal -0.9995065927505493 0.031411029398441315 0.0
  outer loop
   vertex -0.03493093490600586 0.0021976680755615235 -0.005
   vertex -0.035 -8.897246952859969e-17 -0.005
   vertex -0.03493093490600586 0.0021976680755615235 0.025
  endloop
 endfacet
 facet normal -0.9995065927505493 0.031411029398441315 0.0
  outer loop
   vertex -0.03493093490600586 0.0021976680755615235 0.025
   vertex -0.035 -8.897246952859969e-17 -0.005
   vertex -0.035 -8.897246952859969e-17 0.025
  endloop
 endfacet
 facet normal -0.9995065927505493 -0.031411029398441315 -0.0
  outer loop
   vertex -0.035 -8.897246952859969e-17 0.025
   vertex -0.035 -8.897246952859969e-17 -0.005
   vertex -0.03493093490600586 -0.0021976680755615235 0.025
  endloop
 endfacet
 facet normal -0.9995065927505493 -0.031411029398441315 0.0
  outer loop
   vertex -0.035 -8.897246952859969e-17 -0.005
   vertex -0.03493093490600586 -0.0021976680755615235 -0.005
   vertex -0.03493093490600586 -0.0021976680755615235 0.025
  endloop
 endfacet
 facet normal -0.9955618977546692 -0.09410816431045532 0.0
  outer loop
   vertex -0.03493093490600586 -0.0021976680755615235 -0.005
   vertex -0.034724014282226566 -0.00438666296005249 -0.005
   vertex -0.03493093490600586 -0.0021976680755615235 0.025
  endloop
 endfacet
 facet normal -0.9955618977546692 -0.09410816431045532 0.0
  outer loop
   vertex -0.03493093490600586 -0.0021976680755615235 0.025
   vertex -0.034724014282226566 -0.00438666296005249 -0.005
   vertex -0.034724014282226566 -0.00438666296005249 0.025
  endloop
 endfacet
 facet normal -0.987688422203064 -0.1564340442419052 0.0
  outer loop
   vertex -0.034724014282226566 -0.00438666296005249 -0.005
   vertex -0.03438005447387695 -0.006558345794677734 -0.005
   vertex -0.034724014282226566 -0.00438666296005249 0.025
  endloop
 endfacet
 facet normal -0.987688422203064 -0.1564340442419052 0.0
  outer loop
   vertex -0.034724014282226566 -0.00438666296005249 0.025
   vertex -0.03438005447387695 -0.006558345794677734 -0.005
   vertex -0.03438005447387695 -0.006558345794677734 0.025
  endloop
 endfacet
 facet normal -0.9759166836738586 -0.21814391016960144 0.0
  outer loop
   vertex -0.03438005447387695 -0.006558345794677734 -0.005
   vertex -0.03390040969848633 -0.008704146385192872 -0.005
   vertex -0.03438005447387695 -0.006558345794677734 0.025
  endloop
 endfacet
 facet normal -0.9759166836738586 -0.21814391016960144 0.0
  outer loop
   vertex -0.03438005447387695 -0.006558345794677734 0.025
   vertex -0.03390040969848633 -0.008704146385192872 -0.005
   vertex -0.03390040969848633 -0.008704146385192872 0.025
  endloop
 endfacet
 facet normal -0.9602939486503601 -0.27899008989334106 0.0
  outer loop
   vertex -0.03390040969848633 -0.008704146385192872 -0.005
   vertex -0.03328697967529297 -0.010815594673156738 -0.005
   vertex -0.03390040969848633 -0.008704146385192872 0.025
  endloop
 endfacet
 facet normal -0.9602939486503601 -0.27899008989334106 0.0
  outer loop
   vertex -0.03390040969848633 -0.008704146385192872 0.025
   vertex -0.03328697967529297 -0.010815594673156738 -0.005
   vertex -0.03328697967529297 -0.010815594673156738 0.025
  endloop
 endfacet
 facet normal -0.9408803582191467 -0.3387392461299896 0.0
  outer loop
   vertex -0.03328697967529297 -0.010815594673156738 -0.005
   vertex -0.03254217529296875 -0.01288435935974121 -0.005
   vertex -0.03328697967529297 -0.010815594673156738 0.025
  endloop
 endfacet
 facet normal -0.9408803582191467 -0.3387392461299896 0.0
  outer loop
   vertex -0.03328697967529297 -0.010815594673156738 0.025
   vertex -0.03254217529296875 -0.01288435935974121 -0.005
   vertex -0.03254217529296875 -0.01288435935974121 0.025
  endloop
 endfacet
 facet normal -0.9177550077438354 -0.39714711904525757 0.0
  outer loop
   vertex -0.03254217529296875 -0.01288435935974121 -0.005
   vertex -0.031668947219848635 -0.014902275085449218 -0.005
   vertex -0.03254217529296875 -0.01288435935974121 0.025
  endloop
 endfacet
 facet normal -0.9177550077438354 -0.39714711904525757 0.0
  outer loop
   vertex -0.03254217529296875 -0.01288435935974121 0.025
   vertex -0.031668947219848635 -0.014902275085449218 -0.005
   vertex -0.031668947219848635 -0.014902275085449218 0.025
  endloop
 endfacet
 facet normal -0.8910065293312073 -0.4539905786514282 0.0
  outer loop
   vertex -0.031668947219848635 -0.014902275085449218 -0.005
   vertex -0.03067073440551758 -0.016861377716064455 -0.005
   vertex -0.031668947219848635 -0.014902275085449218 0.025
  endloop
 endfacet
 facet normal -0.8910065293312073 -0.4539905786514282 0.0
  outer loop
   vertex -0.031668947219848635 -0.014902275085449218 0.025
   vertex -0.03067073440551758 -0.016861377716064455 -0.005
   vertex -0.03067073440551758 -0.016861377716064455 0.025
  endloop
 endfacet
 facet normal -0.8607421517372131 -0.5090412497520447 0.0
  outer loop
   vertex -0.03067073440551758 -0.016861377716064455 -0.005
   vertex -0.029551477432250978 -0.018753938674926758 -0.005
   vertex -0.03067073440551758 -0.016861377716064455 0.025
  endloop
 endfacet
 facet normal -0.8607421517372131 -0.5090412497520447 0.0
  outer loop
   vertex -0.03067073440551758 -0.016861377716064455 0.025
   vertex -0.029551477432250978 -0.018753938674926758 -0.005
   vertex -0.029551477432250978 -0.018753938674926758 0.025
  endloop
 endfacet
 facet normal -0.8270805478096008 -0.5620834827423096 0.0
  outer loop
   vertex -0.029551477432250978 -0.018753938674926758 -0.005
   vertex -0.028315595626831055 -0.020572483062744142 -0.005
   vertex -0.029551477432250978 -0.018753938674926758 0.025
  endloop
 endfacet
 facet normal -0.8270805478096008 -0.5620834827423096 0.0
  outer loop
   vertex -0.029551477432250978 -0.018753938674926758 0.025
   vertex -0.028315595626831055 -0.020572483062744142 -0.005
   vertex -0.028315595626831055 -0.020572483062744142 0.025
  endloop
 endfacet
 facet normal -0.7901549935340881 -0.6129069924354553 0.0
  outer loop
   vertex -0.028315595626831055 -0.020572483062744142 -0.005
   vertex -0.02696796417236328 -0.022309839248657228 -0.005
   vertex -0.028315595626831055 -0.020572483062744142 0.025
  endloop
 endfacet
 facet normal -0.7901549935340881 -0.6129069924354553 0.0
  outer loop
   vertex -0.028315595626831055 -0.020572483062744142 0.025
   vertex -0.02696796417236328 -0.022309839248657228 -0.005
   vertex -0.02696796417236328 -0.022309839248657228 0.025
  endloop
 endfacet
 facet normal -0.7501111030578613 -0.6613118648529053 0.0
  outer loop
   vertex -0.02696796417236328 -0.022309839248657228 -0.005
   vertex -0.02551390266418457 -0.023959148406982423 -0.005
   vertex -0.02696796417236328 -0.022309839248657228 0.025
  endloop
 endfacet
 facet normal -0.7501111030578613 -0.6613118648529053 0.0
  outer loop
   vertex -0.02696796417236328 -0.022309839248657228 0.025
   vertex -0.02551390266418457 -0.023959148406982423 -0.005
   vertex -0.02551390266418457 -0.023959148406982423 0.025
  endloop
 endfacet
 facet normal -0.7071067690849304 -0.7071067690849304 0.0
  outer loop
   vertex -0.02551390266418457 -0.023959148406982423 -0.005
   vertex -0.023959148406982423 -0.02551390266418457 -0.005
   vertex -0.02551390266418457 -0.023959148406982423 0.025
  endloop
 endfacet
 facet normal -0.7071067690849304 -0.7071067690849304 0.0
  outer loop
   vertex -0.02551390266418457 -0.023959148406982423 0.025
   vertex -0.023959148406982423 -0.02551390266418457 -0.005
   vertex -0.023959148406982423 -0.02551390266418457 0.025
  endloop
 endfacet
 facet normal -0.6613118648529053 -0.7501111030578613 0.0
  outer loop
   vertex -0.023959148406982423 -0.02551390266418457 -0.005
   vertex -0.022309839248657228 -0.02696796417236328 -0.005
   vertex -0.023959148406982423 -0.02551390266418457 0.025
  endloop
 endfacet
 facet normal -0.6613118648529053 -0.7501111030578613 0.0
  outer loop
   vertex -0.023959148406982423 -0.02551390266418457 0.025
   vertex -0.022309839248657228 -0.02696796417236328 -0.005
   vertex -0.022309839248657228 -0.02696796417236328 0.025
  endloop
 endfacet
 facet normal -0.6129069924354553 -0.7901549935340881 0.0
  outer loop
   vertex -0.022309839248657228 -0.02696796417236328 -0.005
   vertex -0.020572483062744142 -0.028315595626831055 -0.005
   vertex -0.022309839248657228 -0.02696796417236328 0.025
  endloop
 endfacet
 facet normal -0.6129069924354553 -0.7901549935340881 0.0
  outer loop
   vertex -0.022309839248657228 -0.02696796417236328 0.025
   vertex -0.020572483062744142 -0.028315595626831055 -0.005
   vertex -0.020572483062744142 -0.028315595626831055 0.025
  endloop
 endfacet
 facet normal -0.5620834827423096 -0.8270805478096008 0.0
  outer loop
   vertex -0.020572483062744142 -0.028315595626831055 0.025
   vertex -0.018753938674926758 -0.029551477432250978 -0.005
   vertex -0.018753938674926758 -0.029551477432250978 0.025
  endloop
 endfacet
 facet normal -0.5620834827423096 -0.8270805478096008 0.0
  outer loop
   vertex -0.020572483062744142 -0.028315595626831055 -0.005
   vertex -0.018753938674926758 -0.029551477432250978 -0.005
   vertex -0.020572483062744142 -0.028315595626831055 0.025
  endloop
 endfacet
 facet normal -0.5090412497520447 -0.8607421517372131 0.0
  outer loop
   vertex -0.018753938674926758 -0.029551477432250978 0.025
   vertex -0.016861377716064455 -0.03067073440551758 -0.005
   vertex -0.016861377716064455 -0.03067073440551758 0.025
  endloop
 endfacet
 facet normal -0.5090412497520447 -0.8607421517372131 0.0
  outer loop
   vertex -0.018753938674926758 -0.029551477432250978 -0.005
   vertex -0.016861377716064455 -0.03067073440551758 -0.005
   vertex -0.018753938674926758 -0.029551477432250978 0.025
  endloop
 endfacet
 facet normal -0.4539905786514282 -0.8910065293312073 0.0
  outer loop
   vertex -0.016861377716064455 -0.03067073440551758 0.025
   vertex -0.014902275085449218 -0.031668947219848635 -0.005
   vertex -0.014902275085449218 -0.031668947219848635 0.025
  endloop
 endfacet
 facet normal -0.4539905786514282 -0.8910065293312073 0.0
  outer loop
   vertex -0.016861377716064455 -0.03067073440551758 -0.005
   vertex -0.014902275085449218 -0.031668947219848635 -0.005
   vertex -0.016861377716064455 -0.03067073440551758 0.025
  endloop
 endfacet
 facet normal -0.39714711904525757 -0.9177550077438354 0.0
  outer loop
   vertex -0.014902275085449218 -0.031668947219848635 0.025
   vertex -0.01288435935974121 -0.03254217529296875 -0.005
   vertex -0.01288435935974121 -0.03254217529296875 0.025
  endloop
 endfacet
 facet normal -0.39714711904525757 -0.9177550077438354 0.0
  outer loop
   vertex -0.014902275085449218 -0.031668947219848635 -0.005
   vertex -0.01288435935974121 -0.03254217529296875 -0.005
   vertex -0.014902275085449218 -0.031668947219848635 0.025
  endloop
 endfacet
 facet normal -0.3387392461299896 -0.9408803582191467 0.0
  outer loop
   vertex -0.01288435935974121 -0.03254217529296875 0.025
   vertex -0.010815594673156738 -0.03328697967529297 -0.005
   vertex -0.010815594673156738 -0.03328697967529297 0.025
  endloop
 endfacet
 facet normal -0.3387392461299896 -0.9408803582191467 0.0
  outer loop
   vertex -0.01288435935974121 -0.03254217529296875 -0.005
   vertex -0.010815594673156738 -0.03328697967529297 -0.005
   vertex -0.01288435935974121 -0.03254217529296875 0.025
  endloop
 endfacet
 facet normal -0.27899008989334106 -0.9602939486503601 0.0
  outer loop
   vertex -0.010815594673156738 -0.03328697967529297 0.025
   vertex -0.008704146385192872 -0.03390040969848633 -0.005
   vertex -0.008704146385192872 -0.03390040969848633 0.025
  endloop
 endfacet
 facet normal -0.27899008989334106 -0.9602939486503601 0.0
  outer loop
   vertex -0.010815594673156738 -0.03328697967529297 -0.005
   vertex -0.008704146385192872 -0.03390040969848633 -0.005
   vertex -0.010815594673156738 -0.03328697967529297 0.025
  endloop
 endfacet
 facet normal -0.21814391016960144 -0.9759166836738586 0.0
  outer loop
   vertex -0.008704146385192872 -0.03390040969848633 0.025
   vertex -0.006558345794677734 -0.03438005447387695 -0.005
   vertex -0.006558345794677734 -0.03438005447387695 0.025
  endloop
 endfacet
 facet normal -0.1564340442419052 -0.987688422203064 -0.0
  outer loop
   vertex -0.006558345794677734 -0.03438005447387695 0.025
   vertex -0.006558345794677734 -0.03438005447387695 -0.005
   vertex -0.00438666296005249 -0.034724014282226566 0.025
  endloop
 endfacet
 facet normal -0.21814391016960144 -0.9759166836738586 0.0
  outer loop
   vertex -0.008704146385192872 -0.03390040969848633 -0.005
   vertex -0.006558345794677734 -0.03438005447387695 -0.005
   vertex -0.008704146385192872 -0.03390040969848633 0.025
  endloop
 endfacet
 facet normal -0.1564340442419052 -0.987688422203064 0.0
  outer loop
   vertex -0.006558345794677734 -0.03438005447387695 -0.005
   vertex -0.00438666296005249 -0.034724014282226566 -0.005
   vertex -0.00438666296005249 -0.034724014282226566 0.025
  endloop
 endfacet
 facet normal -0.09410816431045532 -0.9955618977546692 0.0
  outer loop
   vertex -0.00438666296005249 -0.034724014282226566 0.025
   vertex -0.0021976680755615235 -0.03493093490600586 -0.005
   vertex -0.0021976680755615235 -0.03493093490600586 0.025
  endloop
 endfacet
 facet normal -0.09410816431045532 -0.9955618977546692 0.0
  outer loop
   vertex -0.00438666296005249 -0.034724014282226566 -0.005
   vertex -0.0021976680755615235 -0.03493093490600586 -0.005
   vertex -0.00438666296005249 -0.034724014282226566 0.025
  endloop
 endfacet
 facet normal -0.031411029398441315 -0.9995065927505493 0.0
  outer loop
   vertex -0.0021976680755615235 -0.03493093490600586 -0.005
   vertex -6.429395539320768e-18 -0.035 -0.005
   vertex -0.0021976680755615235 -0.03493093490600586 0.025
  endloop
 endfacet
 facet normal -0.031411029398441315 -0.9995065927505493 0.0
  outer loop
   vertex -0.0021976680755615235 -0.03493093490600586 0.025
   vertex -6.429395539320768e-18 -0.035 -0.005
   vertex -6.429395539320768e-18 -0.035 0.025
  endloop
 endfacet
 facet normal 0.031411029398441315 -0.9995065927505493 0.0
  outer loop
   vertex -6.429395539320768e-18 -0.035 -0.005
   vertex 0.0021976680755615235 -0.03493093490600586 -0.005
   vertex -6.429395539320768e-18 -0.035 0.025
  endloop
 endfacet
 facet normal 0.031411029398441315 -0.9995065927505493 0.0
  outer loop
   vertex -6.429395539320768e-18 -0.035 0.025
   vertex 0.0021976680755615235 -0.03493093490600586 -0.005
   vertex 0.0021976680755615235 -0.03493093490600586 0.025
  endloop
 endfacet
 facet normal 0.09410816431045532 -0.9955618977546692 0.0
  outer loop
   vertex 0.0021976680755615235 -0.03493093490600586 -0.005
   vertex 0.00438666296005249 -0.034724014282226566 -0.005
   vertex 0.0021976680755615235 -0.03493093490600586 0.025
  endloop
 endfacet
 facet normal 0.09410816431045532 -0.9955618977546692 0.0
  outer loop
   vertex 0.0021976680755615235 -0.03493093490600586 0.025
   vertex 0.00438666296005249 -0.034724014282226566 -0.005
   vertex 0.00438666296005249 -0.034724014282226566 0.025
  endloop
 endfacet
 facet normal 0.1564340442419052 -0.987688422203064 0.0
  outer loop
   vertex 0.00438666296005249 -0.034724014282226566 -0.005
   vertex 0.006558345794677734 -0.03438005447387695 -0.005
   vertex 0.00438666296005249 -0.034724014282226566 0.025
  endloop
 endfacet
 facet normal 0.1564340442419052 -0.987688422203064 0.0
  outer loop
   vertex 0.00438666296005249 -0.034724014282226566 0.025
   vertex 0.006558345794677734 -0.03438005447387695 -0.005
   vertex 0.006558345794677734 -0.03438005447387695 0.025
  endloop
 endfacet
 facet normal 0.21814391016960144 -0.9759166836738586 0.0
  outer loop
   vertex 0.006558345794677734 -0.03438005447387695 0.025
   vertex 0.006558345794677734 -0.03438005447387695 -0.005
   vertex 0.008704146385192872 -0.03390040969848633 0.025
  endloop
 endfacet
 facet normal 0.21814391016960144 -0.9759166836738586 0.0
  outer loop
   vertex 0.006558345794677734 -0.03438005447387695 -0.005
   vertex 0.008704146385192872 -0.03390040969848633 -0.005
   vertex 0.008704146385192872 -0.03390040969848633 0.025
  endloop
 endfacet
 facet normal 0.27899008989334106 -0.9602939486503601 0.0
  outer loop
   vertex 0.008704146385192872 -0.03390040969848633 -0.005
   vertex 0.010815594673156738 -0.03328697967529297 -0.005
   vertex 0.008704146385192872 -0.03390040969848633 0.025
  endloop
 endfacet
 facet normal 0.27899008989334106 -0.9602939486503601 0.0
  outer loop
   vertex 0.008704146385192872 -0.03390040969848633 0.025
   vertex 0.010815594673156738 -0.03328697967529297 -0.005
   vertex 0.010815594673156738 -0.03328697967529297 0.025
  endloop
 endfacet
 facet normal 0.3387392461299896 -0.9408803582191467 0.0
  outer loop
   vertex 0.010815594673156738 -0.03328697967529297 -0.005
   vertex 0.01288435935974121 -0.03254217529296875 -0.005
   vertex 0.010815594673156738 -0.03328697967529297 0.025
  endloop
 endfacet
 facet normal 0.3387392461299896 -0.9408803582191467 0.0
  outer loop
   vertex 0.010815594673156738 -0.03328697967529297 0.025
   vertex 0.01288435935974121 -0.03254217529296875 -0.005
   vertex 0.01288435935974121 -0.03254217529296875 0.025
  endloop
 endfacet
 facet normal 0.39714711904525757 -0.9177550077438354 0.0
  outer loop
   vertex 0.01288435935974121 -0.03254217529296875 -0.005
   vertex 0.014902275085449218 -0.031668947219848635 -0.005
   vertex 0.01288435935974121 -0.03254217529296875 0.025
  endloop
 endfacet
 facet normal 0.39714711904525757 -0.9177550077438354 0.0
  outer loop
   vertex 0.01288435935974121 -0.03254217529296875 0.025
   vertex 0.014902275085449218 -0.031668947219848635 -0.005
   vertex 0.014902275085449218 -0.031668947219848635 0.025
  endloop
 endfacet
 facet normal 0.4539905786514282 -0.8910065293312073 0.0
  outer loop
   vertex 0.014902275085449218 -0.031668947219848635 -0.005
   vertex 0.016861377716064455 -0.03067073440551758 -0.005
   vertex 0.014902275085449218 -0.031668947219848635 0.025
  endloop
 endfacet
 facet normal 0.4539905786514282 -0.8910065293312073 0.0
  outer loop
   vertex 0.014902275085449218 -0.031668947219848635 0.025
   vertex 0.016861377716064455 -0.03067073440551758 -0.005
   vertex 0.016861377716064455 -0.03067073440551758 0.025
  endloop
 endfacet
 facet normal 0.5090412497520447 -0.8607421517372131 0.0
  outer loop
   vertex 0.016861377716064455 -0.03067073440551758 -0.005
   vertex 0.018753938674926758 -0.029551477432250978 -0.005
   vertex 0.016861377716064455 -0.03067073440551758 0.025
  endloop
 endfacet
 facet normal 0.5090412497520447 -0.8607421517372131 0.0
  outer loop
   vertex 0.016861377716064455 -0.03067073440551758 0.025
   vertex 0.018753938674926758 -0.029551477432250978 -0.005
   vertex 0.018753938674926758 -0.029551477432250978 0.025
  endloop
 endfacet
 facet normal 0.5620834827423096 -0.8270805478096008 0.0
  outer loop
   vertex 0.018753938674926758 -0.029551477432250978 -0.005
   vertex 0.020572483062744142 -0.028315595626831055 -0.005
   vertex 0.018753938674926758 -0.029551477432250978 0.025
  endloop
 endfacet
 facet normal 0.5620834827423096 -0.8270805478096008 0.0
  outer loop
   vertex 0.018753938674926758 -0.029551477432250978 0.025
   vertex 0.020572483062744142 -0.028315595626831055 -0.005
   vertex 0.020572483062744142 -0.028315595626831055 0.025
  endloop
 endfacet
 facet normal 0.6129069924354553 -0.7901549935340881 0.0
  outer loop
   vertex 0.020572483062744142 -0.028315595626831055 -0.005
   vertex 0.022309839248657228 -0.02696796417236328 -0.005
   vertex 0.020572483062744142 -0.028315595626831055 0.025
  endloop
 endfacet
 facet normal 0.6129069924354553 -0.7901549935340881 0.0
  outer loop
   vertex 0.020572483062744142 -0.028315595626831055 0.025
   vertex 0.022309839248657228 -0.02696796417236328 -0.005
   vertex 0.022309839248657228 -0.02696796417236328 0.025
  endloop
 endfacet
 facet normal 0.6613118648529053 -0.7501111030578613 0.0
  outer loop
   vertex 0.022309839248657228 -0.02696796417236328 -0.005
   vertex 0.023959148406982423 -0.02551390266418457 -0.005
   vertex 0.022309839248657228 -0.02696796417236328 0.025
  endloop
 endfacet
 facet normal 0.6613118648529053 -0.7501111030578613 0.0
  outer loop
   vertex 0.022309839248657228 -0.02696796417236328 0.025
   vertex 0.023959148406982423 -0.02551390266418457 -0.005
   vertex 0.023959148406982423 -0.02551390266418457 0.025
  endloop
 endfacet
 facet normal 0.7071067690849304 -0.7071067690849304 0.0
  outer loop
   vertex 0.023959148406982423 -0.02551390266418457 -0.005
   vertex 0.02551390266418457 -0.023959148406982423 -0.005
   vertex 0.023959148406982423 -0.02551390266418457 0.025
  endloop
 endfacet
 facet normal 0.7071067690849304 -0.7071067690849304 0.0
  outer loop
   vertex 0.023959148406982423 -0.02551390266418457 0.025
   vertex 0.02551390266418457 -0.023959148406982423 -0.005
   vertex 0.02551390266418457 -0.023959148406982423 0.025
  endloop
 endfacet
 facet normal 0.7501111030578613 -0.6613118648529053 0.0
  outer loop
   vertex 0.02551390266418457 -0.023959148406982423 -0.005
   vertex 0.02696796417236328 -0.022309839248657228 -0.005
   vertex 0.02551390266418457 -0.023959148406982423 0.025
  endloop
 endfacet
 facet normal 0.7501111030578613 -0.6613118648529053 0.0
  outer loop
   vertex 0.02551390266418457 -0.023959148406982423 0.025
   vertex 0.02696796417236328 -0.022309839248657228 -0.005
   vertex 0.02696796417236328 -0.022309839248657228 0.025
  endloop
 endfacet
 facet normal 0.7901549935340881 -0.6129069924354553 0.0
  outer loop
   vertex 0.02696796417236328 -0.022309839248657228 -0.005
   vertex 0.028315595626831055 -0.020572483062744142 -0.005
   vertex 0.02696796417236328 -0.022309839248657228 0.025
  endloop
 endfacet
 facet normal 0.7901549935340881 -0.6129069924354553 0.0
  outer loop
   vertex 0.02696796417236328 -0.022309839248657228 0.025
   vertex 0.028315595626831055 -0.020572483062744142 -0.005
   vertex 0.028315595626831055 -0.020572483062744142 0.025
  endloop
 endfacet
 facet normal 0.8270805478096008 -0.5620834827423096 0.0
  outer loop
   vertex 0.028315595626831055 -0.020572483062744142 -0.005
   vertex 0.029551477432250978 -0.018753938674926758 -0.005
   vertex 0.028315595626831055 -0.020572483062744142 0.025
  endloop
 endfacet
 facet normal 0.8270805478096008 -0.5620834827423096 0.0
  outer loop
   vertex 0.028315595626831055 -0.020572483062744142 0.025
   vertex 0.029551477432250978 -0.018753938674926758 -0.005
   vertex 0.029551477432250978 -0.018753938674926758 0.025
  endloop
 endfacet
 facet normal 0.8607421517372131 -0.5090412497520447 0.0
  outer loop
   vertex 0.029551477432250978 -0.018753938674926758 -0.005
   vertex 0.03067073440551758 -0.016861377716064455 -0.005
   vertex 0.029551477432250978 -0.018753938674926758 0.025
  endloop
 endfacet
 facet normal 0.8607421517372131 -0.5090412497520447 0.0
  outer loop
   vertex 0.029551477432250978 -0.018753938674926758 0.025
   vertex 0.03067073440551758 -0.016861377716064455 -0.005
   vertex 0.03067073440551758 -0.016861377716064455 0.025
  endloop
 endfacet
 facet normal 0.8910065293312073 -0.4539905786514282 0.0
  outer loop
   vertex 0.03067073440551758 -0.016861377716064455 -0.005
   vertex 0.031668947219848635 -0.014902275085449218 -0.005
   vertex 0.03067073440551758 -0.016861377716064455 0.025
  endloop
 endfacet
 facet normal 0.8910065293312073 -0.4539905786514282 0.0
  outer loop
   vertex 0.03067073440551758 -0.016861377716064455 0.025
   vertex 0.031668947219848635 -0.014902275085449218 -0.005
   vertex 0.031668947219848635 -0.014902275085449218 0.025
  endloop
 endfacet
 facet normal 0.9177550077438354 -0.39714711904525757 0.0
  outer loop
   vertex 0.031668947219848635 -0.014902275085449218 -0.005
   vertex 0.03254217529296875 -0.01288435935974121 -0.005
   vertex 0.031668947219848635 -0.014902275085449218 0.025
  endloop
 endfacet
 facet normal 0.9177550077438354 -0.39714711904525757 0.0
  outer loop
   vertex 0.031668947219848635 -0.014902275085449218 0.025
   vertex 0.03254217529296875 -0.01288435935974121 -0.005
   vertex 0.03254217529296875 -0.01288435935974121 0.025
  endloop
 endfacet
 facet normal 0.9408803582191467 -0.3387392461299896 0.0
  outer loop
   vertex 0.03254217529296875 -0.01288435935974121 0.025
   vertex 0.03254217529296875 -0.01288435935974121 -0.005
   vertex 0.03328697967529297 -0.010815594673156738 0.025
  endloop
 endfacet
 facet normal 0.9408803582191467 -0.3387392461299896 0.0
  outer loop
   vertex 0.03254217529296875 -0.01288435935974121 -0.005
   vertex 0.03328697967529297 -0.010815594673156738 -0.005
   vertex 0.03328697967529297 -0.010815594673156738 0.025
  endloop
 endfacet
 facet normal 0.9602939486503601 -0.27899008989334106 0.0
  outer loop
   vertex 0.03328697967529297 -0.010815594673156738 -0.005
   vertex 0.03390040969848633 -0.008704146385192872 -0.005
   vertex 0.03328697967529297 -0.010815594673156738 0.025
  endloop
 endfacet
 facet normal 0.9602939486503601 -0.27899008989334106 0.0
  outer loop
   vertex 0.03328697967529297 -0.010815594673156738 0.025
   vertex 0.03390040969848633 -0.008704146385192872 -0.005
   vertex 0.03390040969848633 -0.008704146385192872 0.025
  endloop
 endfacet
 facet normal 0.9759166836738586 -0.21814391016960144 0.0
  outer loop
   vertex 0.03390040969848633 -0.008704146385192872 -0.005
   vertex 0.03438005447387695 -0.006558345794677734 -0.005
   vertex 0.03390040969848633 -0.008704146385192872 0.025
  endloop
 endfacet
 facet normal 0.9759166836738586 -0.21814391016960144 0.0
  outer loop
   vertex 0.03390040969848633 -0.008704146385192872 0.025
   vertex 0.03438005447387695 -0.006558345794677734 -0.005
   vertex 0.03438005447387695 -0.006558345794677734 0.025
  endloop
 endfacet
 facet normal 0.987688422203064 -0.1564340442419052 0.0
  outer loop
   vertex 0.03438005447387695 -0.006558345794677734 -0.005
   vertex 0.034724014282226566 -0.00438666296005249 -0.005
   vertex 0.03438005447387695 -0.006558345794677734 0.025
  endloop
 endfacet
 facet normal 0.987688422203064 -0.1564340442419052 0.0
  outer loop
   vertex 0.03438005447387695 -0.006558345794677734 0.025
   vertex 0.034724014282226566 -0.00438666296005249 -0.005
   vertex 0.034724014282226566 -0.00438666296005249 0.025
  endloop
 endfacet
 facet normal 0.9955618977546692 -0.09410816431045532 0.0
  outer loop
   vertex 0.034724014282226566 -0.00438666296005249 -0.005
   vertex 0.03493093490600586 -0.0021976680755615235 -0.005
   vertex 0.034724014282226566 -0.00438666296005249 0.025
  endloop
 endfacet
 facet normal 0.9955618977546692 -0.09410816431045532 0.0
  outer loop
   vertex 0.034724014282226566 -0.00438666296005249 0.025
   vertex 0.03493093490600586 -0.0021976680755615235 -0.005
   vertex 0.03493093490600586 -0.0021976680755615235 0.025
  endloop
 endfacet
 facet normal 0.9995065927505493 -0.031411029398441315 0.0
  outer loop
   vertex 0.03493093490600586 -0.0021976680755615235 0.025
   vertex 0.035 -8.572527385761024e-18 -0.005
   vertex 0.035 -8.572527385761024e-18 0.025
  endloop
 endfacet
 facet normal 0.9995065927505493 -0.031411029398441315 0.0
  outer loop
   vertex 0.03493093490600586 -0.0021976680755615235 -0.005
   vertex 0.035 -8.572527385761024e-18 -0.005
   vertex 0.03493093490600586 -0.0021976680755615235 0.025
  endloop
 endfacet
 facet normal 0.0 0.0 -1.0
  outer loop
   vertex -0.02696796417236328 -0.022309839248657228 -0.005
   vertex -0.028315595626831055 -0.020572483062744142 -0.005
   vertex -0.02551390266418457 -0.023959148406982423 -0.005
  endloop
 endfacet
 facet normal 0.0 0.0 -1.0
  outer loop
   vertex -0.02551390266418457 -0.023959148406982423 -0.005
   vertex -0.028315595626831055 -0.020572483062744142 -0.005
   vertex -0.023959148406982423 -0.02551390266418457 -0.005
  endloop
 endfacet
 facet normal 0.0 0.0 -1.0
  outer loop
   vertex -0.023959148406982423 -0.02551390266418457 -0.005
   vertex -0.020572483062744142 -0.028315595626831055 -0.005
   vertex -0.022309839248657228 -0.02696796417236328 -0.005
  endloop
 endfacet
 facet normal 0.0 0.0 -1.0
  outer loop
   vertex -0.028315595626831055 -0.020572483062744142 -0.005
   vertex -0.016861377716064455 -0.03067073440551758 -0.005
   vertex -0.023959148406982423 -0.02551390266418457 -0.005
  endloop
 endfacet
 facet normal 0.0 0.0 -1.0
  outer loop
   vertex -0.023959148406982423 -0.02551390266418457 -0.005
   vertex -0.016861377716064455 -0.03067073440551758 -0.005
   vertex -0.020572483062744142 -0.028315595626831055 -0.005
  endloop
 endfacet
 facet normal 0.0 0.0 -1.0
  outer loop
   vertex -0.029551477432250978 -0.018753938674926758 -0.005
   vertex -0.016861377716064455 -0.03067073440551758 -0.005
   vertex -0.028315595626831055 -0.020572483062744142 -0.005
  endloop
 endfacet
 facet normal 0.0 0.0 -1.0
  outer loop
   vertex -0.020572483062744142 -0.028315595626831055 -0.005
   vertex -0.016861377716064455 -0.03067073440551758 -0.005
   vertex -0.018753938674926758 -0.029551477432250978 -0.005
  endloop
 endfacet
 facet normal 0.0 0.0 -1.0
  outer loop
   vertex -0.031668947219848635 -0.014902275085449218 -0.005
   vertex -0.03254217529296875 -0.01288435935974121 -0.005
   vertex -0.03067073440551758 -0.016861377716064455 -0.005
  endloop
 endfacet
 facet normal 0.0 0.0 -1.0
  outer loop
   vertex -0.03438005447387695 -0.006558345794677734 -0.005
   vertex -0.034724014282226566 -0.00438666296005249 -0.005
   vertex -0.03390040969848633 -0.008704146385192872 -0.005
  endloop
 endfacet
 facet normal 0.0 0.0 -1.0
  outer loop
   vertex -0.034724014282226566 -0.00438666296005249 -0.005
   vertex -0.03493093490600586 -0.0021976680755615235 -0.005
   vertex -0.03390040969848633 -0.008704146385192872 -0.005
  endloop
 endfacet
 facet normal 0.0 0.0 -1.0
  outer loop
   vertex -0.014902275085449218 -0.031668947219848635 -0.005
   vertex -0.0021976680755615235 -0.03493093490600586 -0.005
   vertex -0.01288435935974121 -0.03254217529296875 -0.005
  endloop
 endfacet
 facet normal 0.0 0.0 -1.0
  outer loop
   vertex -0.01288435935974121 -0.03254217529296875 -0.005
   vertex -0.0021976680755615235 -0.03493093490600586 -0.005
   vertex -0.010815594673156738 -0.03328697967529297 -0.005
  endloop
 endfacet
 facet normal 0.0 0.0 -1.0
  outer loop
   vertex -0.010815594673156738 -0.03328697967529297 -0.005
   vertex -0.0021976680755615235 -0.03493093490600586 -0.005
   vertex -0.008704146385192872 -0.03390040969848633 -0.005
  endloop
 endfacet
 facet normal 0.0 0.0 -1.0
  outer loop
   vertex -0.008704146385192872 -0.03390040969848633 -0.005
   vertex -0.0021976680755615235 -0.03493093490600586 -0.005
   vertex -0.006558345794677734 -0.03438005447387695 -0.005
  endloop
 endfacet
 facet normal 0.0 0.0 -1.0
  outer loop
   vertex -0.006558345794677734 -0.03438005447387695 -0.005
   vertex -0.0021976680755615235 -0.03493093490600586 -0.005
   vertex -0.00438666296005249 -0.034724014282226566 -0.005
  endloop
 endfacet
 facet normal 0.0 0.0 -1.0
  outer loop
   vertex -0.03493093490600586 -0.0021976680755615235 -0.005
   vertex -0.03493093490600586 0.0021976680755615235 -0.005
   vertex -0.03390040969848633 -0.008704146385192872 -0.005
  endloop
 endfacet
 facet normal 0.0 0.0 -1.0
  outer loop
   vertex -0.035 -8.897246952859969e-17 -0.005
   vertex -0.03493093490600586 0.0021976680755615235 -0.005
   vertex -0.03493093490600586 -0.0021976680755615235 -0.005
  endloop
 endfacet
 facet normal 0.0 0.0 -1.0
  outer loop
   vertex -0.03390040969848633 -0.008704146385192872 -0.005
   vertex -0.03493093490600586 0.0021976680755615235 -0.005
   vertex -0.03328697967529297 -0.010815594673156738 -0.005
  endloop
 endfacet
 facet normal 0.0 0.0 -1.0
  outer loop
   vertex -0.014902275085449218 -0.031668947219848635 -0.005
   vertex 0.0021976680755615235 -0.03493093490600586 -0.005
   vertex -0.0021976680755615235 -0.03493093490600586 -0.005
  endloop
 endfacet
 facet normal 0.0 0.0 -1.0
  outer loop
   vertex -0.0021976680755615235 -0.03493093490600586 -0.005
   vertex 0.0021976680755615235 -0.03493093490600586 -0.005
   vertex -6.429395539320768e-18 -0.035 -0.005
  endloop
 endfacet
 facet normal 0.0 0.0 -1.0
  outer loop
   vertex -0.029551477432250978 -0.018753938674926758 -0.005
   vertex 0.00438666296005249 -0.034724014282226566 -0.005
   vertex -0.016861377716064455 -0.03067073440551758 -0.005
  endloop
 endfacet
 facet normal 0.0 0.0 -1.0
  outer loop
   vertex -0.03254217529296875 -0.01288435935974121 -0.005
   vertex 0.00438666296005249 -0.034724014282226566 -0.005
   vertex -0.03067073440551758 -0.016861377716064455 -0.005
  endloop
 endfacet
 facet normal 0.0 0.0 -1.0
  outer loop
   vertex -0.014902275085449218 -0.031668947219848635 -0.005
   vertex 0.00438666296005249 -0.034724014282226566 -0.005
   vertex 0.0021976680755615235 -0.03493093490600586 -0.005
  endloop
 endfacet
 facet normal 0.0 0.0 -1.0
  outer loop
   vertex -0.03067073440551758 -0.016861377716064455 -0.005
   vertex 0.00438666296005249 -0.034724014282226566 -0.005
   vertex -0.029551477432250978 -0.018753938674926758 -0.005
  endloop
 endfacet
 facet normal 0.0 0.0 -1.0
  outer loop
   vertex -0.016861377716064455 -0.03067073440551758 -0.005
   vertex 0.00438666296005249 -0.034724014282226566 -0.005
   vertex -0.014902275085449218 -0.031668947219848635 -0.005
  endloop
 endfacet
 facet normal 0.0 -0.0 -1.0
  outer loop
   vertex -0.03438005447387695 0.006558345794677734 -0.005
   vertex -0.03390040969848633 0.008704146385192872 -0.005
   vertex -0.034724014282226566 0.00438666296005249 -0.005
  endloop
 endfacet
 facet normal 0.0 -0.0 -1.0
  outer loop
   vertex -0.034724014282226566 0.00438666296005249 -0.005
   vertex -0.03390040969848633 0.008704146385192872 -0.005
   vertex -0.03493093490600586 0.0021976680755615235 -0.005
  endloop
 endfacet
 facet normal 0.0 0.0 -1.0
  outer loop
   vertex -0.03328697967529297 -0.010815594673156738 -0.005
   vertex -0.03390040969848633 0.008704146385192872 -0.005
   vertex -0.03254217529296875 -0.01288435935974121 -0.005
  endloop
 endfacet
 facet normal 0.0 0.0 -1.0
  outer loop
   vertex -0.03493093490600586 0.0021976680755615235 -0.005
   vertex -0.03390040969848633 0.008704146385192872 -0.005
   vertex -0.03328697967529297 -0.010815594673156738 -0.005
  endloop
 endfacet
 facet normal 0.0 0.0 -1.0
  outer loop
   vertex 0.006558345794677734 -0.03438005447387695 -0.005
   vertex 0.010815594673156738 -0.03328697967529297 -0.005
   vertex 0.008704146385192872 -0.03390040969848633 -0.005
  endloop
 endfacet
 facet normal 0.0 0.0 -1.0
  outer loop
   vertex 0.010815594673156738 -0.03328697967529297 -0.005
   vertex 0.014902275085449218 -0.031668947219848635 -0.005
   vertex 0.01288435935974121 -0.03254217529296875 -0.005
  endloop
 endfacet
 facet normal 0.0 -0.0 -1.0
  outer loop
   vertex -0.03254217529296875 0.01288435935974121 -0.005
   vertex -0.031668947219848635 0.014902275085449218 -0.005
   vertex -0.03328697967529297 0.010815594673156738 -0.005
  endloop
 endfacet
 facet normal 0.0 0.0 -1.0
  outer loop
   vertex 0.006558345794677734 -0.03438005447387695 -0.005
   vertex 0.016861377716064455 -0.03067073440551758 -0.005
   vertex 0.010815594673156738 -0.03328697967529297 -0.005
  endloop
 endfacet
 facet normal 0.0 0.0 -1.0
  outer loop
   vertex 0.00438666296005249 -0.034724014282226566 -0.005
   vertex 0.016861377716064455 -0.03067073440551758 -0.005
   vertex 0.006558345794677734 -0.03438005447387695 -0.005
  endloop
 endfacet
 facet normal 0.0 0.0 -1.0
  outer loop
   vertex 0.010815594673156738 -0.03328697967529297 -0.005
   vertex 0.016861377716064455 -0.03067073440551758 -0.005
   vertex 0.014902275085449218 -0.031668947219848635 -0.005
  endloop
 endfacet
 facet normal 0.0 -0.0 -1.0
  outer loop
   vertex -0.03067073440551758 0.016861377716064455 -0.005
   vertex -0.029551477432250978 0.018753938674926758 -0.005
   vertex -0.031668947219848635 0.014902275085449218 -0.005
  endloop
 endfacet
 facet normal 0.0 0.0 -1.0
  outer loop
   vertex -0.03254217529296875 -0.01288435935974121 -0.005
   vertex -0.029551477432250978 0.018753938674926758 -0.005
   vertex 0.00438666296005249 -0.034724014282226566 -0.005
  endloop
 endfacet
 facet normal 0.0 -0.0 -1.0
  outer loop
   vertex -0.03328697967529297 0.010815594673156738 -0.005
   vertex -0.029551477432250978 0.018753938674926758 -0.005
   vertex -0.03390040969848633 0.008704146385192872 -0.005
  endloop
 endfacet
 facet normal 0.0 0.0 -1.0
  outer loop
   vertex -0.03390040969848633 0.008704146385192872 -0.005
   vertex -0.029551477432250978 0.018753938674926758 -0.005
   vertex -0.03254217529296875 -0.01288435935974121 -0.005
  endloop
 endfacet
 facet normal 0.0 -0.0 -1.0
  outer loop
   vertex -0.031668947219848635 0.014902275085449218 -0.005
   vertex -0.029551477432250978 0.018753938674926758 -0.005
   vertex -0.03328697967529297 0.010815594673156738 -0.005
  endloop
 endfacet
 facet normal 0.0 0.0 -1.0
  outer loop
   vertex 0.00438666296005249 -0.034724014282226566 -0.005
   vertex -0.029551477432250978 0.018753938674926758 -0.005
   vertex 0.016861377716064455 -0.03067073440551758 -0.005
  endloop
 endfacet
 facet normal 0.0 0.0 -1.0
  outer loop
   vertex 0.016861377716064455 -0.03067073440551758 -0.005
   vertex -0.029551477432250978 0.018753938674926758 -0.005
   vertex 0.018753938674926758 -0.029551477432250978 -0.005
  endloop
 endfacet
 facet normal 0.0 0.0 -1.0
  outer loop
   vertex 0.018753938674926758 -0.029551477432250978 -0.005
   vertex 0.022309839248657228 -0.02696796417236328 -0.005
   vertex 0.020572483062744142 -0.028315595626831055 -0.005
  endloop
 endfacet
 facet normal 0.0 -0.0 -1.0
  outer loop
   vertex -0.028315595626831055 0.020572483062744142 -0.005
   vertex -0.02696796417236328 0.022309839248657228 -0.005
   vertex -0.029551477432250978 0.018753938674926758 -0.005
  endloop
 endfacet
 facet normal 0.0 -0.0 -1.0
  outer loop
   vertex -0.02696796417236328 0.022309839248657228 -0.005
   vertex -0.02551390266418457 0.023959148406982423 -0.005
   vertex -0.029551477432250978 0.018753938674926758 -0.005
  endloop
 endfacet
 facet normal 0.0 -0.0 -1.0
  outer loop
   vertex -0.02551390266418457 0.023959148406982423 -0.005
   vertex -0.023959148406982423 0.02551390266418457 -0.005
   vertex -0.029551477432250978 0.018753938674926758 -0.005
  endloop
 endfacet
 facet normal 0.0 0.0 -1.0
  outer loop
   vertex 0.022309839248657228 -0.02696796417236328 -0.005
   vertex -0.023959148406982423 0.02551390266418457 -0.005
   vertex 0.023959148406982423 -0.02551390266418457 -0.005
  endloop
 endfacet
 facet normal 0.0 0.0 -1.0
  outer loop
   vertex -0.029551477432250978 0.018753938674926758 -0.005
   vertex -0.023959148406982423 0.02551390266418457 -0.005
   vertex 0.018753938674926758 -0.029551477432250978 -0.005
  endloop
 endfacet
 facet normal 0.0 0.0 -1.0
  outer loop
   vertex 0.018753938674926758 -0.029551477432250978 -0.005
   vertex -0.023959148406982423 0.02551390266418457 -0.005
   vertex 0.022309839248657228 -0.02696796417236328 -0.005
  endloop
 endfacet
 facet normal 0.0 0.0 -1.0
  outer loop
   vertex 0.023959148406982423 -0.02551390266418457 -0.005
   vertex 0.028315595626831055 -0.020572483062744142 -0.005
   vertex 0.02551390266418457 -0.023959148406982423 -0.005
  endloop
 endfacet
 facet normal 0.0 0.0 -1.0
  outer loop
   vertex 0.02551390266418457 -0.023959148406982423 -0.005
   vertex 0.028315595626831055 -0.020572483062744142 -0.005
   vertex 0.02696796417236328 -0.022309839248657228 -0.005
  endloop
 endfacet
 facet normal 0.0 -0.0 -1.0
  outer loop
   vertex -0.020572483062744142 0.028315595626831055 -0.005
   vertex -0.018753938674926758 0.029551477432250978 -0.005
   vertex -0.022309839248657228 0.02696796417236328 -0.005
  endloop
 endfacet
 facet normal 0.0 -0.0 -1.0
  outer loop
   vertex -0.022309839248657228 0.02696796417236328 -0.005
   vertex -0.018753938674926758 0.029551477432250978 -0.005
   vertex -0.023959148406982423 0.02551390266418457 -0.005
  endloop
 endfacet
 facet normal 0.0 0.0 -1.0
  outer loop
   vertex 0.028315595626831055 -0.020572483062744142 -0.005
   vertex 0.03067073440551758 -0.016861377716064455 -0.005
   vertex 0.029551477432250978 -0.018753938674926758 -0.005
  endloop
 endfacet
 facet normal 0.0 0.0 -1.0
  outer loop
   vertex 0.028315595626831055 -0.020572483062744142 -0.005
   vertex 0.031668947219848635 -0.014902275085449218 -0.005
   vertex 0.03067073440551758 -0.016861377716064455 -0.005
  endloop
 endfacet
 facet normal 0.0 -0.0 -1.0
  outer loop
   vertex -0.014902275085449218 0.031668947219848635 -0.005
   vertex -0.01288435935974121 0.03254217529296875 -0.005
   vertex -0.016861377716064455 0.03067073440551758 -0.005
  endloop
 endfacet
 facet normal 0.0 -0.0 -1.0
  outer loop
   vertex -0.016861377716064455 0.03067073440551758 -0.005
   vertex -0.01288435935974121 0.03254217529296875 -0.005
   vertex -0.018753938674926758 0.029551477432250978 -0.005
  endloop
 endfacet
 facet normal 0.0 0.0 -1.0
  outer loop
   vertex 0.023959148406982423 -0.02551390266418457 -0.005
   vertex 0.03328697967529297 -0.010815594673156738 -0.005
   vertex 0.028315595626831055 -0.020572483062744142 -0.005
  endloop
 endfacet
 facet normal 0.0 0.0 -1.0
  outer loop
   vertex 0.028315595626831055 -0.020572483062744142 -0.005
   vertex 0.03328697967529297 -0.010815594673156738 -0.005
   vertex 0.031668947219848635 -0.014902275085449218 -0.005
  endloop
 endfacet
 facet normal 0.0 0.0 -1.0
  outer loop
   vertex 0.031668947219848635 -0.014902275085449218 -0.005
   vertex 0.03328697967529297 -0.010815594673156738 -0.005
   vertex 0.03254217529296875 -0.01288435935974121 -0.005
  endloop
 endfacet
 facet normal 0.0 0.0 -1.0
  outer loop
   vertex 0.023959148406982423 -0.02551390266418457 -0.005
   vertex 0.03390040969848633 -0.008704146385192872 -0.005
   vertex 0.03328697967529297 -0.010815594673156738 -0.005
  endloop
 endfacet
 facet normal 0.0 0.0 -1.0
  outer loop
   vertex -0.023959148406982423 0.02551390266418457 -0.005
   vertex -0.008704146385192872 0.03390040969848633 -0.005
   vertex 0.023959148406982423 -0.02551390266418457 -0.005
  endloop
 endfacet
 facet normal 0.0 -0.0 -1.0
  outer loop
   vertex -0.018753938674926758 0.029551477432250978 -0.005
   vertex -0.008704146385192872 0.03390040969848633 -0.005
   vertex -0.023959148406982423 0.02551390266418457 -0.005
  endloop
 endfacet
 facet normal 0.0 -0.0 -1.0
  outer loop
   vertex -0.01288435935974121 0.03254217529296875 -0.005
   vertex -0.008704146385192872 0.03390040969848633 -0.005
   vertex -0.018753938674926758 0.029551477432250978 -0.005
  endloop
 endfacet
 facet normal 0.0 -0.0 -1.0
  outer loop
   vertex -0.010815594673156738 0.03328697967529297 -0.005
   vertex -0.008704146385192872 0.03390040969848633 -0.005
   vertex -0.01288435935974121 0.03254217529296875 -0.005
  endloop
 endfacet
 facet normal 0.0 0.0 -1.0
  outer loop
   vertex 0.03390040969848633 -0.008704146385192872 -0.005
   vertex 0.034724014282226566 -0.00438666296005249 -0.005
   vertex 0.03438005447387695 -0.006558345794677734 -0.005
  endloop
 endfacet
 facet normal 0.0 -0.0 -1.0
  outer loop
   vertex -0.006558345794677734 0.03438005447387695 -0.005
   vertex -0.00438666296005249 0.034724014282226566 -0.005
   vertex -0.008704146385192872 0.03390040969848633 -0.005
  endloop
 endfacet
 facet normal 0.0 -0.0 -1.0
  outer loop
   vertex -0.0021976680755615235 0.03493093490600586 -0.005
   vertex -2.117155124717156e-17 0.035 -0.005
   vertex -0.00438666296005249 0.034724014282226566 -0.005
  endloop
 endfacet
 facet normal 0.0 0.0 -1.0
  outer loop
   vertex 0.03390040969848633 -0.008704146385192872 -0.005
   vertex 0.035 -8.572527385761024e-18 -0.005
   vertex 0.034724014282226566 -0.00438666296005249 -0.005
  endloop
 endfacet
 facet normal 0.0 0.0 -1.0
  outer loop
   vertex 0.034724014282226566 -0.00438666296005249 -0.005
   vertex 0.035 -8.572527385761024e-18 -0.005
   vertex 0.03493093490600586 -0.0021976680755615235 -0.005
  endloop
 endfacet
 facet normal -0.0 -0.0 -1.0
  outer loop
   vertex 0.0021976680755615235 0.03493093490600586 -0.005
   vertex 0.00438666296005249 0.034724014282226566 -0.005
   vertex -2.117155124717156e-17 0.035 -0.005
  endloop
 endfacet
 facet normal 0.0 -0.0 -1.0
  outer loop
   vertex -0.00438666296005249 0.034724014282226566 -0.005
   vertex 0.00438666296005249 0.034724014282226566 -0.005
   vertex -0.008704146385192872 0.03390040969848633 -0.005
  endloop
 endfacet
 facet normal 0.0 -0.0 -1.0
  outer loop
   vertex -2.117155124717156e-17 0.035 -0.005
   vertex 0.00438666296005249 0.034724014282226566 -0.005
   vertex -0.00438666296005249 0.034724014282226566 -0.005
  endloop
 endfacet
 facet normal 0.0 0.0 -1.0
  outer loop
   vertex 0.035 -8.572527385761024e-18 -0.005
   vertex 0.034724014282226566 0.00438666296005249 -0.005
   vertex 0.03493093490600586 0.0021976680755615235 -0.005
  endloop
 endfacet
 facet normal 0.0 0.0 -1.0
  outer loop
   vertex 0.034724014282226566 0.00438666296005249 -0.005
   vertex 0.03390040969848633 0.008704146385192872 -0.005
   vertex 0.03438005447387695 0.006558345794677734 -0.005
  endloop
 endfacet
 facet normal -0.0 -0.0 -1.0
  outer loop
   vertex 0.006558345794677734 0.03438005447387695 -0.005
   vertex 0.008704146385192872 0.03390040969848633 -0.005
   vertex 0.00438666296005249 0.034724014282226566 -0.005
  endloop
 endfacet
 facet normal -0.0 -0.0 -1.0
  outer loop
   vertex 0.008704146385192872 0.03390040969848633 -0.005
   vertex 0.010815594673156738 0.03328697967529297 -0.005
   vertex 0.00438666296005249 0.034724014282226566 -0.005
  endloop
 endfacet
 facet normal 0.0 0.0 -1.0
  outer loop
   vertex 0.03390040969848633 0.008704146385192872 -0.005
   vertex 0.03254217529296875 0.01288435935974121 -0.005
   vertex 0.03328697967529297 0.010815594673156738 -0.005
  endloop
 endfacet
 facet normal 0.0 0.0 -1.0
  outer loop
   vertex 0.023959148406982423 -0.02551390266418457 -0.005
   vertex 0.03254217529296875 0.01288435935974121 -0.005
   vertex 0.03390040969848633 -0.008704146385192872 -0.005
  endloop
 endfacet
 facet normal 0.0 0.0 -1.0
  outer loop
   vertex -0.008704146385192872 0.03390040969848633 -0.005
   vertex 0.03254217529296875 0.01288435935974121 -0.005
   vertex 0.023959148406982423 -0.02551390266418457 -0.005
  endloop
 endfacet
 facet normal 0.0 0.0 -1.0
  outer loop
   vertex 0.03390040969848633 -0.008704146385192872 -0.005
   vertex 0.03254217529296875 0.01288435935974121 -0.005
   vertex 0.035 -8.572527385761024e-18 -0.005
  endloop
 endfacet
 facet normal 0.0 0.0 -1.0
  outer loop
   vertex 0.035 -8.572527385761024e-18 -0.005
   vertex 0.03254217529296875 0.01288435935974121 -0.005
   vertex 0.034724014282226566 0.00438666296005249 -0.005
  endloop
 endfacet
 facet normal 0.0 0.0 -1.0
  outer loop
   vertex 0.034724014282226566 0.00438666296005249 -0.005
   vertex 0.03254217529296875 0.01288435935974121 -0.005
   vertex 0.03390040969848633 0.008704146385192872 -0.005
  endloop
 endfacet
 facet normal 0.0 0.0 -1.0
  outer loop
   vertex 0.03254217529296875 0.01288435935974121 -0.005
   vertex 0.020572483062744142 0.028315595626831055 -0.005
   vertex 0.031668947219848635 0.014902275085449218 -0.005
  endloop
 endfacet
 facet normal 0.0 0.0 -1.0
  outer loop
   vertex 0.031668947219848635 0.014902275085449218 -0.005
   vertex 0.020572483062744142 0.028315595626831055 -0.005
   vertex 0.03067073440551758 0.016861377716064455 -0.005
  endloop
 endfacet
 facet normal 0.0 0.0 -1.0
  outer loop
   vertex 0.03067073440551758 0.016861377716064455 -0.005
   vertex 0.020572483062744142 0.028315595626831055 -0.005
   vertex 0.029551477432250978 0.018753938674926758 -0.005
  endloop
 endfacet
 facet normal -0.0 -0.0 -1.0
  outer loop
   vertex 0.018753938674926758 0.029551477432250978 -0.005
   vertex 0.020572483062744142 0.028315595626831055 -0.005
   vertex 0.016861377716064455 0.03067073440551758 -0.005
  endloop
 endfacet
 facet normal -0.0 -0.0 -1.0
  outer loop
   vertex 0.016861377716064455 0.03067073440551758 -0.005
   vertex 0.020572483062744142 0.028315595626831055 -0.005
   vertex 0.014902275085449218 0.031668947219848635 -0.005
  endloop
 endfacet
 facet normal -0.0 -0.0 -1.0
  outer loop
   vertex 0.014902275085449218 0.031668947219848635 -0.005
   vertex 0.020572483062744142 0.028315595626831055 -0.005
   vertex 0.01288435935974121 0.03254217529296875 -0.005
  endloop
 endfacet
 facet normal -0.0 -0.0 -1.0
  outer loop
   vertex 0.01288435935974121 0.03254217529296875 -0.005
   vertex 0.020572483062744142 0.028315595626831055 -0.005
   vertex 0.010815594673156738 0.03328697967529297 -0.005
  endloop
 endfacet
 facet normal -0.0 -0.0 -1.0
  outer loop
   vertex 0.010815594673156738 0.03328697967529297 -0.005
   vertex 0.020572483062744142 0.028315595626831055 -0.005
   vertex 0.00438666296005249 0.034724014282226566 -0.005
  endloop
 endfacet
 facet normal 0.0 -0.0 -1.0
  outer loop
   vertex 0.00438666296005249 0.034724014282226566 -0.005
   vertex 0.020572483062744142 0.028315595626831055 -0.005
   vertex -0.008704146385192872 0.03390040969848633 -0.005
  endloop
 endfacet
 facet normal 0.0 0.0 -1.0
  outer loop
   vertex -0.008704146385192872 0.03390040969848633 -0.005
   vertex 0.020572483062744142 0.028315595626831055 -0.005
   vertex 0.03254217529296875 0.01288435935974121 -0.005
  endloop
 endfacet
 facet normal 0.0 0.0 -1.0
  outer loop
   vertex 0.020572483062744142 0.028315595626831055 -0.005
   vertex 0.028315595626831055 0.020572483062744142 -0.005
   vertex 0.029551477432250978 0.018753938674926758 -0.005
  endloop
 endfacet
 facet normal 0.0 0.0 -1.0
  outer loop
   vertex 0.020572483062744142 0.028315595626831055 -0.005
   vertex 0.02696796417236328 0.022309839248657228 -0.005
   vertex 0.028315595626831055 0.020572483062744142 -0.005
  endloop
 endfacet
 facet normal 0.0 0.0 -1.0
  outer loop
   vertex 0.02696796417236328 0.022309839248657228 -0.005
   vertex 0.023959148406982423 0.02551390266418457 -0.005
   vertex 0.02551390266418457 0.023959148406982423 -0.005
  endloop
 endfacet
 facet normal -0.0 -0.0 -1.0
  outer loop
   vertex 0.022309839248657228 0.02696796417236328 -0.005
   vertex 0.023959148406982423 0.02551390266418457 -0.005
   vertex 0.020572483062744142 0.028315595626831055 -0.005
  endloop
 endfacet
 facet normal 0.0 0.0 -1.0
  outer loop
   vertex 0.020572483062744142 0.028315595626831055 -0.005
   vertex 0.023959148406982423 0.02551390266418457 -0.005
   vertex 0.02696796417236328 0.022309839248657228 -0.005
  endloop
 endfacet
 facet normal 0.0 0.0 1.0
  outer loop
   vertex -0.028315595626831055 -0.020572483062744142 0.025
   vertex -0.02696796417236328 -0.022309839248657228 0.025
   vertex -0.02551390266418457 -0.023959148406982423 0.025
  endloop
 endfacet
 facet normal 0.0 0.0 1.0
  outer loop
   vertex -0.028315595626831055 -0.020572483062744142 0.025
   vertex -0.02551390266418457 -0.023959148406982423 0.025
   vertex -0.023959148406982423 -0.02551390266418457 0.025
  endloop
 endfacet
 facet normal 0.0 0.0 1.0
  outer loop
   vertex -0.020572483062744142 -0.028315595626831055 0.025
   vertex -0.023959148406982423 -0.02551390266418457 0.025
   vertex -0.022309839248657228 -0.02696796417236328 0.025
  endloop
 endfacet
 facet normal 0.0 0.0 1.0
  outer loop
   vertex -0.016861377716064455 -0.03067073440551758 0.025
   vertex -0.028315595626831055 -0.020572483062744142 0.025
   vertex -0.023959148406982423 -0.02551390266418457 0.025
  endloop
 endfacet
 facet normal 0.0 0.0 1.0
  outer loop
   vertex -0.016861377716064455 -0.03067073440551758 0.025
   vertex -0.023959148406982423 -0.02551390266418457 0.025
   vertex -0.020572483062744142 -0.028315595626831055 0.025
  endloop
 endfacet
 facet normal 0.0 0.0 1.0
  outer loop
   vertex -0.016861377716064455 -0.03067073440551758 0.025
   vertex -0.029551477432250978 -0.018753938674926758 0.025
   vertex -0.028315595626831055 -0.020572483062744142 0.025
  endloop
 endfacet
 facet normal 0.0 0.0 1.0
  outer loop
   vertex -0.016861377716064455 -0.03067073440551758 0.025
   vertex -0.020572483062744142 -0.028315595626831055 0.025
   vertex -0.018753938674926758 -0.029551477432250978 0.025
  endloop
 endfacet
 facet normal 0.0 0.0 1.0
  outer loop
   vertex -0.03254217529296875 -0.01288435935974121 0.025
   vertex -0.031668947219848635 -0.014902275085449218 0.025
   vertex -0.03067073440551758 -0.016861377716064455 0.025
  endloop
 endfacet
 facet normal 0.0 0.0 1.0
  outer loop
   vertex -0.034724014282226566 -0.00438666296005249 0.025
   vertex -0.03438005447387695 -0.006558345794677734 0.025
   vertex -0.03390040969848633 -0.008704146385192872 0.025
  endloop
 endfacet
 facet normal 0.0 0.0 1.0
  outer loop
   vertex -0.03493093490600586 -0.0021976680755615235 0.025
   vertex -0.034724014282226566 -0.00438666296005249 0.025
   vertex -0.03390040969848633 -0.008704146385192872 0.025
  endloop
 endfacet
 facet normal 0.0 0.0 1.0
  outer loop
   vertex -0.0021976680755615235 -0.03493093490600586 0.025
   vertex -0.014902275085449218 -0.031668947219848635 0.025
   vertex -0.01288435935974121 -0.03254217529296875 0.025
  endloop
 endfacet
 facet normal 0.0 0.0 1.0
  outer loop
   vertex -0.0021976680755615235 -0.03493093490600586 0.025
   vertex -0.01288435935974121 -0.03254217529296875 0.025
   vertex -0.010815594673156738 -0.03328697967529297 0.025
  endloop
 endfacet
 facet normal 0.0 0.0 1.0
  outer loop
   vertex -0.0021976680755615235 -0.03493093490600586 0.025
   vertex -0.010815594673156738 -0.03328697967529297 0.025
   vertex -0.008704146385192872 -0.03390040969848633 0.025
  endloop
 endfacet
 facet normal 0.0 0.0 1.0
  outer loop
   vertex -0.0021976680755615235 -0.03493093490600586 0.025
   vertex -0.008704146385192872 -0.03390040969848633 0.025
   vertex -0.006558345794677734 -0.03438005447387695 0.025
  endloop
 endfacet
 facet normal 0.0 0.0 1.0
  outer loop
   vertex -0.0021976680755615235 -0.03493093490600586 0.025
   vertex -0.006558345794677734 -0.03438005447387695 0.025
   vertex -0.00438666296005249 -0.034724014282226566 0.025
  endloop
 endfacet
 facet normal 0.0 0.0 1.0
  outer loop
   vertex -0.03493093490600586 0.0021976680755615235 0.025
   vertex -0.03493093490600586 -0.0021976680755615235 0.025
   vertex -0.03390040969848633 -0.008704146385192872 0.025
  endloop
 endfacet
 facet normal 0.0 0.0 1.0
  outer loop
   vertex -0.03493093490600586 0.0021976680755615235 0.025
   vertex -0.035 -8.897246952859969e-17 0.025
   vertex -0.03493093490600586 -0.0021976680755615235 0.025
  endloop
 endfacet
 facet normal 0.0 0.0 1.0
  outer loop
   vertex -0.03493093490600586 0.0021976680755615235 0.025
   vertex -0.03390040969848633 -0.008704146385192872 0.025
   vertex -0.03328697967529297 -0.010815594673156738 0.025
  endloop
 endfacet
 facet normal 0.0 0.0 1.0
  outer loop
   vertex 0.0021976680755615235 -0.03493093490600586 0.025
   vertex -0.014902275085449218 -0.031668947219848635 0.025
   vertex -0.0021976680755615235 -0.03493093490600586 0.025
  endloop
 endfacet
 facet normal 0.0 0.0 1.0
  outer loop
   vertex 0.0021976680755615235 -0.03493093490600586 0.025
   vertex -0.0021976680755615235 -0.03493093490600586 0.025
   vertex -6.429395539320768e-18 -0.035 0.025
  endloop
 endfacet
 facet normal 0.0 0.0 1.0
  outer loop
   vertex 0.00438666296005249 -0.034724014282226566 0.025
   vertex -0.029551477432250978 -0.018753938674926758 0.025
   vertex -0.016861377716064455 -0.03067073440551758 0.025
  endloop
 endfacet
 facet normal 0.0 0.0 1.0
  outer loop
   vertex 0.00438666296005249 -0.034724014282226566 0.025
   vertex -0.03254217529296875 -0.01288435935974121 0.025
   vertex -0.03067073440551758 -0.016861377716064455 0.025
  endloop
 endfacet
 facet normal 0.0 0.0 1.0
  outer loop
   vertex 0.00438666296005249 -0.034724014282226566 0.025
   vertex -0.014902275085449218 -0.031668947219848635 0.025
   vertex 0.0021976680755615235 -0.03493093490600586 0.025
  endloop
 endfacet
 facet normal 0.0 0.0 1.0
  outer loop
   vertex 0.00438666296005249 -0.034724014282226566 0.025
   vertex -0.03067073440551758 -0.016861377716064455 0.025
   vertex -0.029551477432250978 -0.018753938674926758 0.025
  endloop
 endfacet
 facet normal 0.0 0.0 1.0
  outer loop
   vertex 0.00438666296005249 -0.034724014282226566 0.025
   vertex -0.016861377716064455 -0.03067073440551758 0.025
   vertex -0.014902275085449218 -0.031668947219848635 0.025
  endloop
 endfacet
 facet normal 0.0 0.0 1.0
  outer loop
   vertex -0.03390040969848633 0.008704146385192872 0.025
   vertex -0.03438005447387695 0.006558345794677734 0.025
   vertex -0.034724014282226566 0.00438666296005249 0.025
  endloop
 endfacet
 facet normal 0.0 0.0 1.0
  outer loop
   vertex -0.03390040969848633 0.008704146385192872 0.025
   vertex -0.034724014282226566 0.00438666296005249 0.025
   vertex -0.03493093490600586 0.0021976680755615235 0.025
  endloop
 endfacet
 facet normal 0.0 0.0 1.0
  outer loop
   vertex -0.03390040969848633 0.008704146385192872 0.025
   vertex -0.03328697967529297 -0.010815594673156738 0.025
   vertex -0.03254217529296875 -0.01288435935974121 0.025
  endloop
 endfacet
 facet normal 0.0 0.0 1.0
  outer loop
   vertex -0.03390040969848633 0.008704146385192872 0.025
   vertex -0.03493093490600586 0.0021976680755615235 0.025
   vertex -0.03328697967529297 -0.010815594673156738 0.025
  endloop
 endfacet
 facet normal 0.0 0.0 1.0
  outer loop
   vertex 0.010815594673156738 -0.03328697967529297 0.025
   vertex 0.006558345794677734 -0.03438005447387695 0.025
   vertex 0.008704146385192872 -0.03390040969848633 0.025
  endloop
 endfacet
 facet normal 0.0 0.0 1.0
  outer loop
   vertex 0.014902275085449218 -0.031668947219848635 0.025
   vertex 0.010815594673156738 -0.03328697967529297 0.025
   vertex 0.01288435935974121 -0.03254217529296875 0.025
  endloop
 endfacet
 facet normal 0.0 0.0 1.0
  outer loop
   vertex -0.031668947219848635 0.014902275085449218 0.025
   vertex -0.03254217529296875 0.01288435935974121 0.025
   vertex -0.03328697967529297 0.010815594673156738 0.025
  endloop
 endfacet
 facet normal 0.0 0.0 1.0
  outer loop
   vertex 0.016861377716064455 -0.03067073440551758 0.025
   vertex 0.006558345794677734 -0.03438005447387695 0.025
   vertex 0.010815594673156738 -0.03328697967529297 0.025
  endloop
 endfacet
 facet normal 0.0 0.0 1.0
  outer loop
   vertex 0.016861377716064455 -0.03067073440551758 0.025
   vertex 0.00438666296005249 -0.034724014282226566 0.025
   vertex 0.006558345794677734 -0.03438005447387695 0.025
  endloop
 endfacet
 facet normal 0.0 0.0 1.0
  outer loop
   vertex 0.016861377716064455 -0.03067073440551758 0.025
   vertex 0.010815594673156738 -0.03328697967529297 0.025
   vertex 0.014902275085449218 -0.031668947219848635 0.025
  endloop
 endfacet
 facet normal 0.0 0.0 1.0
  outer loop
   vertex -0.029551477432250978 0.018753938674926758 0.025
   vertex -0.03067073440551758 0.016861377716064455 0.025
   vertex -0.031668947219848635 0.014902275085449218 0.025
  endloop
 endfacet
 facet normal 0.0 0.0 1.0
  outer loop
   vertex -0.029551477432250978 0.018753938674926758 0.025
   vertex -0.03254217529296875 -0.01288435935974121 0.025
   vertex 0.00438666296005249 -0.034724014282226566 0.025
  endloop
 endfacet
 facet normal 0.0 0.0 1.0
  outer loop
   vertex -0.029551477432250978 0.018753938674926758 0.025
   vertex -0.03328697967529297 0.010815594673156738 0.025
   vertex -0.03390040969848633 0.008704146385192872 0.025
  endloop
 endfacet
 facet normal 0.0 0.0 1.0
  outer loop
   vertex -0.029551477432250978 0.018753938674926758 0.025
   vertex -0.03390040969848633 0.008704146385192872 0.025
   vertex -0.03254217529296875 -0.01288435935974121 0.025
  endloop
 endfacet
 facet normal 0.0 0.0 1.0
  outer loop
   vertex -0.029551477432250978 0.018753938674926758 0.025
   vertex -0.031668947219848635 0.014902275085449218 0.025
   vertex -0.03328697967529297 0.010815594673156738 0.025
  endloop
 endfacet
 facet normal 0.0 0.0 1.0
  outer loop
   vertex -0.029551477432250978 0.018753938674926758 0.025
   vertex 0.00438666296005249 -0.034724014282226566 0.025
   vertex 0.016861377716064455 -0.03067073440551758 0.025
  endloop
 endfacet
 facet normal 0.0 0.0 1.0
  outer loop
   vertex -0.029551477432250978 0.018753938674926758 0.025
   vertex 0.016861377716064455 -0.03067073440551758 0.025
   vertex 0.018753938674926758 -0.029551477432250978 0.025
  endloop
 endfacet
 facet normal 0.0 0.0 1.0
  outer loop
   vertex 0.022309839248657228 -0.02696796417236328 0.025
   vertex 0.018753938674926758 -0.029551477432250978 0.025
   vertex 0.020572483062744142 -0.028315595626831055 0.025
  endloop
 endfacet
 facet normal 0.0 0.0 1.0
  outer loop
   vertex -0.02696796417236328 0.022309839248657228 0.025
   vertex -0.028315595626831055 0.020572483062744142 0.025
   vertex -0.029551477432250978 0.018753938674926758 0.025
  endloop
 endfacet
 facet normal 0.0 0.0 1.0
  outer loop
   vertex -0.02551390266418457 0.023959148406982423 0.025
   vertex -0.02696796417236328 0.022309839248657228 0.025
   vertex -0.029551477432250978 0.018753938674926758 0.025
  endloop
 endfacet
 facet normal 0.0 0.0 1.0
  outer loop
   vertex -0.023959148406982423 0.02551390266418457 0.025
   vertex -0.02551390266418457 0.023959148406982423 0.025
   vertex -0.029551477432250978 0.018753938674926758 0.025
  endloop
 endfacet
 facet normal 0.0 0.0 1.0
  outer loop
   vertex -0.023959148406982423 0.02551390266418457 0.025
   vertex 0.022309839248657228 -0.02696796417236328 0.025
   vertex 0.023959148406982423 -0.02551390266418457 0.025
  endloop
 endfacet
 facet normal 0.0 0.0 1.0
  outer loop
   vertex -0.023959148406982423 0.02551390266418457 0.025
   vertex -0.029551477432250978 0.018753938674926758 0.025
   vertex 0.018753938674926758 -0.029551477432250978 0.025
  endloop
 endfacet
 facet normal 0.0 0.0 1.0
  outer loop
   vertex -0.023959148406982423 0.02551390266418457 0.025
   vertex 0.018753938674926758 -0.029551477432250978 0.025
   vertex 0.022309839248657228 -0.02696796417236328 0.025
  endloop
 endfacet
 facet normal 0.0 0.0 1.0
  outer loop
   vertex 0.028315595626831055 -0.020572483062744142 0.025
   vertex 0.023959148406982423 -0.02551390266418457 0.025
   vertex 0.02551390266418457 -0.023959148406982423 0.025
  endloop
 endfacet
 facet normal 0.0 0.0 1.0
  outer loop
   vertex 0.028315595626831055 -0.020572483062744142 0.025
   vertex 0.02551390266418457 -0.023959148406982423 0.025
   vertex 0.02696796417236328 -0.022309839248657228 0.025
  endloop
 endfacet
 facet normal 0.0 0.0 1.0
  outer loop
   vertex -0.018753938674926758 0.029551477432250978 0.025
   vertex -0.020572483062744142 0.028315595626831055 0.025
   vertex -0.022309839248657228 0.02696796417236328 0.025
  endloop
 endfacet
 facet normal 0.0 0.0 1.0
  outer loop
   vertex -0.018753938674926758 0.029551477432250978 0.025
   vertex -0.022309839248657228 0.02696796417236328 0.025
   vertex -0.023959148406982423 0.02551390266418457 0.025
  endloop
 endfacet
 facet normal 0.0 0.0 1.0
  outer loop
   vertex 0.03067073440551758 -0.016861377716064455 0.025
   vertex 0.028315595626831055 -0.020572483062744142 0.025
   vertex 0.029551477432250978 -0.018753938674926758 0.025
  endloop
 endfacet
 facet normal 0.0 0.0 1.0
  outer loop
   vertex 0.031668947219848635 -0.014902275085449218 0.025
   vertex 0.028315595626831055 -0.020572483062744142 0.025
   vertex 0.03067073440551758 -0.016861377716064455 0.025
  endloop
 endfacet
 facet normal 0.0 0.0 1.0
  outer loop
   vertex -0.01288435935974121 0.03254217529296875 0.025
   vertex -0.014902275085449218 0.031668947219848635 0.025
   vertex -0.016861377716064455 0.03067073440551758 0.025
  endloop
 endfacet
 facet normal 0.0 0.0 1.0
  outer loop
   vertex -0.01288435935974121 0.03254217529296875 0.025
   vertex -0.016861377716064455 0.03067073440551758 0.025
   vertex -0.018753938674926758 0.029551477432250978 0.025
  endloop
 endfacet
 facet normal 0.0 0.0 1.0
  outer loop
   vertex 0.03328697967529297 -0.010815594673156738 0.025
   vertex 0.023959148406982423 -0.02551390266418457 0.025
   vertex 0.028315595626831055 -0.020572483062744142 0.025
  endloop
 endfacet
 facet normal 0.0 0.0 1.0
  outer loop
   vertex 0.03328697967529297 -0.010815594673156738 0.025
   vertex 0.028315595626831055 -0.020572483062744142 0.025
   vertex 0.031668947219848635 -0.014902275085449218 0.025
  endloop
 endfacet
 facet normal 0.0 0.0 1.0
  outer loop
   vertex 0.03328697967529297 -0.010815594673156738 0.025
   vertex 0.031668947219848635 -0.014902275085449218 0.025
   vertex 0.03254217529296875 -0.01288435935974121 0.025
  endloop
 endfacet
 facet normal 0.0 0.0 1.0
  outer loop
   vertex 0.03390040969848633 -0.008704146385192872 0.025
   vertex 0.023959148406982423 -0.02551390266418457 0.025
   vertex 0.03328697967529297 -0.010815594673156738 0.025
  endloop
 endfacet
 facet normal 0.0 0.0 1.0
  outer loop
   vertex -0.008704146385192872 0.03390040969848633 0.025
   vertex -0.023959148406982423 0.02551390266418457 0.025
   vertex 0.023959148406982423 -0.02551390266418457 0.025
  endloop
 endfacet
 facet normal 0.0 0.0 1.0
  outer loop
   vertex -0.008704146385192872 0.03390040969848633 0.025
   vertex -0.018753938674926758 0.029551477432250978 0.025
   vertex -0.023959148406982423 0.02551390266418457 0.025
  endloop
 endfacet
 facet normal 0.0 0.0 1.0
  outer loop
   vertex -0.008704146385192872 0.03390040969848633 0.025
   vertex -0.01288435935974121 0.03254217529296875 0.025
   vertex -0.018753938674926758 0.029551477432250978 0.025
  endloop
 endfacet
 facet normal 0.0 0.0 1.0
  outer loop
   vertex -0.008704146385192872 0.03390040969848633 0.025
   vertex -0.010815594673156738 0.03328697967529297 0.025
   vertex -0.01288435935974121 0.03254217529296875 0.025
  endloop
 endfacet
 facet normal 0.0 0.0 1.0
  outer loop
   vertex 0.034724014282226566 -0.00438666296005249 0.025
   vertex 0.03390040969848633 -0.008704146385192872 0.025
   vertex 0.03438005447387695 -0.006558345794677734 0.025
  endloop
 endfacet
 facet normal 0.0 0.0 1.0
  outer loop
   vertex -0.00438666296005249 0.034724014282226566 0.025
   vertex -0.006558345794677734 0.03438005447387695 0.025
   vertex -0.008704146385192872 0.03390040969848633 0.025
  endloop
 endfacet
 facet normal 0.0 0.0 1.0
  outer loop
   vertex -2.117155124717156e-17 0.035 0.025
   vertex -0.0021976680755615235 0.03493093490600586 0.025
   vertex -0.00438666296005249 0.034724014282226566 0.025
  endloop
 endfacet
 facet normal 0.0 0.0 1.0
  outer loop
   vertex 0.035 -8.572527385761024e-18 0.025
   vertex 0.03390040969848633 -0.008704146385192872 0.025
   vertex 0.034724014282226566 -0.00438666296005249 0.025
  endloop
 endfacet
 facet normal 0.0 0.0 1.0
  outer loop
   vertex 0.035 -8.572527385761024e-18 0.025
   vertex 0.034724014282226566 -0.00438666296005249 0.025
   vertex 0.03493093490600586 -0.0021976680755615235 0.025
  endloop
 endfacet
 facet normal 0.0 0.0 1.0
  outer loop
   vertex 0.00438666296005249 0.034724014282226566 0.025
   vertex 0.0021976680755615235 0.03493093490600586 0.025
   vertex -2.117155124717156e-17 0.035 0.025
  endloop
 endfacet
 facet normal 0.0 0.0 1.0
  outer loop
   vertex 0.00438666296005249 0.034724014282226566 0.025
   vertex -0.00438666296005249 0.034724014282226566 0.025
   vertex -0.008704146385192872 0.03390040969848633 0.025
  endloop
 endfacet
 facet normal 0.0 0.0 1.0
  outer loop
   vertex 0.00438666296005249 0.034724014282226566 0.025
   vertex -2.117155124717156e-17 0.035 0.025
   vertex -0.00438666296005249 0.034724014282226566 0.025
  endloop
 endfacet
 facet normal 0.0 0.0 1.0
  outer loop
   vertex 0.034724014282226566 0.00438666296005249 0.025
   vertex 0.035 -8.572527385761024e-18 0.025
   vertex 0.03493093490600586 0.0021976680755615235 0.025
  endloop
 endfacet
 facet normal 0.0 0.0 1.0
  outer loop
   vertex 0.03390040969848633 0.008704146385192872 0.025
   vertex 0.034724014282226566 0.00438666296005249 0.025
   vertex 0.03438005447387695 0.006558345794677734 0.025
  endloop
 endfacet
 facet normal 0.0 0.0 1.0
  outer loop
   vertex 0.008704146385192872 0.03390040969848633 0.025
   vertex 0.006558345794677734 0.03438005447387695 0.025
   vertex 0.00438666296005249 0.034724014282226566 0.025
  endloop
 endfacet
 facet normal 0.0 0.0 1.0
  outer loop
   vertex 0.010815594673156738 0.03328697967529297 0.025
   vertex 0.008704146385192872 0.03390040969848633 0.025
   vertex 0.00438666296005249 0.034724014282226566 0.025
  endloop
 endfacet
 facet normal 0.0 0.0 1.0
  outer loop
   vertex 0.03254217529296875 0.01288435935974121 0.025
   vertex 0.03390040969848633 0.008704146385192872 0.025
   vertex 0.03328697967529297 0.010815594673156738 0.025
  endloop
 endfacet
 facet normal 0.0 0.0 1.0
  outer loop
   vertex 0.03254217529296875 0.01288435935974121 0.025
   vertex 0.023959148406982423 -0.02551390266418457 0.025
   vertex 0.03390040969848633 -0.008704146385192872 0.025
  endloop
 endfacet
 facet normal 0.0 0.0 1.0
  outer loop
   vertex 0.03254217529296875 0.01288435935974121 0.025
   vertex -0.008704146385192872 0.03390040969848633 0.025
   vertex 0.023959148406982423 -0.02551390266418457 0.025
  endloop
 endfacet
 facet normal 0.0 0.0 1.0
  outer loop
   vertex 0.03254217529296875 0.01288435935974121 0.025
   vertex 0.03390040969848633 -0.008704146385192872 0.025
   vertex 0.035 -8.572527385761024e-18 0.025
  endloop
 endfacet
 facet normal 0.0 0.0 1.0
  outer loop
   vertex 0.03254217529296875 0.01288435935974121 0.025
   vertex 0.035 -8.572527385761024e-18 0.025
   vertex 0.034724014282226566 0.00438666296005249 0.025
  endloop
 endfacet
 facet normal 0.0 0.0 1.0
  outer loop
   vertex 0.03254217529296875 0.01288435935974121 0.025
   vertex 0.034724014282226566 0.00438666296005249 0.025
   vertex 0.03390040969848633 0.008704146385192872 0.025
  endloop
 endfacet
 facet normal 0.0 0.0 1.0
  outer loop
   vertex 0.020572483062744142 0.028315595626831055 0.025
   vertex 0.03254217529296875 0.01288435935974121 0.025
   vertex 0.031668947219848635 0.014902275085449218 0.025
  endloop
 endfacet
 facet normal 0.0 0.0 1.0
  outer loop
   vertex 0.020572483062744142 0.028315595626831055 0.025
   vertex 0.031668947219848635 0.014902275085449218 0.025
   vertex 0.03067073440551758 0.016861377716064455 0.025
  endloop
 endfacet
 facet normal 0.0 0.0 1.0
  outer loop
   vertex 0.020572483062744142 0.028315595626831055 0.025
   vertex 0.03067073440551758 0.016861377716064455 0.025
   vertex 0.029551477432250978 0.018753938674926758 0.025
  endloop
 endfacet
 facet normal 0.0 0.0 1.0
  outer loop
   vertex 0.020572483062744142 0.028315595626831055 0.025
   vertex 0.018753938674926758 0.029551477432250978 0.025
   vertex 0.016861377716064455 0.03067073440551758 0.025
  endloop
 endfacet
 facet normal 0.0 0.0 1.0
  outer loop
   vertex 0.020572483062744142 0.028315595626831055 0.025
   vertex 0.016861377716064455 0.03067073440551758 0.025
   vertex 0.014902275085449218 0.031668947219848635 0.025
  endloop
 endfacet
 facet normal 0.0 0.0 1.0
  outer loop
   vertex 0.020572483062744142 0.028315595626831055 0.025
   vertex 0.014902275085449218 0.031668947219848635 0.025
   vertex 0.01288435935974121 0.03254217529296875 0.025
  endloop
 endfacet
 facet normal 0.0 0.0 1.0
  outer loop
   vertex 0.020572483062744142 0.028315595626831055 0.025
   vertex 0.01288435935974121 0.03254217529296875 0.025
   vertex 0.010815594673156738 0.03328697967529297 0.025
  endloop
 endfacet
 facet normal 0.0 0.0 1.0
  outer loop
   vertex 0.020572483062744142 0.028315595626831055 0.025
   vertex 0.010815594673156738 0.03328697967529297 0.025
   vertex 0.00438666296005249 0.034724014282226566 0.025
  endloop
 endfacet
 facet normal 0.0 0.0 1.0
  outer loop
   vertex 0.020572483062744142 0.028315595626831055 0.025
   vertex 0.00438666296005249 0.034724014282226566 0.025
   vertex -0.008704146385192872 0.03390040969848633 0.025
  endloop
 endfacet
 facet normal 0.0 0.0 1.0
  outer loop
   vertex 0.020572483062744142 0.028315595626831055 0.025
   vertex -0.008704146385192872 0.03390040969848633 0.025
   vertex 0.03254217529296875 0.01288435935974121 0.025
  endloop
 endfacet
 facet normal 0.0 0.0 1.0
  outer loop
   vertex 0.028315595626831055 0.020572483062744142 0.025
   vertex 0.020572483062744142 0.028315595626831055 0.025
   vertex 0.029551477432250978 0.018753938674926758 0.025
  endloop
 endfacet
 facet normal 0.0 0.0 1.0
  outer loop
   vertex 0.02696796417236328 0.022309839248657228 0.025
   vertex 0.020572483062744142 0.028315595626831055 0.025
   vertex 0.028315595626831055 0.020572483062744142 0.025
  endloop
 endfacet
 facet normal 0.0 0.0 1.0
  outer loop
   vertex 0.023959148406982423 0.02551390266418457 0.025
   vertex 0.02696796417236328 0.022309839248657228 0.025
   vertex 0.02551390266418457 0.023959148406982423 0.025
  endloop
 endfacet
 facet normal 0.0 0.0 1.0
  outer loop
   vertex 0.023959148406982423 0.02551390266418457 0.025
   vertex 0.022309839248657228 0.02696796417236328 0.025
   vertex 0.020572483062744142 0.028315595626831055 0.025
  endloop
 endfacet
 facet normal 0.0 0.0 1.0
  outer loop
   vertex 0.023959148406982423 0.02551390266418457 0.025
   vertex 0.020572483062744142 0.028315595626831055 0.025
   vertex 0.02696796417236328 0.022309839248657228 0.025
  endloop
 endfacet
endsolid MeshRefinement
