solid patch_2_0
 facet normal 0.0 0.0 -1.0
  outer loop
   vertex -0.030820529937744142 -0.025496959686279297 -0.01
   vertex -0.03236067962646484 -0.023511409759521484 -0.01
   vertex -0.02915874481201172 -0.02738188362121582 -0.01
  endloop
 endfacet
 facet normal 0.0 0.0 -1.0
  outer loop
   vertex -0.02915874481201172 -0.02738188362121582 -0.01
   vertex -0.03236067962646484 -0.023511409759521484 -0.01
   vertex -0.02738188362121582 -0.02915874481201172 -0.01
  endloop
 endfacet
 facet normal 0.0 0.0 -1.0
  outer loop
   vertex -0.03236067962646484 -0.023511409759521484 -0.01
   vertex -0.03619308090209961 -0.017031171798706054 -0.01
   vertex -0.02738188362121582 -0.02915874481201172 -0.01
  endloop
 endfacet
 facet normal 0.0 0.0 -1.0
  outer loop
   vertex -0.035052268981933594 -0.0192701473236084 -0.01
   vertex -0.03619308090209961 -0.017031171798706054 -0.01
   vertex -0.03377311706542969 -0.02143307113647461 -0.01
  endloop
 endfacet
 facet normal 0.0 0.0 -1.0
  outer loop
   vertex -0.03377311706542969 -0.02143307113647461 -0.01
   vertex -0.03619308090209961 -0.017031171798706054 -0.01
   vertex -0.03236067962646484 -0.023511409759521484 -0.01
  endloop
 endfacet
 facet normal 0.0 0.0 -1.0
  outer loop
   vertex -0.02738188362121582 -0.02915874481201172 -0.01
   vertex -0.017031171798706054 -0.03619308090209961 -0.01
   vertex -0.025496959686279297 -0.030820529937744142 -0.01
  endloop
 endfacet
 facet normal 0.0 0.0 -1.0
  outer loop
   vertex -0.025496959686279297 -0.030820529937744142 -0.01
   vertex -0.017031171798706054 -0.03619308090209961 -0.01
   vertex -0.023511409759521484 -0.03236067962646484 -0.01
  endloop
 endfacet
 facet normal 0.0 0.0 -1.0
  outer loop
   vertex -0.023511409759521484 -0.03236067962646484 -0.01
   vertex -0.017031171798706054 -0.03619308090209961 -0.01
   vertex -0.02143307113647461 -0.03377311706542969 -0.01
  endloop
 endfacet
 facet normal 0.0 0.0 -1.0
  outer loop
   vertex -0.02143307113647461 -0.03377311706542969 -0.01
   vertex -0.017031171798706054 -0.03619308090209961 -0.01
   vertex -0.0192701473236084 -0.035052268981933594 -0.01
  endloop
 endfacet
 facet normal 0.0 0.0 -1.0
  outer loop
   vertex -0.03619308090209961 -0.017031171798706054 -0.01
   vertex -0.03719105911254883 -0.014724982261657716 -0.01
   vertex -0.02738188362121582 -0.02915874481201172 -0.01
  endloop
 endfacet
 facet normal 0.0 0.0 -1.0
  outer loop
   vertex -0.02738188362121582 -0.02915874481201172 -0.01
   vertex -0.03719105911254883 -0.014724982261657716 -0.01
   vertex -0.017031171798706054 -0.03619308090209961 -0.01
  endloop
 endfacet
 facet normal 0.0 0.0 -1.0
  outer loop
   vertex -0.017031171798706054 -0.03619308090209961 -0.01
   vertex -0.012360679626464845 -0.0380422592163086 -0.01
   vertex -0.014724982261657716 -0.03719105911254883 -0.01
  endloop
 endfacet
 facet normal 0.0 0.0 -1.0
  outer loop
   vertex -0.03874332809448242 -0.009947595596313476 -0.01
   vertex -0.03929148864746094 -0.00749525260925293 -0.01
   vertex -0.0380422592163086 -0.012360679626464845 -0.01
  endloop
 endfacet
 facet normal 0.0 0.0 -1.0
  outer loop
   vertex -0.017031171798706054 -0.03619308090209961 -0.01
   vertex -0.00749525260925293 -0.03929148864746094 -0.01
   vertex -0.012360679626464845 -0.0380422592163086 -0.01
  endloop
 endfacet
 facet normal 0.0 0.0 -1.0
  outer loop
   vertex -0.012360679626464845 -0.0380422592163086 -0.01
   vertex -0.00749525260925293 -0.03929148864746094 -0.01
   vertex -0.009947595596313476 -0.03874332809448242 -0.01
  endloop
 endfacet
 facet normal 0.0 0.0 -1.0
  outer loop
   vertex -0.039684589385986326 -0.00501332950592041 -0.01
   vertex -0.03992107009887695 -0.0025116207599639893 -0.01
   vertex -0.03929148864746094 -0.00749525260925293 -0.01
  endloop
 endfacet
 facet normal 0.0 0.0 -1.0
  outer loop
   vertex -0.00501332950592041 -0.039684589385986326 -0.01
   vertex -7.347880374357178e-18 -0.04 -0.01
   vertex -0.0025116207599639893 -0.03992107009887695 -0.01
  endloop
 endfacet
 facet normal 0.0 0.0 -1.0
  outer loop
   vertex -0.03719105911254883 -0.014724982261657716 -0.01
   vertex -0.03992107009887695 0.0025116207599639893 -0.01
   vertex -0.017031171798706054 -0.03619308090209961 -0.01
  endloop
 endfacet
 facet normal 0.0 0.0 -1.0
  outer loop
   vertex -0.03992107009887695 -0.0025116207599639893 -0.01
   vertex -0.03992107009887695 0.0025116207599639893 -0.01
   vertex -0.03929148864746094 -0.00749525260925293 -0.01
  endloop
 endfacet
 facet normal 0.0 0.0 -1.0
  outer loop
   vertex -0.03929148864746094 -0.00749525260925293 -0.01
   vertex -0.03992107009887695 0.0025116207599639893 -0.01
   vertex -0.0380422592163086 -0.012360679626464845 -0.01
  endloop
 endfacet
 facet normal 0.0 0.0 -1.0
  outer loop
   vertex -0.04 -1.0168282231839965e-16 -0.01
   vertex -0.03992107009887695 0.0025116207599639893 -0.01
   vertex -0.03992107009887695 -0.0025116207599639893 -0.01
  endloop
 endfacet
 facet normal 0.0 0.0 -1.0
  outer loop
   vertex -0.0380422592163086 -0.012360679626464845 -0.01
   vertex -0.03992107009887695 0.0025116207599639893 -0.01
   vertex -0.03719105911254883 -0.014724982261657716 -0.01
  endloop
 endfacet
 facet normal 0.0 -0.0 -1.0
  outer loop
   vertex -0.039684589385986326 0.00501332950592041 -0.01
   vertex -0.03929148864746094 0.00749525260925293 -0.01
   vertex -0.03992107009887695 0.0025116207599639893 -0.01
  endloop
 endfacet
 facet normal 0.0 0.0 -1.0
  outer loop
   vertex -0.017031171798706054 -0.03619308090209961 -0.01
   vertex 0.009947595596313476 -0.03874332809448242 -0.01
   vertex -0.00749525260925293 -0.03929148864746094 -0.01
  endloop
 endfacet
 facet normal 0.0 0.0 -1.0
  outer loop
   vertex -0.00501332950592041 -0.039684589385986326 -0.01
   vertex 0.009947595596313476 -0.03874332809448242 -0.01
   vertex -7.347880374357178e-18 -0.04 -0.01
  endloop
 endfacet
 facet normal 0.0 0.0 -1.0
  outer loop
   vertex -0.00749525260925293 -0.03929148864746094 -0.01
   vertex 0.009947595596313476 -0.03874332809448242 -0.01
   vertex -0.00501332950592041 -0.039684589385986326 -0.01
  endloop
 endfacet
 facet normal 0.0 0.0 -1.0
  outer loop
   vertex -7.347880374357178e-18 -0.04 -0.01
   vertex 0.009947595596313476 -0.03874332809448242 -0.01
   vertex 0.0025116207599639893 -0.03992107009887695 -0.01
  endloop
 endfacet
 facet normal 0.0 0.0 -1.0
  outer loop
   vertex 0.0025116207599639893 -0.03992107009887695 -0.01
   vertex 0.009947595596313476 -0.03874332809448242 -0.01
   vertex 0.00501332950592041 -0.039684589385986326 -0.01
  endloop
 endfacet
 facet normal 0.0 0.0 -1.0
  outer loop
   vertex 0.00501332950592041 -0.039684589385986326 -0.01
   vertex 0.009947595596313476 -0.03874332809448242 -0.01
   vertex 0.00749525260925293 -0.03929148864746094 -0.01
  endloop
 endfacet
 facet normal 0.0 -0.0 -1.0
  outer loop
   vertex -0.03874332809448242 0.009947595596313476 -0.01
   vertex -0.0380422592163086 0.012360679626464845 -0.01
   vertex -0.03929148864746094 0.00749525260925293 -0.01
  endloop
 endfacet
 facet normal 0.0 0.0 -1.0
  outer loop
   vertex 0.009947595596313476 -0.03874332809448242 -0.01
   vertex 0.0192701473236084 -0.035052268981933594 -0.01
   vertex 0.012360679626464845 -0.0380422592163086 -0.01
  endloop
 endfacet
 facet normal 0.0 0.0 -1.0
  outer loop
   vertex 0.012360679626464845 -0.0380422592163086 -0.01
   vertex 0.0192701473236084 -0.035052268981933594 -0.01
   vertex 0.014724982261657716 -0.03719105911254883 -0.01
  endloop
 endfacet
 facet normal 0.0 0.0 -1.0
  outer loop
   vertex 0.014724982261657716 -0.03719105911254883 -0.01
   vertex 0.0192701473236084 -0.035052268981933594 -0.01
   vertex 0.017031171798706054 -0.03619308090209961 -0.01
  endloop
 endfacet
 facet normal 0.0 -0.0 -1.0
  outer loop
   vertex -0.03619308090209961 0.017031171798706054 -0.01
   vertex -0.035052268981933594 0.0192701473236084 -0.01
   vertex -0.03719105911254883 0.014724982261657716 -0.01
  endloop
 endfacet
 facet normal 0.0 -0.0 -1.0
  outer loop
   vertex -0.03719105911254883 0.014724982261657716 -0.01
   vertex -0.035052268981933594 0.0192701473236084 -0.01
   vertex -0.0380422592163086 0.012360679626464845 -0.01
  endloop
 endfacet
 facet normal 0.0 0.0 -1.0
  outer loop
   vertex 0.009947595596313476 -0.03874332809448242 -0.01
   vertex 0.02143307113647461 -0.03377311706542969 -0.01
   vertex 0.0192701473236084 -0.035052268981933594 -0.01
  endloop
 endfacet
 facet normal 0.0 -0.0 -1.0
  outer loop
   vertex -0.03377311706542969 0.02143307113647461 -0.01
   vertex -0.03236067962646484 0.023511409759521484 -0.01
   vertex -0.035052268981933594 0.0192701473236084 -0.01
  endloop
 endfacet
 facet normal 0.0 -0.0 -1.0
  outer loop
   vertex -0.035052268981933594 0.0192701473236084 -0.01
   vertex -0.030820529937744142 0.025496959686279297 -0.01
   vertex -0.0380422592163086 0.012360679626464845 -0.01
  endloop
 endfacet
 facet normal 0.0 -0.0 -1.0
  outer loop
   vertex -0.03236067962646484 0.023511409759521484 -0.01
   vertex -0.030820529937744142 0.025496959686279297 -0.01
   vertex -0.035052268981933594 0.0192701473236084 -0.01
  endloop
 endfacet
 facet normal 0.0 0.0 -1.0
  outer loop
   vertex 0.02143307113647461 -0.03377311706542969 -0.01
   vertex 0.02738188362121582 -0.02915874481201172 -0.01
   vertex 0.023511409759521484 -0.03236067962646484 -0.01
  endloop
 endfacet
 facet normal 0.0 0.0 -1.0
  outer loop
   vertex 0.023511409759521484 -0.03236067962646484 -0.01
   vertex 0.02738188362121582 -0.02915874481201172 -0.01
   vertex 0.025496959686279297 -0.030820529937744142 -0.01
  endloop
 endfacet
 facet normal 0.0 0.0 -1.0
  outer loop
   vertex 0.009947595596313476 -0.03874332809448242 -0.01
   vertex 0.02738188362121582 -0.02915874481201172 -0.01
   vertex 0.02143307113647461 -0.03377311706542969 -0.01
  endloop
 endfacet
 facet normal 0.0 -0.0 -1.0
  outer loop
   vertex -0.02738188362121582 0.02915874481201172 -0.01
   vertex -0.025496959686279297 0.030820529937744142 -0.01
   vertex -0.02915874481201172 0.02738188362121582 -0.01
  endloop
 endfacet
 facet normal 0.0 -0.0 -1.0
  outer loop
   vertex -0.02915874481201172 0.02738188362121582 -0.01
   vertex -0.025496959686279297 0.030820529937744142 -0.01
   vertex -0.030820529937744142 0.025496959686279297 -0.01
  endloop
 endfacet
 facet normal 0.0 0.0 -1.0
  outer loop
   vertex -0.03992107009887695 0.0025116207599639893 -0.01
   vertex -0.025496959686279297 0.030820529937744142 -0.01
   vertex -0.017031171798706054 -0.03619308090209961 -0.01
  endloop
 endfacet
 facet normal 0.0 -0.0 -1.0
  outer loop
   vertex -0.0380422592163086 0.012360679626464845 -0.01
   vertex -0.025496959686279297 0.030820529937744142 -0.01
   vertex -0.03929148864746094 0.00749525260925293 -0.01
  endloop
 endfacet
 facet normal 0.0 -0.0 -1.0
  outer loop
   vertex -0.03929148864746094 0.00749525260925293 -0.01
   vertex -0.025496959686279297 0.030820529937744142 -0.01
   vertex -0.03992107009887695 0.0025116207599639893 -0.01
  endloop
 endfacet
 facet normal 0.0 -0.0 -1.0
  outer loop
   vertex -0.030820529937744142 0.025496959686279297 -0.01
   vertex -0.025496959686279297 0.030820529937744142 -0.01
   vertex -0.0380422592163086 0.012360679626464845 -0.01
  endloop
 endfacet
 facet normal 0.0 0.0 -1.0
  outer loop
   vertex 0.02738188362121582 -0.02915874481201172 -0.01
   vertex 0.03236067962646484 -0.023511409759521484 -0.01
   vertex 0.02915874481201172 -0.02738188362121582 -0.01
  endloop
 endfacet
 facet normal 0.0 0.0 -1.0
  outer loop
   vertex 0.02915874481201172 -0.02738188362121582 -0.01
   vertex 0.03236067962646484 -0.023511409759521484 -0.01
   vertex 0.030820529937744142 -0.025496959686279297 -0.01
  endloop
 endfacet
 facet normal 0.0 0.0 -1.0
  outer loop
   vertex 0.009947595596313476 -0.03874332809448242 -0.01
   vertex 0.03236067962646484 -0.023511409759521484 -0.01
   vertex 0.02738188362121582 -0.02915874481201172 -0.01
  endloop
 endfacet
 facet normal 0.0 0.0 -1.0
  outer loop
   vertex -0.025496959686279297 0.030820529937744142 -0.01
   vertex -0.023511409759521484 0.03236067962646484 -0.01
   vertex -0.017031171798706054 -0.03619308090209961 -0.01
  endloop
 endfacet
 facet normal 0.0 0.0 -1.0
  outer loop
   vertex 0.03236067962646484 -0.023511409759521484 -0.01
   vertex 0.035052268981933594 -0.0192701473236084 -0.01
   vertex 0.03377311706542969 -0.02143307113647461 -0.01
  endloop
 endfacet
 facet normal 0.0 -0.0 -1.0
  outer loop
   vertex -0.0192701473236084 0.035052268981933594 -0.01
   vertex -0.017031171798706054 0.03619308090209961 -0.01
   vertex -0.02143307113647461 0.03377311706542969 -0.01
  endloop
 endfacet
 facet normal 0.0 -0.0 -1.0
  outer loop
   vertex -0.02143307113647461 0.03377311706542969 -0.01
   vertex -0.017031171798706054 0.03619308090209961 -0.01
   vertex -0.023511409759521484 0.03236067962646484 -0.01
  endloop
 endfacet
 facet normal 0.0 0.0 -1.0
  outer loop
   vertex 0.03236067962646484 -0.023511409759521484 -0.01
   vertex 0.03719105911254883 -0.014724982261657716 -0.01
   vertex 0.035052268981933594 -0.0192701473236084 -0.01
  endloop
 endfacet
 facet normal 0.0 0.0 -1.0
  outer loop
   vertex 0.035052268981933594 -0.0192701473236084 -0.01
   vertex 0.03719105911254883 -0.014724982261657716 -0.01
   vertex 0.03619308090209961 -0.017031171798706054 -0.01
  endloop
 endfacet
 facet normal 0.0 0.0 -1.0
  outer loop
   vertex 0.009947595596313476 -0.03874332809448242 -0.01
   vertex 0.03874332809448242 -0.009947595596313476 -0.01
   vertex 0.03236067962646484 -0.023511409759521484 -0.01
  endloop
 endfacet
 facet normal 0.0 0.0 -1.0
  outer loop
   vertex 0.03236067962646484 -0.023511409759521484 -0.01
   vertex 0.03874332809448242 -0.009947595596313476 -0.01
   vertex 0.03719105911254883 -0.014724982261657716 -0.01
  endloop
 endfacet
 facet normal 0.0 0.0 -1.0
  outer loop
   vertex -0.017031171798706054 -0.03619308090209961 -0.01
   vertex 0.03874332809448242 -0.009947595596313476 -0.01
   vertex 0.009947595596313476 -0.03874332809448242 -0.01
  endloop
 endfacet
 facet normal 0.0 0.0 -1.0
  outer loop
   vertex 0.03719105911254883 -0.014724982261657716 -0.01
   vertex 0.03874332809448242 -0.009947595596313476 -0.01
   vertex 0.0380422592163086 -0.012360679626464845 -0.01
  endloop
 endfacet
 facet normal 0.0 -0.0 -1.0
  outer loop
   vertex -0.009947595596313476 0.03874332809448242 -0.01
   vertex -0.00749525260925293 0.03929148864746094 -0.01
   vertex -0.012360679626464845 0.0380422592163086 -0.01
  endloop
 endfacet
 facet normal 0.0 -0.0 -1.0
  outer loop
   vertex -0.012360679626464845 0.0380422592163086 -0.01
   vertex -0.00749525260925293 0.03929148864746094 -0.01
   vertex -0.014724982261657716 0.03719105911254883 -0.01
  endloop
 endfacet
 facet normal 0.0 -0.0 -1.0
  outer loop
   vertex -0.014724982261657716 0.03719105911254883 -0.01
   vertex -0.00501332950592041 0.039684589385986326 -0.01
   vertex -0.017031171798706054 0.03619308090209961 -0.01
  endloop
 endfacet
 facet normal 0.0 -0.0 -1.0
  outer loop
   vertex -0.00749525260925293 0.03929148864746094 -0.01
   vertex -0.00501332950592041 0.039684589385986326 -0.01
   vertex -0.014724982261657716 0.03719105911254883 -0.01
  endloop
 endfacet
 facet normal 0.0 0.0 -1.0
  outer loop
   vertex 0.03929148864746094 -0.00749525260925293 -0.01
   vertex 0.03992107009887695 -0.0025116207599639893 -0.01
   vertex 0.039684589385986326 -0.00501332950592041 -0.01
  endloop
 endfacet
 facet normal 0.0 -0.0 -1.0
  outer loop
   vertex -0.0025116207599639893 0.03992107009887695 -0.01
   vertex -2.4196058568196067e-17 0.04 -0.01
   vertex -0.00501332950592041 0.039684589385986326 -0.01
  endloop
 endfacet
 facet normal 0.0 0.0 -1.0
  outer loop
   vertex 0.03929148864746094 -0.00749525260925293 -0.01
   vertex 0.03992107009887695 0.0025116207599639893 -0.01
   vertex 0.03992107009887695 -0.0025116207599639893 -0.01
  endloop
 endfacet
 facet normal 0.0 0.0 -1.0
  outer loop
   vertex 0.03874332809448242 -0.009947595596313476 -0.01
   vertex 0.03992107009887695 0.0025116207599639893 -0.01
   vertex 0.03929148864746094 -0.00749525260925293 -0.01
  endloop
 endfacet
 facet normal 0.0 0.0 -1.0
  outer loop
   vertex 0.03992107009887695 -0.0025116207599639893 -0.01
   vertex 0.03992107009887695 0.0025116207599639893 -0.01
   vertex 0.04 -9.797174397164869e-18 -0.01
  endloop
 endfacet
 facet normal -0.0 -0.0 -1.0
  outer loop
   vertex 0.0025116207599639893 0.03992107009887695 -0.01
   vertex 0.00501332950592041 0.039684589385986326 -0.01
   vertex -2.4196058568196067e-17 0.04 -0.01
  endloop
 endfacet
 facet normal 0.0 -0.0 -1.0
  outer loop
   vertex -2.4196058568196067e-17 0.04 -0.01
   vertex 0.00501332950592041 0.039684589385986326 -0.01
   vertex -0.00501332950592041 0.039684589385986326 -0.01
  endloop
 endfacet
 facet normal 0.0 0.0 -1.0
  outer loop
   vertex 0.03874332809448242 -0.009947595596313476 -0.01
   vertex 0.039684589385986326 0.00501332950592041 -0.01
   vertex 0.03992107009887695 0.0025116207599639893 -0.01
  endloop
 endfacet
 facet normal 0.0 0.0 -1.0
  outer loop
   vertex 0.039684589385986326 0.00501332950592041 -0.01
   vertex 0.03874332809448242 0.009947595596313476 -0.01
   vertex 0.03929148864746094 0.00749525260925293 -0.01
  endloop
 endfacet
 facet normal 0.0 0.0 -1.0
  outer loop
   vertex 0.03874332809448242 0.009947595596313476 -0.01
   vertex 0.03719105911254883 0.014724982261657716 -0.01
   vertex 0.0380422592163086 0.012360679626464845 -0.01
  endloop
 endfacet
 facet normal 0.0 0.0 -1.0
  outer loop
   vertex 0.039684589385986326 0.00501332950592041 -0.01
   vertex 0.03719105911254883 0.014724982261657716 -0.01
   vertex 0.03874332809448242 0.009947595596313476 -0.01
  endloop
 endfacet
 facet normal 0.0 0.0 -1.0
  outer loop
   vertex 0.039684589385986326 0.00501332950592041 -0.01
   vertex 0.03619308090209961 0.017031171798706054 -0.01
   vertex 0.03719105911254883 0.014724982261657716 -0.01
  endloop
 endfacet
 facet normal 0.0 0.0 -1.0
  outer loop
   vertex 0.03874332809448242 -0.009947595596313476 -0.01
   vertex 0.035052268981933594 0.0192701473236084 -0.01
   vertex 0.039684589385986326 0.00501332950592041 -0.01
  endloop
 endfacet
 facet normal 0.0 0.0 -1.0
  outer loop
   vertex 0.039684589385986326 0.00501332950592041 -0.01
   vertex 0.035052268981933594 0.0192701473236084 -0.01
   vertex 0.03619308090209961 0.017031171798706054 -0.01
  endloop
 endfacet
 facet normal -0.0 -0.0 -1.0
  outer loop
   vertex 0.0192701473236084 0.035052268981933594 -0.01
   vertex 0.02143307113647461 0.03377311706542969 -0.01
   vertex 0.017031171798706054 0.03619308090209961 -0.01
  endloop
 endfacet
 facet normal -0.0 -0.0 -1.0
  outer loop
   vertex 0.017031171798706054 0.03619308090209961 -0.01
   vertex 0.02143307113647461 0.03377311706542969 -0.01
   vertex 0.014724982261657716 0.03719105911254883 -0.01
  endloop
 endfacet
 facet normal -0.0 -0.0 -1.0
  outer loop
   vertex 0.014724982261657716 0.03719105911254883 -0.01
   vertex 0.02143307113647461 0.03377311706542969 -0.01
   vertex 0.012360679626464845 0.0380422592163086 -0.01
  endloop
 endfacet
 facet normal -0.0 -0.0 -1.0
  outer loop
   vertex 0.012360679626464845 0.0380422592163086 -0.01
   vertex 0.02143307113647461 0.03377311706542969 -0.01
   vertex 0.009947595596313476 0.03874332809448242 -0.01
  endloop
 endfacet
 facet normal 0.0 0.0 -1.0
  outer loop
   vertex 0.035052268981933594 0.0192701473236084 -0.01
   vertex 0.03236067962646484 0.023511409759521484 -0.01
   vertex 0.03377311706542969 0.02143307113647461 -0.01
  endloop
 endfacet
 facet normal -0.0 -0.0 -1.0
  outer loop
   vertex 0.023511409759521484 0.03236067962646484 -0.01
   vertex 0.025496959686279297 0.030820529937744142 -0.01
   vertex 0.02143307113647461 0.03377311706542969 -0.01
  endloop
 endfacet
 facet normal -0.0 -0.0 -1.0
  outer loop
   vertex 0.009947595596313476 0.03874332809448242 -0.01
   vertex 0.025496959686279297 0.030820529937744142 -0.01
   vertex 0.00749525260925293 0.03929148864746094 -0.01
  endloop
 endfacet
 facet normal -0.0 -0.0 -1.0
  outer loop
   vertex 0.02143307113647461 0.03377311706542969 -0.01
   vertex 0.025496959686279297 0.030820529937744142 -0.01
   vertex 0.009947595596313476 0.03874332809448242 -0.01
  endloop
 endfacet
 facet normal 0.0 0.0 -1.0
  outer loop
   vertex 0.03236067962646484 0.023511409759521484 -0.01
   vertex 0.02915874481201172 0.02738188362121582 -0.01
   vertex 0.030820529937744142 0.025496959686279297 -0.01
  endloop
 endfacet
 facet normal 0.0 -0.0 -1.0
  outer loop
   vertex -0.017031171798706054 0.03619308090209961 -0.01
   vertex 0.02738188362121582 0.02915874481201172 -0.01
   vertex -0.023511409759521484 0.03236067962646484 -0.01
  endloop
 endfacet
 facet normal 0.0 0.0 -1.0
  outer loop
   vertex -0.023511409759521484 0.03236067962646484 -0.01
   vertex 0.02738188362121582 0.02915874481201172 -0.01
   vertex -0.017031171798706054 -0.03619308090209961 -0.01
  endloop
 endfacet
 facet normal 0.0 0.0 -1.0
  outer loop
   vertex -0.017031171798706054 -0.03619308090209961 -0.01
   vertex 0.02738188362121582 0.02915874481201172 -0.01
   vertex 0.03874332809448242 -0.009947595596313476 -0.01
  endloop
 endfacet
 facet normal -0.0 -0.0 -1.0
  outer loop
   vertex 0.00749525260925293 0.03929148864746094 -0.01
   vertex 0.02738188362121582 0.02915874481201172 -0.01
   vertex 0.00501332950592041 0.039684589385986326 -0.01
  endloop
 endfacet
 facet normal 0.0 -0.0 -1.0
  outer loop
   vertex -0.00501332950592041 0.039684589385986326 -0.01
   vertex 0.02738188362121582 0.02915874481201172 -0.01
   vertex -0.017031171798706054 0.03619308090209961 -0.01
  endloop
 endfacet
 facet normal -0.0 -0.0 -1.0
  outer loop
   vertex 0.00501332950592041 0.039684589385986326 -0.01
   vertex 0.02738188362121582 0.02915874481201172 -0.01
   vertex -0.00501332950592041 0.039684589385986326 -0.01
  endloop
 endfacet
 facet normal 0.0 0.0 -1.0
  outer loop
   vertex 0.035052268981933594 0.0192701473236084 -0.01
   vertex 0.02738188362121582 0.02915874481201172 -0.01
   vertex 0.03236067962646484 0.023511409759521484 -0.01
  endloop
 endfacet
 facet normal 0.0 0.0 -1.0
  outer loop
   vertex 0.03874332809448242 -0.009947595596313476 -0.01
   vertex 0.02738188362121582 0.02915874481201172 -0.01
   vertex 0.035052268981933594 0.0192701473236084 -0.01
  endloop
 endfacet
 facet normal -0.0 -0.0 -1.0
  outer loop
   vertex 0.025496959686279297 0.030820529937744142 -0.01
   vertex 0.02738188362121582 0.02915874481201172 -0.01
   vertex 0.00749525260925293 0.03929148864746094 -0.01
  endloop
 endfacet
 facet normal 0.0 0.0 -1.0
  outer loop
   vertex 0.03236067962646484 0.023511409759521484 -0.01
   vertex 0.02738188362121582 0.02915874481201172 -0.01
   vertex 0.02915874481201172 0.02738188362121582 -0.01
  endloop
 endfacet
endsolid patch_2_0
