solid patch_3_0
 facet normal 0.9995065331459045 0.031410377472639084 -0.0
  outer loop
   vertex 0.04 -9.797174397164869e-18 -0.01
   vertex 0.03992107009887695 0.0025116207599639893 -0.01
   vertex 0.04 -9.797174397164869e-18 0.03
  endloop
 endfacet
 facet normal 0.9995065331459045 0.031410377472639084 0.0
  outer loop
   vertex 0.04 -9.797174397164869e-18 0.03
   vertex 0.03992107009887695 0.0025116207599639893 -0.01
   vertex 0.03992107009887695 0.0025116207599639893 0.03
  endloop
 endfacet
 facet normal 0.9955620169639587 0.09410815685987473 0.0
  outer loop
   vertex 0.03992107009887695 0.0025116207599639893 0.03
   vertex 0.039684589385986326 0.00501332950592041 -0.01
   vertex 0.039684589385986326 0.00501332950592041 0.03
  endloop
 endfacet
 facet normal 0.9955620169639587 0.09410815685987473 -0.0
  outer loop
   vertex 0.03992107009887695 0.0025116207599639893 -0.01
   vertex 0.039684589385986326 0.00501332950592041 -0.01
   vertex 0.03992107009887695 0.0025116207599639893 0.03
  endloop
 endfacet
 facet normal 0.9876882433891296 0.1564355343580246 0.0
  outer loop
   vertex 0.039684589385986326 0.00501332950592041 0.03
   vertex 0.03929148864746094 0.00749525260925293 -0.01
   vertex 0.03929148864746094 0.00749525260925293 0.03
  endloop
 endfacet
 facet normal 0.9876882433891296 0.1564355343580246 -0.0
  outer loop
   vertex 0.039684589385986326 0.00501332950592041 -0.01
   vertex 0.03929148864746094 0.00749525260925293 -0.01
   vertex 0.039684589385986326 0.00501332950592041 0.03
  endloop
 endfacet
 facet normal 0.9759170413017273 0.2181420922279358 0.0
  outer loop
   vertex 0.03929148864746094 0.00749525260925293 0.03
   vertex 0.03874332809448242 0.009947595596313476 -0.01
   vertex 0.03874332809448242 0.009947595596313476 0.03
  endloop
 endfacet
 facet normal 0.9759170413017273 0.2181420922279358 -0.0
  outer loop
   vertex 0.03929148864746094 0.00749525260925293 -0.01
   vertex 0.03874332809448242 0.009947595596313476 -0.01
   vertex 0.03929148864746094 0.00749525260925293 0.03
  endloop
 endfacet
 facet normal 0.9602933526039124 0.27899226546287537 0.0
  outer loop
   vertex 0.03874332809448242 0.009947595596313476 0.03
   vertex 0.0380422592163086 0.012360679626464845 -0.01
   vertex 0.0380422592163086 0.012360679626464845 0.03
  endloop
 endfacet
 facet normal 0.9602933526039124 0.27899226546287537 -0.0
  outer loop
   vertex 0.03874332809448242 0.009947595596313476 -0.01
   vertex 0.0380422592163086 0.012360679626464845 -0.01
   vertex 0.03874332809448242 0.009947595596313476 0.03
  endloop
 endfacet
 facet normal 0.9408808946609497 0.33873748779296875 0.0
  outer loop
   vertex 0.0380422592163086 0.012360679626464845 0.03
   vertex 0.03719105911254883 0.014724982261657716 -0.01
   vertex 0.03719105911254883 0.014724982261657716 0.03
  endloop
 endfacet
 facet normal 0.9408808946609497 0.33873748779296875 -0.0
  outer loop
   vertex 0.0380422592163086 0.012360679626464845 -0.01
   vertex 0.03719105911254883 0.014724982261657716 -0.01
   vertex 0.0380422592163086 0.012360679626464845 0.03
  endloop
 endfacet
 facet normal 0.9177544713020325 0.3971481919288635 0.0
  outer loop
   vertex 0.03719105911254883 0.014724982261657716 0.03
   vertex 0.03619308090209961 0.017031171798706054 -0.01
   vertex 0.03619308090209961 0.017031171798706054 0.03
  endloop
 endfacet
 facet normal 0.8910070061683655 0.45398953557014465 0.0
  outer loop
   vertex 0.03619308090209961 0.017031171798706054 0.03
   vertex 0.03619308090209961 0.017031171798706054 -0.01
   vertex 0.035052268981933594 0.0192701473236084 0.03
  endloop
 endfacet
 facet normal 0.9177544713020325 0.3971481919288635 -0.0
  outer loop
   vertex 0.03719105911254883 0.014724982261657716 -0.01
   vertex 0.03619308090209961 0.017031171798706054 -0.01
   vertex 0.03719105911254883 0.014724982261657716 0.03
  endloop
 endfacet
 facet normal 0.8607416152954102 0.5090421438217163 0.0
  outer loop
   vertex 0.035052268981933594 0.0192701473236084 0.03
   vertex 0.035052268981933594 0.0192701473236084 -0.01
   vertex 0.03377311706542969 0.02143307113647461 0.03
  endloop
 endfacet
 facet normal 0.8910070061683655 0.45398953557014465 0.0
  outer loop
   vertex 0.03619308090209961 0.017031171798706054 -0.01
   vertex 0.035052268981933594 0.0192701473236084 -0.01
   vertex 0.035052268981933594 0.0192701473236084 0.03
  endloop
 endfacet
 facet normal 0.8270805478096008 0.56208336353302 0.0
  outer loop
   vertex 0.03377311706542969 0.02143307113647461 0.03
   vertex 0.03377311706542969 0.02143307113647461 -0.01
   vertex 0.03236067962646484 0.023511409759521484 0.03
  endloop
 endfacet
 facet normal 0.8607416152954102 0.5090421438217163 0.0
  outer loop
   vertex 0.035052268981933594 0.0192701473236084 -0.01
   vertex 0.03377311706542969 0.02143307113647461 -0.01
   vertex 0.03377311706542969 0.02143307113647461 0.03
  endloop
 endfacet
 facet normal 0.8270805478096008 0.56208336353302 0.0
  outer loop
   vertex 0.03377311706542969 0.02143307113647461 -0.01
   vertex 0.03236067962646484 0.023511409759521484 -0.01
   vertex 0.03236067962646484 0.023511409759521484 0.03
  endloop
 endfacet
 facet normal 0.7901551127433777 0.6129068732261658 0.0
  outer loop
   vertex 0.03236067962646484 0.023511409759521484 0.03
   vertex 0.030820529937744142 0.025496959686279297 -0.01
   vertex 0.030820529937744142 0.025496959686279297 0.03
  endloop
 endfacet
 facet normal 0.7901551127433777 0.6129068732261658 -0.0
  outer loop
   vertex 0.03236067962646484 0.023511409759521484 -0.01
   vertex 0.030820529937744142 0.025496959686279297 -0.01
   vertex 0.03236067962646484 0.023511409759521484 0.03
  endloop
 endfacet
 facet normal 0.7501108646392822 0.6613121032714844 0.0
  outer loop
   vertex 0.030820529937744142 0.025496959686279297 0.03
   vertex 0.02915874481201172 0.02738188362121582 -0.01
   vertex 0.02915874481201172 0.02738188362121582 0.03
  endloop
 endfacet
 facet normal 0.7071067690849304 0.7071067690849304 0.0
  outer loop
   vertex 0.02915874481201172 0.02738188362121582 0.03
   vertex 0.02915874481201172 0.02738188362121582 -0.01
   vertex 0.02738188362121582 0.02915874481201172 0.03
  endloop
 endfacet
 facet normal 0.7501108646392822 0.6613121032714844 -0.0
  outer loop
   vertex 0.030820529937744142 0.025496959686279297 -0.01
   vertex 0.02915874481201172 0.02738188362121582 -0.01
   vertex 0.030820529937744142 0.025496959686279297 0.03
  endloop
 endfacet
 facet normal 0.7071067690849304 0.7071067690849304 0.0
  outer loop
   vertex 0.02915874481201172 0.02738188362121582 -0.01
   vertex 0.02738188362121582 0.02915874481201172 -0.01
   vertex 0.02738188362121582 0.02915874481201172 0.03
  endloop
 endfacet
 facet normal 0.6613121032714844 0.7501108646392822 0.0
  outer loop
   vertex 0.02738188362121582 0.02915874481201172 0.03
   vertex 0.025496959686279297 0.030820529937744142 -0.01
   vertex 0.025496959686279297 0.030820529937744142 0.03
  endloop
 endfacet
 facet normal 0.6129068732261658 0.7901551127433777 0.0
  outer loop
   vertex 0.025496959686279297 0.030820529937744142 0.03
   vertex 0.025496959686279297 0.030820529937744142 -0.01
   vertex 0.023511409759521484 0.03236067962646484 0.03
  endloop
 endfacet
 facet normal 0.6613121032714844 0.7501108646392822 -0.0
  outer loop
   vertex 0.02738188362121582 0.02915874481201172 -0.01
   vertex 0.025496959686279297 0.030820529937744142 -0.01
   vertex 0.02738188362121582 0.02915874481201172 0.03
  endloop
 endfacet
 facet normal 0.6129068732261658 0.7901551127433777 0.0
  outer loop
   vertex 0.025496959686279297 0.030820529937744142 -0.01
   vertex 0.023511409759521484 0.03236067962646484 -0.01
   vertex 0.023511409759521484 0.03236067962646484 0.03
  endloop
 endfacet
 facet normal 0.56208336353302 0.8270805478096008 0.0
  outer loop
   vertex 0.023511409759521484 0.03236067962646484 0.03
   vertex 0.02143307113647461 0.03377311706542969 -0.01
   vertex 0.02143307113647461 0.03377311706542969 0.03
  endloop
 endfacet
 facet normal 0.56208336353302 0.8270805478096008 -0.0
  outer loop
   vertex 0.023511409759521484 0.03236067962646484 -0.01
   vertex 0.02143307113647461 0.03377311706542969 -0.01
   vertex 0.023511409759521484 0.03236067962646484 0.03
  endloop
 endfacet
 facet normal 0.5090421438217163 0.8607416152954102 0.0
  outer loop
   vertex 0.02143307113647461 0.03377311706542969 0.03
   vertex 0.0192701473236084 0.035052268981933594 -0.01
   vertex 0.0192701473236084 0.035052268981933594 0.03
  endloop
 endfacet
 facet normal 0.5090421438217163 0.8607416152954102 -0.0
  outer loop
   vertex 0.02143307113647461 0.03377311706542969 -0.01
   vertex 0.0192701473236084 0.035052268981933594 -0.01
   vertex 0.02143307113647461 0.03377311706542969 0.03
  endloop
 endfacet
 facet normal 0.45398953557014465 0.8910070061683655 0.0
  outer loop
   vertex 0.0192701473236084 0.035052268981933594 0.03
   vertex 0.017031171798706054 0.03619308090209961 -0.01
   vertex 0.017031171798706054 0.03619308090209961 0.03
  endloop
 endfacet
 facet normal 0.45398953557014465 0.8910070061683655 -0.0
  outer loop
   vertex 0.0192701473236084 0.035052268981933594 -0.01
   vertex 0.017031171798706054 0.03619308090209961 -0.01
   vertex 0.0192701473236084 0.035052268981933594 0.03
  endloop
 endfacet
 facet normal 0.3971481919288635 0.9177544713020325 0.0
  outer loop
   vertex 0.017031171798706054 0.03619308090209961 0.03
   vertex 0.014724982261657716 0.03719105911254883 -0.01
   vertex 0.014724982261657716 0.03719105911254883 0.03
  endloop
 endfacet
 facet normal 0.3971481919288635 0.9177544713020325 -0.0
  outer loop
   vertex 0.017031171798706054 0.03619308090209961 -0.01
   vertex 0.014724982261657716 0.03719105911254883 -0.01
   vertex 0.017031171798706054 0.03619308090209961 0.03
  endloop
 endfacet
 facet normal 0.33873748779296875 0.9408808946609497 0.0
  outer loop
   vertex 0.014724982261657716 0.03719105911254883 0.03
   vertex 0.012360679626464845 0.0380422592163086 -0.01
   vertex 0.012360679626464845 0.0380422592163086 0.03
  endloop
 endfacet
 facet normal 0.33873748779296875 0.9408808946609497 -0.0
  outer loop
   vertex 0.014724982261657716 0.03719105911254883 -0.01
   vertex 0.012360679626464845 0.0380422592163086 -0.01
   vertex 0.014724982261657716 0.03719105911254883 0.03
  endloop
 endfacet
 facet normal 0.27899226546287537 0.9602933526039124 0.0
  outer loop
   vertex 0.012360679626464845 0.0380422592163086 0.03
   vertex 0.009947595596313476 0.03874332809448242 -0.01
   vertex 0.009947595596313476 0.03874332809448242 0.03
  endloop
 endfacet
 facet normal 0.27899226546287537 0.9602933526039124 -0.0
  outer loop
   vertex 0.012360679626464845 0.0380422592163086 -0.01
   vertex 0.009947595596313476 0.03874332809448242 -0.01
   vertex 0.012360679626464845 0.0380422592163086 0.03
  endloop
 endfacet
 facet normal 0.2181420922279358 0.9759170413017273 0.0
  outer loop
   vertex 0.009947595596313476 0.03874332809448242 0.03
   vertex 0.00749525260925293 0.03929148864746094 -0.01
   vertex 0.00749525260925293 0.03929148864746094 0.03
  endloop
 endfacet
 facet normal 0.2181420922279358 0.9759170413017273 -0.0
  outer loop
   vertex 0.009947595596313476 0.03874332809448242 -0.01
   vertex 0.00749525260925293 0.03929148864746094 -0.01
   vertex 0.009947595596313476 0.03874332809448242 0.03
  endloop
 endfacet
 facet normal 0.1564355343580246 0.9876882433891296 0.0
  outer loop
   vertex 0.00749525260925293 0.03929148864746094 0.03
   vertex 0.00501332950592041 0.039684589385986326 -0.01
   vertex 0.00501332950592041 0.039684589385986326 0.03
  endloop
 endfacet
 facet normal 0.1564355343580246 0.9876882433891296 -0.0
  outer loop
   vertex 0.00749525260925293 0.03929148864746094 -0.01
   vertex 0.00501332950592041 0.039684589385986326 -0.01
   vertex 0.00749525260925293 0.03929148864746094 0.03
  endloop
 endfacet
 facet normal 0.09410815685987473 0.9955620169639587 0.0
  outer loop
   vertex 0.00501332950592041 0.039684589385986326 0.03
   vertex 0.0025116207599639893 0.03992107009887695 -0.01
   vertex 0.0025116207599639893 0.03992107009887695 0.03
  endloop
 endfacet
 facet normal 0.09410815685987473 0.9955620169639587 -0.0
  outer loop
   vertex 0.00501332950592041 0.039684589385986326 -0.01
   vertex 0.0025116207599639893 0.03992107009887695 -0.01
   vertex 0.00501332950592041 0.039684589385986326 0.03
  endloop
 endfacet
 facet normal 0.031410377472639084 0.9995065331459045 -0.0
  outer loop
   vertex 0.0025116207599639893 0.03992107009887695 -0.01
   vertex -2.4196058568196067e-17 0.04 -0.01
   vertex 0.0025116207599639893 0.03992107009887695 0.03
  endloop
 endfacet
 facet normal 0.031410377472639084 0.9995065331459045 0.0
  outer loop
   vertex 0.0025116207599639893 0.03992107009887695 0.03
   vertex -2.4196058568196067e-17 0.04 -0.01
   vertex -2.4196058568196067e-17 0.04 0.03
  endloop
 endfacet
 facet normal -0.031410377472639084 0.9995065331459045 0.0
  outer loop
   vertex -2.4196058568196067e-17 0.04 -0.01
   vertex -0.0025116207599639893 0.03992107009887695 -0.01
   vertex -2.4196058568196067e-17 0.04 0.03
  endloop
 endfacet
 facet normal -0.031410377472639084 0.9995065331459045 0.0
  outer loop
   vertex -2.4196058568196067e-17 0.04 0.03
   vertex -0.0025116207599639893 0.03992107009887695 -0.01
   vertex -0.0025116207599639893 0.03992107009887695 0.03
  endloop
 endfacet
 facet normal -0.09410815685987473 0.9955620169639587 0.0
  outer loop
   vertex -0.0025116207599639893 0.03992107009887695 0.03
   vertex -0.0025116207599639893 0.03992107009887695 -0.01
   vertex -0.00501332950592041 0.039684589385986326 0.03
  endloop
 endfacet
 facet normal -0.09410815685987473 0.9955620169639587 0.0
  outer loop
   vertex -0.0025116207599639893 0.03992107009887695 -0.01
   vertex -0.00501332950592041 0.039684589385986326 -0.01
   vertex -0.00501332950592041 0.039684589385986326 0.03
  endloop
 endfacet
 facet normal -0.1564355343580246 0.9876882433891296 0.0
  outer loop
   vertex -0.00501332950592041 0.039684589385986326 -0.01
   vertex -0.00749525260925293 0.03929148864746094 -0.01
   vertex -0.00501332950592041 0.039684589385986326 0.03
  endloop
 endfacet
 facet normal -0.1564355343580246 0.9876882433891296 0.0
  outer loop
   vertex -0.00501332950592041 0.039684589385986326 0.03
   vertex -0.00749525260925293 0.03929148864746094 -0.01
   vertex -0.00749525260925293 0.03929148864746094 0.03
  endloop
 endfacet
 facet normal -0.2181420922279358 0.9759170413017273 0.0
  outer loop
   vertex -0.00749525260925293 0.03929148864746094 0.03
   vertex -0.00749525260925293 0.03929148864746094 -0.01
   vertex -0.009947595596313476 0.03874332809448242 0.03
  endloop
 endfacet
 facet normal -0.2181420922279358 0.9759170413017273 0.0
  outer loop
   vertex -0.00749525260925293 0.03929148864746094 -0.01
   vertex -0.009947595596313476 0.03874332809448242 -0.01
   vertex -0.009947595596313476 0.03874332809448242 0.03
  endloop
 endfacet
 facet normal -0.27899226546287537 0.9602933526039124 0.0
  outer loop
   vertex -0.009947595596313476 0.03874332809448242 -0.01
   vertex -0.012360679626464845 0.0380422592163086 -0.01
   vertex -0.009947595596313476 0.03874332809448242 0.03
  endloop
 endfacet
 facet normal -0.27899226546287537 0.9602933526039124 0.0
  outer loop
   vertex -0.009947595596313476 0.03874332809448242 0.03
   vertex -0.012360679626464845 0.0380422592163086 -0.01
   vertex -0.012360679626464845 0.0380422592163086 0.03
  endloop
 endfacet
 facet normal -0.33873748779296875 0.9408808946609497 0.0
  outer loop
   vertex -0.012360679626464845 0.0380422592163086 0.03
   vertex -0.012360679626464845 0.0380422592163086 -0.01
   vertex -0.014724982261657716 0.03719105911254883 0.03
  endloop
 endfacet
 facet normal -0.33873748779296875 0.9408808946609497 0.0
  outer loop
   vertex -0.012360679626464845 0.0380422592163086 -0.01
   vertex -0.014724982261657716 0.03719105911254883 -0.01
   vertex -0.014724982261657716 0.03719105911254883 0.03
  endloop
 endfacet
 facet normal -0.3971481919288635 0.9177544713020325 0.0
  outer loop
   vertex -0.014724982261657716 0.03719105911254883 0.03
   vertex -0.014724982261657716 0.03719105911254883 -0.01
   vertex -0.017031171798706054 0.03619308090209961 0.03
  endloop
 endfacet
 facet normal -0.3971481919288635 0.9177544713020325 0.0
  outer loop
   vertex -0.014724982261657716 0.03719105911254883 -0.01
   vertex -0.017031171798706054 0.03619308090209961 -0.01
   vertex -0.017031171798706054 0.03619308090209961 0.03
  endloop
 endfacet
 facet normal -0.45398953557014465 0.8910070061683655 0.0
  outer loop
   vertex -0.017031171798706054 0.03619308090209961 0.03
   vertex -0.0192701473236084 0.035052268981933594 -0.01
   vertex -0.0192701473236084 0.035052268981933594 0.03
  endloop
 endfacet
 facet normal -0.45398953557014465 0.8910070061683655 0.0
  outer loop
   vertex -0.017031171798706054 0.03619308090209961 -0.01
   vertex -0.0192701473236084 0.035052268981933594 -0.01
   vertex -0.017031171798706054 0.03619308090209961 0.03
  endloop
 endfacet
 facet normal -0.5090421438217163 0.8607416152954102 0.0
  outer loop
   vertex -0.0192701473236084 0.035052268981933594 0.03
   vertex -0.02143307113647461 0.03377311706542969 -0.01
   vertex -0.02143307113647461 0.03377311706542969 0.03
  endloop
 endfacet
 facet normal -0.56208336353302 0.8270805478096008 0.0
  outer loop
   vertex -0.02143307113647461 0.03377311706542969 0.03
   vertex -0.02143307113647461 0.03377311706542969 -0.01
   vertex -0.023511409759521484 0.03236067962646484 0.03
  endloop
 endfacet
 facet normal -0.5090421438217163 0.8607416152954102 0.0
  outer loop
   vertex -0.0192701473236084 0.035052268981933594 -0.01
   vertex -0.02143307113647461 0.03377311706542969 -0.01
   vertex -0.0192701473236084 0.035052268981933594 0.03
  endloop
 endfacet
 facet normal -0.56208336353302 0.8270805478096008 0.0
  outer loop
   vertex -0.02143307113647461 0.03377311706542969 -0.01
   vertex -0.023511409759521484 0.03236067962646484 -0.01
   vertex -0.023511409759521484 0.03236067962646484 0.03
  endloop
 endfacet
 facet normal -0.6129068732261658 0.7901551127433777 0.0
  outer loop
   vertex -0.023511409759521484 0.03236067962646484 0.03
   vertex -0.025496959686279297 0.030820529937744142 -0.01
   vertex -0.025496959686279297 0.030820529937744142 0.03
  endloop
 endfacet
 facet normal -0.6613121032714844 0.7501108646392822 0.0
  outer loop
   vertex -0.025496959686279297 0.030820529937744142 0.03
   vertex -0.025496959686279297 0.030820529937744142 -0.01
   vertex -0.02738188362121582 0.02915874481201172 0.03
  endloop
 endfacet
 facet normal -0.6129068732261658 0.7901551127433777 0.0
  outer loop
   vertex -0.023511409759521484 0.03236067962646484 -0.01
   vertex -0.025496959686279297 0.030820529937744142 -0.01
   vertex -0.023511409759521484 0.03236067962646484 0.03
  endloop
 endfacet
 facet normal -0.6613121032714844 0.7501108646392822 0.0
  outer loop
   vertex -0.025496959686279297 0.030820529937744142 -0.01
   vertex -0.02738188362121582 0.02915874481201172 -0.01
   vertex -0.02738188362121582 0.02915874481201172 0.03
  endloop
 endfacet
 facet normal -0.7071067690849304 0.7071067690849304 0.0
  outer loop
   vertex -0.02738188362121582 0.02915874481201172 0.03
   vertex -0.02915874481201172 0.02738188362121582 -0.01
   vertex -0.02915874481201172 0.02738188362121582 0.03
  endloop
 endfacet
 facet normal -0.7071067690849304 0.7071067690849304 0.0
  outer loop
   vertex -0.02738188362121582 0.02915874481201172 -0.01
   vertex -0.02915874481201172 0.02738188362121582 -0.01
   vertex -0.02738188362121582 0.02915874481201172 0.03
  endloop
 endfacet
 facet normal -0.7501108646392822 0.6613121032714844 0.0
  outer loop
   vertex -0.02915874481201172 0.02738188362121582 0.03
   vertex -0.030820529937744142 0.025496959686279297 -0.01
   vertex -0.030820529937744142 0.025496959686279297 0.03
  endloop
 endfacet
 facet normal -0.7501108646392822 0.6613121032714844 0.0
  outer loop
   vertex -0.02915874481201172 0.02738188362121582 -0.01
   vertex -0.030820529937744142 0.025496959686279297 -0.01
   vertex -0.02915874481201172 0.02738188362121582 0.03
  endloop
 endfacet
 facet normal -0.7901551127433777 0.6129068732261658 0.0
  outer loop
   vertex -0.030820529937744142 0.025496959686279297 0.03
   vertex -0.03236067962646484 0.023511409759521484 -0.01
   vertex -0.03236067962646484 0.023511409759521484 0.03
  endloop
 endfacet
 facet normal -0.7901551127433777 0.6129068732261658 0.0
  outer loop
   vertex -0.030820529937744142 0.025496959686279297 -0.01
   vertex -0.03236067962646484 0.023511409759521484 -0.01
   vertex -0.030820529937744142 0.025496959686279297 0.03
  endloop
 endfacet
 facet normal -0.8270805478096008 0.56208336353302 0.0
  outer loop
   vertex -0.03236067962646484 0.023511409759521484 0.03
   vertex -0.03377311706542969 0.02143307113647461 -0.01
   vertex -0.03377311706542969 0.02143307113647461 0.03
  endloop
 endfacet
 facet normal -0.8270805478096008 0.56208336353302 0.0
  outer loop
   vertex -0.03236067962646484 0.023511409759521484 -0.01
   vertex -0.03377311706542969 0.02143307113647461 -0.01
   vertex -0.03236067962646484 0.023511409759521484 0.03
  endloop
 endfacet
 facet normal -0.8607416152954102 0.5090421438217163 0.0
  outer loop
   vertex -0.03377311706542969 0.02143307113647461 0.03
   vertex -0.035052268981933594 0.0192701473236084 -0.01
   vertex -0.035052268981933594 0.0192701473236084 0.03
  endloop
 endfacet
 facet normal -0.8607416152954102 0.5090421438217163 0.0
  outer loop
   vertex -0.03377311706542969 0.02143307113647461 -0.01
   vertex -0.035052268981933594 0.0192701473236084 -0.01
   vertex -0.03377311706542969 0.02143307113647461 0.03
  endloop
 endfacet
 facet normal -0.8910070061683655 0.45398953557014465 0.0
  outer loop
   vertex -0.035052268981933594 0.0192701473236084 0.03
   vertex -0.03619308090209961 0.017031171798706054 -0.01
   vertex -0.03619308090209961 0.017031171798706054 0.03
  endloop
 endfacet
 facet normal -0.8910070061683655 0.45398953557014465 0.0
  outer loop
   vertex -0.035052268981933594 0.0192701473236084 -0.01
   vertex -0.03619308090209961 0.017031171798706054 -0.01
   vertex -0.035052268981933594 0.0192701473236084 0.03
  endloop
 endfacet
 facet normal -0.9177544713020325 0.3971481919288635 0.0
  outer loop
   vertex -0.03619308090209961 0.017031171798706054 0.03
   vertex -0.03719105911254883 0.014724982261657716 -0.01
   vertex -0.03719105911254883 0.014724982261657716 0.03
  endloop
 endfacet
 facet normal -0.9177544713020325 0.3971481919288635 0.0
  outer loop
   vertex -0.03619308090209961 0.017031171798706054 -0.01
   vertex -0.03719105911254883 0.014724982261657716 -0.01
   vertex -0.03619308090209961 0.017031171798706054 0.03
  endloop
 endfacet
 facet normal -0.9408808946609497 0.33873748779296875 0.0
  outer loop
   vertex -0.03719105911254883 0.014724982261657716 0.03
   vertex -0.0380422592163086 0.012360679626464845 -0.01
   vertex -0.0380422592163086 0.012360679626464845 0.03
  endloop
 endfacet
 facet normal -0.9408808946609497 0.33873748779296875 0.0
  outer loop
   vertex -0.03719105911254883 0.014724982261657716 -0.01
   vertex -0.0380422592163086 0.012360679626464845 -0.01
   vertex -0.03719105911254883 0.014724982261657716 0.03
  endloop
 endfacet
 facet normal -0.9602933526039124 0.27899226546287537 0.0
  outer loop
   vertex -0.0380422592163086 0.012360679626464845 0.03
   vertex -0.03874332809448242 0.009947595596313476 -0.01
   vertex -0.03874332809448242 0.009947595596313476 0.03
  endloop
 endfacet
 facet normal -0.9602933526039124 0.27899226546287537 0.0
  outer loop
   vertex -0.0380422592163086 0.012360679626464845 -0.01
   vertex -0.03874332809448242 0.009947595596313476 -0.01
   vertex -0.0380422592163086 0.012360679626464845 0.03
  endloop
 endfacet
 facet normal -0.9759170413017273 0.2181420922279358 0.0
  outer loop
   vertex -0.03874332809448242 0.009947595596313476 0.03
   vertex -0.03929148864746094 0.00749525260925293 -0.01
   vertex -0.03929148864746094 0.00749525260925293 0.03
  endloop
 endfacet
 facet normal -0.9759170413017273 0.2181420922279358 0.0
  outer loop
   vertex -0.03874332809448242 0.009947595596313476 -0.01
   vertex -0.03929148864746094 0.00749525260925293 -0.01
   vertex -0.03874332809448242 0.009947595596313476 0.03
  endloop
 endfacet
 facet normal -0.9876882433891296 0.1564355343580246 0.0
  outer loop
   vertex -0.03929148864746094 0.00749525260925293 0.03
   vertex -0.039684589385986326 0.00501332950592041 -0.01
   vertex -0.039684589385986326 0.00501332950592041 0.03
  endloop
 endfacet
 facet normal -0.9876882433891296 0.1564355343580246 0.0
  outer loop
   vertex -0.03929148864746094 0.00749525260925293 -0.01
   vertex -0.039684589385986326 0.00501332950592041 -0.01
   vertex -0.03929148864746094 0.00749525260925293 0.03
  endloop
 endfacet
 facet normal -0.9955620169639587 0.09410815685987473 0.0
  outer loop
   vertex -0.039684589385986326 0.00501332950592041 0.03
   vertex -0.03992107009887695 0.0025116207599639893 -0.01
   vertex -0.03992107009887695 0.0025116207599639893 0.03
  endloop
 endfacet
 facet normal -0.9955620169639587 0.09410815685987473 0.0
  outer loop
   vertex -0.039684589385986326 0.00501332950592041 -0.01
   vertex -0.03992107009887695 0.0025116207599639893 -0.01
   vertex -0.039684589385986326 0.00501332950592041 0.03
  endloop
 endfacet
 facet normal -0.9995065331459045 0.031410377472639084 0.0
  outer loop
   vertex -0.03992107009887695 0.0025116207599639893 -0.01
   vertex -0.04 -1.0168282231839965e-16 -0.01
   vertex -0.03992107009887695 0.0025116207599639893 0.03
  endloop
 endfacet
 facet normal -0.9995065331459045 0.031410377472639084 0.0
  outer loop
   vertex -0.03992107009887695 0.0025116207599639893 0.03
   vertex -0.04 -1.0168282231839965e-16 -0.01
   vertex -0.04 -1.0168282231839965e-16 0.03
  endloop
 endfacet
 facet normal -0.9995065331459045 -0.031410377472639084 0.0
  outer loop
   vertex -0.04 -1.0168282231839965e-16 -0.01
   vertex -0.03992107009887695 -0.0025116207599639893 -0.01
   vertex -0.04 -1.0168282231839965e-16 0.03
  endloop
 endfacet
 facet normal -0.9995065331459045 -0.031410377472639084 0.0
  outer loop
   vertex -0.04 -1.0168282231839965e-16 0.03
   vertex -0.03992107009887695 -0.0025116207599639893 -0.01
   vertex -0.03992107009887695 -0.0025116207599639893 0.03
  endloop
 endfacet
 facet normal -0.9955620169639587 -0.09410815685987473 0.0
  outer loop
   vertex -0.03992107009887695 -0.0025116207599639893 -0.01
   vertex -0.039684589385986326 -0.00501332950592041 -0.01
   vertex -0.03992107009887695 -0.0025116207599639893 0.03
  endloop
 endfacet
 facet normal -0.9955620169639587 -0.09410815685987473 0.0
  outer loop
   vertex -0.03992107009887695 -0.0025116207599639893 0.03
   vertex -0.039684589385986326 -0.00501332950592041 -0.01
   vertex -0.039684589385986326 -0.00501332950592041 0.03
  endloop
 endfacet
 facet normal -0.9876882433891296 -0.1564355343580246 0.0
  outer loop
   vertex -0.039684589385986326 -0.00501332950592041 -0.01
   vertex -0.03929148864746094 -0.00749525260925293 -0.01
   vertex -0.039684589385986326 -0.00501332950592041 0.03
  endloop
 endfacet
 facet normal -0.9876882433891296 -0.1564355343580246 0.0
  outer loop
   vertex -0.039684589385986326 -0.00501332950592041 0.03
   vertex -0.03929148864746094 -0.00749525260925293 -0.01
   vertex -0.03929148864746094 -0.00749525260925293 0.03
  endloop
 endfacet
 facet normal -0.9759170413017273 -0.2181420922279358 0.0
  outer loop
   vertex -0.03929148864746094 -0.00749525260925293 -0.01
   vertex -0.03874332809448242 -0.009947595596313476 -0.01
   vertex -0.03929148864746094 -0.00749525260925293 0.03
  endloop
 endfacet
 facet normal -0.9759170413017273 -0.2181420922279358 0.0
  outer loop
   vertex -0.03929148864746094 -0.00749525260925293 0.03
   vertex -0.03874332809448242 -0.009947595596313476 -0.01
   vertex -0.03874332809448242 -0.009947595596313476 0.03
  endloop
 endfacet
 facet normal -0.9602933526039124 -0.27899226546287537 -0.0
  outer loop
   vertex -0.03874332809448242 -0.009947595596313476 0.03
   vertex -0.03874332809448242 -0.009947595596313476 -0.01
   vertex -0.0380422592163086 -0.012360679626464845 0.03
  endloop
 endfacet
 facet normal -0.9602933526039124 -0.27899226546287537 0.0
  outer loop
   vertex -0.03874332809448242 -0.009947595596313476 -0.01
   vertex -0.0380422592163086 -0.012360679626464845 -0.01
   vertex -0.0380422592163086 -0.012360679626464845 0.03
  endloop
 endfacet
 facet normal -0.9408808946609497 -0.33873748779296875 -0.0
  outer loop
   vertex -0.0380422592163086 -0.012360679626464845 0.03
   vertex -0.0380422592163086 -0.012360679626464845 -0.01
   vertex -0.03719105911254883 -0.014724982261657716 0.03
  endloop
 endfacet
 facet normal -0.9408808946609497 -0.33873748779296875 0.0
  outer loop
   vertex -0.0380422592163086 -0.012360679626464845 -0.01
   vertex -0.03719105911254883 -0.014724982261657716 -0.01
   vertex -0.03719105911254883 -0.014724982261657716 0.03
  endloop
 endfacet
 facet normal -0.9177544713020325 -0.3971481919288635 0.0
  outer loop
   vertex -0.03719105911254883 -0.014724982261657716 -0.01
   vertex -0.03619308090209961 -0.017031171798706054 -0.01
   vertex -0.03719105911254883 -0.014724982261657716 0.03
  endloop
 endfacet
 facet normal -0.9177544713020325 -0.3971481919288635 0.0
  outer loop
   vertex -0.03719105911254883 -0.014724982261657716 0.03
   vertex -0.03619308090209961 -0.017031171798706054 -0.01
   vertex -0.03619308090209961 -0.017031171798706054 0.03
  endloop
 endfacet
 facet normal -0.8910070061683655 -0.45398953557014465 -0.0
  outer loop
   vertex -0.03619308090209961 -0.017031171798706054 0.03
   vertex -0.03619308090209961 -0.017031171798706054 -0.01
   vertex -0.035052268981933594 -0.0192701473236084 0.03
  endloop
 endfacet
 facet normal -0.8910070061683655 -0.45398953557014465 0.0
  outer loop
   vertex -0.03619308090209961 -0.017031171798706054 -0.01
   vertex -0.035052268981933594 -0.0192701473236084 -0.01
   vertex -0.035052268981933594 -0.0192701473236084 0.03
  endloop
 endfacet
 facet normal -0.8607416152954102 -0.5090421438217163 0.0
  outer loop
   vertex -0.035052268981933594 -0.0192701473236084 -0.01
   vertex -0.03377311706542969 -0.02143307113647461 -0.01
   vertex -0.035052268981933594 -0.0192701473236084 0.03
  endloop
 endfacet
 facet normal -0.8607416152954102 -0.5090421438217163 0.0
  outer loop
   vertex -0.035052268981933594 -0.0192701473236084 0.03
   vertex -0.03377311706542969 -0.02143307113647461 -0.01
   vertex -0.03377311706542969 -0.02143307113647461 0.03
  endloop
 endfacet
 facet normal -0.8270805478096008 -0.56208336353302 0.0
  outer loop
   vertex -0.03377311706542969 -0.02143307113647461 -0.01
   vertex -0.03236067962646484 -0.023511409759521484 -0.01
   vertex -0.03377311706542969 -0.02143307113647461 0.03
  endloop
 endfacet
 facet normal -0.8270805478096008 -0.56208336353302 0.0
  outer loop
   vertex -0.03377311706542969 -0.02143307113647461 0.03
   vertex -0.03236067962646484 -0.023511409759521484 -0.01
   vertex -0.03236067962646484 -0.023511409759521484 0.03
  endloop
 endfacet
 facet normal -0.7901551127433777 -0.6129068732261658 0.0
  outer loop
   vertex -0.03236067962646484 -0.023511409759521484 -0.01
   vertex -0.030820529937744142 -0.025496959686279297 -0.01
   vertex -0.03236067962646484 -0.023511409759521484 0.03
  endloop
 endfacet
 facet normal -0.7901551127433777 -0.6129068732261658 0.0
  outer loop
   vertex -0.03236067962646484 -0.023511409759521484 0.03
   vertex -0.030820529937744142 -0.025496959686279297 -0.01
   vertex -0.030820529937744142 -0.025496959686279297 0.03
  endloop
 endfacet
 facet normal -0.7501108646392822 -0.6613121032714844 0.0
  outer loop
   vertex -0.030820529937744142 -0.025496959686279297 -0.01
   vertex -0.02915874481201172 -0.02738188362121582 -0.01
   vertex -0.030820529937744142 -0.025496959686279297 0.03
  endloop
 endfacet
 facet normal -0.7501108646392822 -0.6613121032714844 0.0
  outer loop
   vertex -0.030820529937744142 -0.025496959686279297 0.03
   vertex -0.02915874481201172 -0.02738188362121582 -0.01
   vertex -0.02915874481201172 -0.02738188362121582 0.03
  endloop
 endfacet
 facet normal -0.7071067690849304 -0.7071067690849304 -0.0
  outer loop
   vertex -0.02915874481201172 -0.02738188362121582 0.03
   vertex -0.02915874481201172 -0.02738188362121582 -0.01
   vertex -0.02738188362121582 -0.02915874481201172 0.03
  endloop
 endfacet
 facet normal -0.7071067690849304 -0.7071067690849304 0.0
  outer loop
   vertex -0.02915874481201172 -0.02738188362121582 -0.01
   vertex -0.02738188362121582 -0.02915874481201172 -0.01
   vertex -0.02738188362121582 -0.02915874481201172 0.03
  endloop
 endfacet
 facet normal -0.6613121032714844 -0.7501108646392822 -0.0
  outer loop
   vertex -0.02738188362121582 -0.02915874481201172 0.03
   vertex -0.02738188362121582 -0.02915874481201172 -0.01
   vertex -0.025496959686279297 -0.030820529937744142 0.03
  endloop
 endfacet
 facet normal -0.6613121032714844 -0.7501108646392822 0.0
  outer loop
   vertex -0.02738188362121582 -0.02915874481201172 -0.01
   vertex -0.025496959686279297 -0.030820529937744142 -0.01
   vertex -0.025496959686279297 -0.030820529937744142 0.03
  endloop
 endfacet
 facet normal -0.6129068732261658 -0.7901551127433777 0.0
  outer loop
   vertex -0.025496959686279297 -0.030820529937744142 -0.01
   vertex -0.023511409759521484 -0.03236067962646484 -0.01
   vertex -0.025496959686279297 -0.030820529937744142 0.03
  endloop
 endfacet
 facet normal -0.6129068732261658 -0.7901551127433777 0.0
  outer loop
   vertex -0.025496959686279297 -0.030820529937744142 0.03
   vertex -0.023511409759521484 -0.03236067962646484 -0.01
   vertex -0.023511409759521484 -0.03236067962646484 0.03
  endloop
 endfacet
 facet normal -0.56208336353302 -0.8270805478096008 0.0
  outer loop
   vertex -0.023511409759521484 -0.03236067962646484 0.03
   vertex -0.02143307113647461 -0.03377311706542969 -0.01
   vertex -0.02143307113647461 -0.03377311706542969 0.03
  endloop
 endfacet
 facet normal -0.56208336353302 -0.8270805478096008 0.0
  outer loop
   vertex -0.023511409759521484 -0.03236067962646484 -0.01
   vertex -0.02143307113647461 -0.03377311706542969 -0.01
   vertex -0.023511409759521484 -0.03236067962646484 0.03
  endloop
 endfacet
 facet normal -0.5090421438217163 -0.8607416152954102 -0.0
  outer loop
   vertex -0.02143307113647461 -0.03377311706542969 0.03
   vertex -0.02143307113647461 -0.03377311706542969 -0.01
   vertex -0.0192701473236084 -0.035052268981933594 0.03
  endloop
 endfacet
 facet normal -0.5090421438217163 -0.8607416152954102 0.0
  outer loop
   vertex -0.02143307113647461 -0.03377311706542969 -0.01
   vertex -0.0192701473236084 -0.035052268981933594 -0.01
   vertex -0.0192701473236084 -0.035052268981933594 0.03
  endloop
 endfacet
 facet normal -0.45398953557014465 -0.8910070061683655 0.0
  outer loop
   vertex -0.0192701473236084 -0.035052268981933594 0.03
   vertex -0.017031171798706054 -0.03619308090209961 -0.01
   vertex -0.017031171798706054 -0.03619308090209961 0.03
  endloop
 endfacet
 facet normal -0.45398953557014465 -0.8910070061683655 0.0
  outer loop
   vertex -0.0192701473236084 -0.035052268981933594 -0.01
   vertex -0.017031171798706054 -0.03619308090209961 -0.01
   vertex -0.0192701473236084 -0.035052268981933594 0.03
  endloop
 endfacet
 facet normal -0.3971481919288635 -0.9177544713020325 0.0
  outer loop
   vertex -0.017031171798706054 -0.03619308090209961 0.03
   vertex -0.014724982261657716 -0.03719105911254883 -0.01
   vertex -0.014724982261657716 -0.03719105911254883 0.03
  endloop
 endfacet
 facet normal -0.3971481919288635 -0.9177544713020325 0.0
  outer loop
   vertex -0.017031171798706054 -0.03619308090209961 -0.01
   vertex -0.014724982261657716 -0.03719105911254883 -0.01
   vertex -0.017031171798706054 -0.03619308090209961 0.03
  endloop
 endfacet
 facet normal -0.33873748779296875 -0.9408808946609497 0.0
  outer loop
   vertex -0.014724982261657716 -0.03719105911254883 0.03
   vertex -0.012360679626464845 -0.0380422592163086 -0.01
   vertex -0.012360679626464845 -0.0380422592163086 0.03
  endloop
 endfacet
 facet normal -0.27899226546287537 -0.9602933526039124 -0.0
  outer loop
   vertex -0.012360679626464845 -0.0380422592163086 0.03
   vertex -0.012360679626464845 -0.0380422592163086 -0.01
   vertex -0.009947595596313476 -0.03874332809448242 0.03
  endloop
 endfacet
 facet normal -0.33873748779296875 -0.9408808946609497 0.0
  outer loop
   vertex -0.014724982261657716 -0.03719105911254883 -0.01
   vertex -0.012360679626464845 -0.0380422592163086 -0.01
   vertex -0.014724982261657716 -0.03719105911254883 0.03
  endloop
 endfacet
 facet normal -0.27899226546287537 -0.9602933526039124 0.0
  outer loop
   vertex -0.012360679626464845 -0.0380422592163086 -0.01
   vertex -0.009947595596313476 -0.03874332809448242 -0.01
   vertex -0.009947595596313476 -0.03874332809448242 0.03
  endloop
 endfacet
 facet normal -0.2181420922279358 -0.9759170413017273 0.0
  outer loop
   vertex -0.009947595596313476 -0.03874332809448242 0.03
   vertex -0.00749525260925293 -0.03929148864746094 -0.01
   vertex -0.00749525260925293 -0.03929148864746094 0.03
  endloop
 endfacet
 facet normal -0.1564355343580246 -0.9876882433891296 -0.0
  outer loop
   vertex -0.00749525260925293 -0.03929148864746094 0.03
   vertex -0.00749525260925293 -0.03929148864746094 -0.01
   vertex -0.00501332950592041 -0.039684589385986326 0.03
  endloop
 endfacet
 facet normal -0.2181420922279358 -0.9759170413017273 0.0
  outer loop
   vertex -0.009947595596313476 -0.03874332809448242 -0.01
   vertex -0.00749525260925293 -0.03929148864746094 -0.01
   vertex -0.009947595596313476 -0.03874332809448242 0.03
  endloop
 endfacet
 facet normal -0.1564355343580246 -0.9876882433891296 0.0
  outer loop
   vertex -0.00749525260925293 -0.03929148864746094 -0.01
   vertex -0.00501332950592041 -0.039684589385986326 -0.01
   vertex -0.00501332950592041 -0.039684589385986326 0.03
  endloop
 endfacet
 facet normal -0.09410815685987473 -0.9955620169639587 0.0
  outer loop
   vertex -0.00501332950592041 -0.039684589385986326 0.03
   vertex -0.0025116207599639893 -0.03992107009887695 -0.01
   vertex -0.0025116207599639893 -0.03992107009887695 0.03
  endloop
 endfacet
 facet normal -0.031410377472639084 -0.9995065331459045 -0.0
  outer loop
   vertex -0.0025116207599639893 -0.03992107009887695 0.03
   vertex -0.0025116207599639893 -0.03992107009887695 -0.01
   vertex -7.347880374357178e-18 -0.04 0.03
  endloop
 endfacet
 facet normal -0.09410815685987473 -0.9955620169639587 0.0
  outer loop
   vertex -0.00501332950592041 -0.039684589385986326 -0.01
   vertex -0.0025116207599639893 -0.03992107009887695 -0.01
   vertex -0.00501332950592041 -0.039684589385986326 0.03
  endloop
 endfacet
 facet normal -0.031410377472639084 -0.9995065331459045 0.0
  outer loop
   vertex -0.0025116207599639893 -0.03992107009887695 -0.01
   vertex -7.347880374357178e-18 -0.04 -0.01
   vertex -7.347880374357178e-18 -0.04 0.03
  endloop
 endfacet
 facet normal 0.031410377472639084 -0.9995065331459045 0.0
  outer loop
   vertex -7.347880374357178e-18 -0.04 -0.01
   vertex 0.0025116207599639893 -0.03992107009887695 -0.01
   vertex -7.347880374357178e-18 -0.04 0.03
  endloop
 endfacet
 facet normal 0.031410377472639084 -0.9995065331459045 0.0
  outer loop
   vertex -7.347880374357178e-18 -0.04 0.03
   vertex 0.0025116207599639893 -0.03992107009887695 -0.01
   vertex 0.0025116207599639893 -0.03992107009887695 0.03
  endloop
 endfacet
 facet normal 0.09410815685987473 -0.9955620169639587 0.0
  outer loop
   vertex 0.0025116207599639893 -0.03992107009887695 -0.01
   vertex 0.00501332950592041 -0.039684589385986326 -0.01
   vertex 0.0025116207599639893 -0.03992107009887695 0.03
  endloop
 endfacet
 facet normal 0.09410815685987473 -0.9955620169639587 0.0
  outer loop
   vertex 0.0025116207599639893 -0.03992107009887695 0.03
   vertex 0.00501332950592041 -0.039684589385986326 -0.01
   vertex 0.00501332950592041 -0.039684589385986326 0.03
  endloop
 endfacet
 facet normal 0.1564355343580246 -0.9876882433891296 0.0
  outer loop
   vertex 0.00501332950592041 -0.039684589385986326 0.03
   vertex 0.00501332950592041 -0.039684589385986326 -0.01
   vertex 0.00749525260925293 -0.03929148864746094 0.03
  endloop
 endfacet
 facet normal 0.1564355343580246 -0.9876882433891296 0.0
  outer loop
   vertex 0.00501332950592041 -0.039684589385986326 -0.01
   vertex 0.00749525260925293 -0.03929148864746094 -0.01
   vertex 0.00749525260925293 -0.03929148864746094 0.03
  endloop
 endfacet
 facet normal 0.2181420922279358 -0.9759170413017273 0.0
  outer loop
   vertex 0.00749525260925293 -0.03929148864746094 -0.01
   vertex 0.009947595596313476 -0.03874332809448242 -0.01
   vertex 0.00749525260925293 -0.03929148864746094 0.03
  endloop
 endfacet
 facet normal 0.2181420922279358 -0.9759170413017273 0.0
  outer loop
   vertex 0.00749525260925293 -0.03929148864746094 0.03
   vertex 0.009947595596313476 -0.03874332809448242 -0.01
   vertex 0.009947595596313476 -0.03874332809448242 0.03
  endloop
 endfacet
 facet normal 0.27899226546287537 -0.9602933526039124 0.0
  outer loop
   vertex 0.009947595596313476 -0.03874332809448242 -0.01
   vertex 0.012360679626464845 -0.0380422592163086 -0.01
   vertex 0.009947595596313476 -0.03874332809448242 0.03
  endloop
 endfacet
 facet normal 0.27899226546287537 -0.9602933526039124 0.0
  outer loop
   vertex 0.009947595596313476 -0.03874332809448242 0.03
   vertex 0.012360679626464845 -0.0380422592163086 -0.01
   vertex 0.012360679626464845 -0.0380422592163086 0.03
  endloop
 endfacet
 facet normal 0.33873748779296875 -0.9408808946609497 0.0
  outer loop
   vertex 0.012360679626464845 -0.0380422592163086 -0.01
   vertex 0.014724982261657716 -0.03719105911254883 -0.01
   vertex 0.012360679626464845 -0.0380422592163086 0.03
  endloop
 endfacet
 facet normal 0.33873748779296875 -0.9408808946609497 0.0
  outer loop
   vertex 0.012360679626464845 -0.0380422592163086 0.03
   vertex 0.014724982261657716 -0.03719105911254883 -0.01
   vertex 0.014724982261657716 -0.03719105911254883 0.03
  endloop
 endfacet
 facet normal 0.3971481919288635 -0.9177544713020325 0.0
  outer loop
   vertex 0.014724982261657716 -0.03719105911254883 -0.01
   vertex 0.017031171798706054 -0.03619308090209961 -0.01
   vertex 0.014724982261657716 -0.03719105911254883 0.03
  endloop
 endfacet
 facet normal 0.3971481919288635 -0.9177544713020325 0.0
  outer loop
   vertex 0.014724982261657716 -0.03719105911254883 0.03
   vertex 0.017031171798706054 -0.03619308090209961 -0.01
   vertex 0.017031171798706054 -0.03619308090209961 0.03
  endloop
 endfacet
 facet normal 0.45398953557014465 -0.8910070061683655 0.0
  outer loop
   vertex 0.017031171798706054 -0.03619308090209961 -0.01
   vertex 0.0192701473236084 -0.035052268981933594 -0.01
   vertex 0.017031171798706054 -0.03619308090209961 0.03
  endloop
 endfacet
 facet normal 0.45398953557014465 -0.8910070061683655 0.0
  outer loop
   vertex 0.017031171798706054 -0.03619308090209961 0.03
   vertex 0.0192701473236084 -0.035052268981933594 -0.01
   vertex 0.0192701473236084 -0.035052268981933594 0.03
  endloop
 endfacet
 facet normal 0.5090421438217163 -0.8607416152954102 0.0
  outer loop
   vertex 0.0192701473236084 -0.035052268981933594 0.03
   vertex 0.0192701473236084 -0.035052268981933594 -0.01
   vertex 0.02143307113647461 -0.03377311706542969 0.03
  endloop
 endfacet
 facet normal 0.5090421438217163 -0.8607416152954102 0.0
  outer loop
   vertex 0.0192701473236084 -0.035052268981933594 -0.01
   vertex 0.02143307113647461 -0.03377311706542969 -0.01
   vertex 0.02143307113647461 -0.03377311706542969 0.03
  endloop
 endfacet
 facet normal 0.56208336353302 -0.8270805478096008 0.0
  outer loop
   vertex 0.02143307113647461 -0.03377311706542969 -0.01
   vertex 0.023511409759521484 -0.03236067962646484 -0.01
   vertex 0.02143307113647461 -0.03377311706542969 0.03
  endloop
 endfacet
 facet normal 0.56208336353302 -0.8270805478096008 0.0
  outer loop
   vertex 0.02143307113647461 -0.03377311706542969 0.03
   vertex 0.023511409759521484 -0.03236067962646484 -0.01
   vertex 0.023511409759521484 -0.03236067962646484 0.03
  endloop
 endfacet
 facet normal 0.6129068732261658 -0.7901551127433777 0.0
  outer loop
   vertex 0.023511409759521484 -0.03236067962646484 -0.01
   vertex 0.025496959686279297 -0.030820529937744142 -0.01
   vertex 0.023511409759521484 -0.03236067962646484 0.03
  endloop
 endfacet
 facet normal 0.6129068732261658 -0.7901551127433777 0.0
  outer loop
   vertex 0.023511409759521484 -0.03236067962646484 0.03
   vertex 0.025496959686279297 -0.030820529937744142 -0.01
   vertex 0.025496959686279297 -0.030820529937744142 0.03
  endloop
 endfacet
 facet normal 0.6613121032714844 -0.7501108646392822 0.0
  outer loop
   vertex 0.025496959686279297 -0.030820529937744142 -0.01
   vertex 0.02738188362121582 -0.02915874481201172 -0.01
   vertex 0.025496959686279297 -0.030820529937744142 0.03
  endloop
 endfacet
 facet normal 0.6613121032714844 -0.7501108646392822 0.0
  outer loop
   vertex 0.025496959686279297 -0.030820529937744142 0.03
   vertex 0.02738188362121582 -0.02915874481201172 -0.01
   vertex 0.02738188362121582 -0.02915874481201172 0.03
  endloop
 endfacet
 facet normal 0.7071067690849304 -0.7071067690849304 0.0
  outer loop
   vertex 0.02738188362121582 -0.02915874481201172 -0.01
   vertex 0.02915874481201172 -0.02738188362121582 -0.01
   vertex 0.02738188362121582 -0.02915874481201172 0.03
  endloop
 endfacet
 facet normal 0.7071067690849304 -0.7071067690849304 0.0
  outer loop
   vertex 0.02738188362121582 -0.02915874481201172 0.03
   vertex 0.02915874481201172 -0.02738188362121582 -0.01
   vertex 0.02915874481201172 -0.02738188362121582 0.03
  endloop
 endfacet
 facet normal 0.7501108646392822 -0.6613121032714844 0.0
  outer loop
   vertex 0.02915874481201172 -0.02738188362121582 -0.01
   vertex 0.030820529937744142 -0.025496959686279297 -0.01
   vertex 0.02915874481201172 -0.02738188362121582 0.03
  endloop
 endfacet
 facet normal 0.7501108646392822 -0.6613121032714844 0.0
  outer loop
   vertex 0.02915874481201172 -0.02738188362121582 0.03
   vertex 0.030820529937744142 -0.025496959686279297 -0.01
   vertex 0.030820529937744142 -0.025496959686279297 0.03
  endloop
 endfacet
 facet normal 0.7901551127433777 -0.6129068732261658 0.0
  outer loop
   vertex 0.030820529937744142 -0.025496959686279297 -0.01
   vertex 0.03236067962646484 -0.023511409759521484 -0.01
   vertex 0.030820529937744142 -0.025496959686279297 0.03
  endloop
 endfacet
 facet normal 0.7901551127433777 -0.6129068732261658 0.0
  outer loop
   vertex 0.030820529937744142 -0.025496959686279297 0.03
   vertex 0.03236067962646484 -0.023511409759521484 -0.01
   vertex 0.03236067962646484 -0.023511409759521484 0.03
  endloop
 endfacet
 facet normal 0.8270805478096008 -0.56208336353302 0.0
  outer loop
   vertex 0.03236067962646484 -0.023511409759521484 -0.01
   vertex 0.03377311706542969 -0.02143307113647461 -0.01
   vertex 0.03236067962646484 -0.023511409759521484 0.03
  endloop
 endfacet
 facet normal 0.8270805478096008 -0.56208336353302 0.0
  outer loop
   vertex 0.03236067962646484 -0.023511409759521484 0.03
   vertex 0.03377311706542969 -0.02143307113647461 -0.01
   vertex 0.03377311706542969 -0.02143307113647461 0.03
  endloop
 endfacet
 facet normal 0.8607416152954102 -0.5090421438217163 0.0
  outer loop
   vertex 0.03377311706542969 -0.02143307113647461 -0.01
   vertex 0.035052268981933594 -0.0192701473236084 -0.01
   vertex 0.03377311706542969 -0.02143307113647461 0.03
  endloop
 endfacet
 facet normal 0.8607416152954102 -0.5090421438217163 0.0
  outer loop
   vertex 0.03377311706542969 -0.02143307113647461 0.03
   vertex 0.035052268981933594 -0.0192701473236084 -0.01
   vertex 0.035052268981933594 -0.0192701473236084 0.03
  endloop
 endfacet
 facet normal 0.8910070061683655 -0.45398953557014465 0.0
  outer loop
   vertex 0.035052268981933594 -0.0192701473236084 -0.01
   vertex 0.03619308090209961 -0.017031171798706054 -0.01
   vertex 0.035052268981933594 -0.0192701473236084 0.03
  endloop
 endfacet
 facet normal 0.8910070061683655 -0.45398953557014465 0.0
  outer loop
   vertex 0.035052268981933594 -0.0192701473236084 0.03
   vertex 0.03619308090209961 -0.017031171798706054 -0.01
   vertex 0.03619308090209961 -0.017031171798706054 0.03
  endloop
 endfacet
 facet normal 0.9177544713020325 -0.3971481919288635 0.0
  outer loop
   vertex 0.03619308090209961 -0.017031171798706054 0.03
   vertex 0.03619308090209961 -0.017031171798706054 -0.01
   vertex 0.03719105911254883 -0.014724982261657716 0.03
  endloop
 endfacet
 facet normal 0.9177544713020325 -0.3971481919288635 0.0
  outer loop
   vertex 0.03619308090209961 -0.017031171798706054 -0.01
   vertex 0.03719105911254883 -0.014724982261657716 -0.01
   vertex 0.03719105911254883 -0.014724982261657716 0.03
  endloop
 endfacet
 facet normal 0.9408808946609497 -0.33873748779296875 0.0
  outer loop
   vertex 0.03719105911254883 -0.014724982261657716 -0.01
   vertex 0.0380422592163086 -0.012360679626464845 -0.01
   vertex 0.03719105911254883 -0.014724982261657716 0.03
  endloop
 endfacet
 facet normal 0.9408808946609497 -0.33873748779296875 0.0
  outer loop
   vertex 0.03719105911254883 -0.014724982261657716 0.03
   vertex 0.0380422592163086 -0.012360679626464845 -0.01
   vertex 0.0380422592163086 -0.012360679626464845 0.03
  endloop
 endfacet
 facet normal 0.9602933526039124 -0.27899226546287537 0.0
  outer loop
   vertex 0.0380422592163086 -0.012360679626464845 -0.01
   vertex 0.03874332809448242 -0.009947595596313476 -0.01
   vertex 0.0380422592163086 -0.012360679626464845 0.03
  endloop
 endfacet
 facet normal 0.9602933526039124 -0.27899226546287537 0.0
  outer loop
   vertex 0.0380422592163086 -0.012360679626464845 0.03
   vertex 0.03874332809448242 -0.009947595596313476 -0.01
   vertex 0.03874332809448242 -0.009947595596313476 0.03
  endloop
 endfacet
 facet normal 0.9759170413017273 -0.2181420922279358 0.0
  outer loop
   vertex 0.03874332809448242 -0.009947595596313476 -0.01
   vertex 0.03929148864746094 -0.00749525260925293 -0.01
   vertex 0.03874332809448242 -0.009947595596313476 0.03
  endloop
 endfacet
 facet normal 0.9759170413017273 -0.2181420922279358 0.0
  outer loop
   vertex 0.03874332809448242 -0.009947595596313476 0.03
   vertex 0.03929148864746094 -0.00749525260925293 -0.01
   vertex 0.03929148864746094 -0.00749525260925293 0.03
  endloop
 endfacet
 facet normal 0.9876882433891296 -0.1564355343580246 0.0
  outer loop
   vertex 0.03929148864746094 -0.00749525260925293 -0.01
   vertex 0.039684589385986326 -0.00501332950592041 -0.01
   vertex 0.03929148864746094 -0.00749525260925293 0.03
  endloop
 endfacet
 facet normal 0.9876882433891296 -0.1564355343580246 0.0
  outer loop
   vertex 0.03929148864746094 -0.00749525260925293 0.03
   vertex 0.039684589385986326 -0.00501332950592041 -0.01
   vertex 0.039684589385986326 -0.00501332950592041 0.03
  endloop
 endfacet
 facet normal 0.9955620169639587 -0.09410815685987473 0.0
  outer loop
   vertex 0.039684589385986326 -0.00501332950592041 -0.01
   vertex 0.03992107009887695 -0.0025116207599639893 -0.01
   vertex 0.039684589385986326 -0.00501332950592041 0.03
  endloop
 endfacet
 facet normal 0.9955620169639587 -0.09410815685987473 0.0
  outer loop
   vertex 0.039684589385986326 -0.00501332950592041 0.03
   vertex 0.03992107009887695 -0.0025116207599639893 -0.01
   vertex 0.03992107009887695 -0.0025116207599639893 0.03
  endloop
 endfacet
 facet normal 0.9995065331459045 -0.031410377472639084 0.0
  outer loop
   vertex 0.03992107009887695 -0.0025116207599639893 0.03
   vertex 0.04 -9.797174397164869e-18 -0.01
   vertex 0.04 -9.797174397164869e-18 0.03
  endloop
 endfacet
 facet normal 0.9995065331459045 -0.031410377472639084 0.0
  outer loop
   vertex 0.03992107009887695 -0.0025116207599639893 -0.01
   vertex 0.04 -9.797174397164869e-18 -0.01
   vertex 0.03992107009887695 -0.0025116207599639893 0.03
  endloop
 endfacet
endsolid patch_3_0
