<?xml version="1.0" encoding="UTF-8" standalone="no"?>
<!-- Created with Inkscape (http://www.inkscape.org/) -->

<svg
   xmlns:dc="http://purl.org/dc/elements/1.1/"
   xmlns:cc="http://creativecommons.org/ns#"
   xmlns:rdf="http://www.w3.org/1999/02/22-rdf-syntax-ns#"
   xmlns:svg="http://www.w3.org/2000/svg"
   xmlns="http://www.w3.org/2000/svg"
   xmlns:sodipodi="http://sodipodi.sourceforge.net/DTD/sodipodi-0.dtd"
   xmlns:inkscape="http://www.inkscape.org/namespaces/inkscape"
   version="1.1"
   id="svg8087"
   width="128"
   height="128"
   viewBox="0 0 128 128"
   sodipodi:docname="physics.svg"
   inkscape:version="0.92.5 (2060ec1f9f, 2020-04-08)">
  <metadata
     id="metadata8093">
    <rdf:RDF>
      <cc:Work
         rdf:about="">
        <dc:format>image/svg+xml</dc:format>
        <dc:type
           rdf:resource="http://purl.org/dc/dcmitype/StillImage" />
        <dc:title></dc:title>
      </cc:Work>
    </rdf:RDF>
  </metadata>
  <defs
     id="defs8091" />
  <sodipodi:namedview
     pagecolor="#ffffff"
     bordercolor="#666666"
     borderopacity="1"
     objecttolerance="10"
     gridtolerance="10"
     guidetolerance="10"
     inkscape:pageopacity="0"
     inkscape:pageshadow="2"
     inkscape:window-width="1848"
     inkscape:window-height="1016"
     id="namedview8089"
     showgrid="false"
     inkscape:zoom="0.82886029"
     inkscape:cx="106.93677"
     inkscape:cy="401.16443"
     inkscape:window-x="72"
     inkscape:window-y="27"
     inkscape:window-maximized="1"
     inkscape:current-layer="layer2" />
  <g
     inkscape:groupmode="layer"
     id="layer2"
     inkscape:label="New"
     style="display:inline"
     transform="translate(0,-677.33331)">
    <path
       inkscape:connector-curvature="0"
       id="path8642"
       d="m 60.401915,804.81821 c -1.98886,-0.68403 -3.71395,-1.82781 -5.68296,-3.76795 -4.45088,-4.38564 -7.86697,-11.20718 -10.96602,-21.89789 -0.289,-0.99694 -0.58352,-1.81262 -0.65449,-1.81262 -0.071,0 -1.44443,0.32871 -3.05211,0.73048 -5.97474,1.49311 -10.11232,2.04487 -15.27123,2.03649 -6.57446,-0.0107 -11.09153,-1.31588 -14.16482,-4.09286 -6.98949,-6.31562 -3.75404,-17.94246 8.74377,-31.42141 1.59129,-1.71621 2.89325,-3.18781 2.89325,-3.27021 0,-0.0824 -1.30282,-1.54716 -2.89517,-3.25502 -12.47385,-13.37877 -15.73284,-25.08928 -8.74055,-31.40739 3.07381,-2.77744 7.72269,-4.11757 14.26089,-4.11096 5.01949,0.005 9.27494,0.5816 15.17386,2.05576 1.60768,0.40176 2.98113,0.73048 3.05211,0.73048 0.071,0 0.36549,-0.81568 0.65449,-1.81262 3.09905,-10.69071 6.51514,-17.51225 10.96602,-21.89789 3.09806,-3.05264 5.77697,-4.29129 9.28104,-4.29129 3.50408,0 6.18299,1.23865 9.28105,4.29129 4.45088,4.38564 7.86697,11.20718 10.96602,21.89789 0.28899,0.99694 0.58352,1.81262 0.65449,1.81262 0.071,0 1.44443,-0.32872 3.05211,-0.73048 5.97529,-1.49325 10.18796,-2.05659 15.298865,-2.04586 6.95462,0.0146 12.0093,1.63633 14.82936,4.7578 6.03262,6.67739 2.61031,17.83255 -9.43403,30.75065 -1.59234,1.70786 -2.89516,3.17262 -2.89516,3.25502 0,0.0824 1.30196,1.554 2.89325,3.27021 12.49781,13.47895 15.73326,25.10579 8.74377,31.42141 -3.07329,2.77698 -7.59036,4.08217 -14.16482,4.09286 -5.158915,0.008 -9.296495,-0.54338 -15.271235,-2.03649 -1.60768,-0.40177 -2.98113,-0.73048 -3.05211,-0.73048 -0.071,0 -0.3655,0.81568 -0.65449,1.81262 -3.09905,10.69071 -6.51514,17.51225 -10.96602,21.89789 -3.12387,3.07807 -5.78147,4.29729 -9.33566,4.28292 -1.40951,-0.006 -2.54076,-0.1701 -3.54347,-0.51497 z m 5.51124,-9.34963 c 4.37724,-1.2999 9.22149,-7.52661 12.66447,-16.27867 1.45321,-3.69408 1.52265,-3.36191 -0.87777,-4.19889 -2.8811,-1.00457 -7.01613,-2.68798 -10.63716,-4.3305 l -3.0627,-1.38926 -3.06269,1.38926 c -3.62103,1.64252 -7.75606,3.32593 -10.63716,4.3305 -2.40042,0.83698 -2.33098,0.50481 -0.87777,4.19889 3.38742,8.61085 8.03536,14.67651 12.40244,16.18547 1.60061,0.55306 2.47287,0.57295 4.08834,0.0932 z m -29.91343,-22.24657 c 3.23824,-0.38097 5.75294,-0.80334 5.94874,-0.99915 0.0622,-0.0622 -0.18086,-1.86783 -0.54007,-4.01258 -0.35922,-2.14476 -0.82997,-5.60895 -1.04612,-7.69821 -0.21616,-2.08926 -0.44681,-4.13617 -0.51258,-4.5487 -0.0969,-0.60762 -0.5307,-1.03489 -2.28479,-2.25014 -2.56367,-1.77614 -7.56749,-5.65792 -9.72566,-7.54482 l -1.53353,-1.34077 -1.23987,1.4426 c -4.12827,4.80328 -7.38402,10.34812 -8.55115,14.56342 -0.73007,2.63679 -0.70203,5.47514 0.0705,7.13048 2.08068,4.45865 9.38765,6.43753 19.41457,5.25787 z m 65.259225,0.1072 c 5.45082,-0.66972 8.78726,-2.43226 10.15589,-5.36507 0.4577,-0.98079 0.58389,-1.68201 0.58581,-3.25523 0.006,-4.97482 -3.04381,-11.20359 -8.96517,-18.30962 l -1.30289,-1.56357 -2.802755,2.33713 c -2.89846,2.41692 -7.11251,5.63921 -9.37082,7.16542 -1.47177,0.99465 -1.34247,0.57915 -1.92129,6.1738 -0.21615,2.08926 -0.68691,5.55345 -1.04612,7.69821 -0.35921,2.14475 -0.60102,3.95164 -0.53735,4.01531 0.17947,0.17946 2.80347,0.6348 5.69753,0.98869 3.32317,0.40635 6.79381,0.4483 9.507165,0.11493 z m -51.561305,-2.99966 c 2.36086,-0.68218 9.62697,-3.26969 9.48439,-3.37746 -0.0315,-0.0238 -1.91372,-1.06624 -4.18262,-2.31644 -2.26889,-1.2502 -5.58786,-3.16605 -7.37547,-4.25745 -1.78762,-1.0914 -3.28967,-1.94797 -3.33789,-1.9035 -0.32699,0.30154 2.24219,12.61465 2.6321,12.61465 0.0825,0 1.33326,-0.34191 2.77949,-0.7598 z m 31.79643,-0.21406 c 0.83047,-3.08414 2.42596,-11.45075 2.21987,-11.64079 -0.0482,-0.0445 -1.55028,0.81234 -3.33789,1.90403 -1.78762,1.09169 -4.7128,2.78342 -6.50042,3.75939 -1.78761,0.97597 -3.66813,2.01754 -4.17891,2.3146 l -0.92871,0.54012 3.17885,1.19157 c 3.14915,1.18044 8.39854,2.87149 8.98209,2.89351 0.16659,0.006 0.42089,-0.42681 0.56512,-0.96243 z m -12.8328,-7.51721 c 4.70375,-2.43428 9.27039,-5.11749 13.252,-7.78644 l 2.53729,-1.70078 0.21027,-2.94913 c 0.27079,-3.79787 0.27077,-13.85143 -4e-5,-17.64966 l -0.21031,-2.94979 -2.91548,-1.95324 c -3.90481,-2.61606 -8.96149,-5.55307 -13.6655,-7.93717 l -3.86951,-1.96116 -3.8695,1.96116 c -4.70402,2.3841 -9.76069,5.32111 -13.6655,7.93717 l -2.91548,1.95324 -0.21031,2.94979 c -0.27081,3.79823 -0.27083,13.85179 -4e-5,17.64966 l 0.21027,2.94913 2.53729,1.69526 c 5.40778,3.61314 16.83051,10.01568 17.8916,10.02839 0.19434,0.002 2.30167,-1.00406 4.68295,-2.23643 z m -6.28638,-6.53023 c -3.47301,-0.36792 -6.42362,-1.77288 -8.87813,-4.22739 -5.75626,-5.75626 -5.75626,-15.2502 0,-21.00646 5.75626,-5.75627 15.25021,-5.75627 21.00647,0 2.82747,2.82746 4.28343,6.39757 4.28343,10.50323 0,8.94951 -7.49351,15.67542 -16.41177,14.73062 z m -23.00148,-14.69022 v -8.71016 l -2.41989,1.98051 c -1.33094,1.08929 -3.52483,3.03955 -4.87532,4.33391 l -2.45542,2.35339 2.25014,2.16311 c 1.23758,1.18971 3.43147,3.15379 4.87532,4.36463 1.44384,1.21084 2.62517,2.20676 2.62517,2.21315 0,0.006 0,-3.90795 0,-8.69854 z m 56.50364,2.34668 2.50016,-2.38708 -2.50016,-2.38708 c -1.37509,-1.31289 -3.56898,-3.26359 -4.87532,-4.33488 l -2.37515,-1.9478 v 8.66976 8.66976 l 2.37515,-1.94781 c 1.30634,-1.07129 3.50023,-3.02199 4.87532,-4.33487 z m -61.3675,-12.53624 c 1.45014,-1.08715 3.21929,-2.3704 3.93143,-2.85168 1.47177,-0.99465 1.34247,-0.57915 1.92129,-6.1738 0.21615,-2.08926 0.6869,-5.55346 1.04612,-7.69821 0.35921,-2.14475 0.60224,-3.95041 0.54007,-4.01258 -0.1958,-0.19581 -2.7105,-0.61818 -5.94874,-0.99915 -10.17185,-1.19671 -17.5298,0.85195 -19.4988,5.429 -1.98043,4.60366 1.46078,13.2566 8.55484,21.51113 l 1.22978,1.43096 2.79369,-2.32953 c 1.53653,-1.28124 3.98017,-3.219 5.43032,-4.30614 z m 70.738665,2.27365 c 4.51344,-6.01241 6.7577,-11.16273 6.75243,-15.49597 -0.002,-1.57322 -0.12811,-2.27444 -0.58581,-3.25524 -2.08546,-4.46888 -9.36463,-6.44023 -19.414565,-5.25786 -3.23824,0.38097 -5.75294,0.80334 -5.94874,0.99915 -0.0622,0.0622 0.18086,1.86783 0.54007,4.01258 0.35921,2.14475 0.82997,5.60895 1.04612,7.69821 0.21615,2.08925 0.44761,4.13617 0.51436,4.5487 0.0985,0.60905 0.55404,1.05345 2.42306,2.36401 2.7901,1.95642 6.92779,5.16985 9.30217,7.22428 l 1.750105,1.51428 0.96583,-1.051 c 0.5312,-0.57805 1.72594,-2.06356 2.65497,-3.30114 z M 48.390295,721.82633 c 1.56717,-0.94647 4.62353,-2.69766 6.7919,-3.89153 2.16837,-1.19386 3.9683,-2.18972 3.99984,-2.21302 0.25132,-0.18562 -11.46221,-4.13627 -12.26388,-4.13627 -0.2792,0 -1.37331,4.68806 -2.18808,9.37561 -0.62483,3.59474 -0.62843,3.52909 0.16473,3.00939 0.35534,-0.23283 1.92831,-1.19771 3.49549,-2.14418 z m 34.98352,-0.28618 c -0.42711,-2.57503 -1.37972,-7.12384 -1.88426,-8.99753 -0.25505,-0.94722 -0.30173,-0.98335 -1.06514,-0.82466 -1.08445,0.22541 -8.4597,2.69372 -10.2141,3.4184 l -1.41518,0.58456 3.64876,1.99506 c 2.00681,1.09728 5.34381,3.02262 7.41556,4.27854 2.07174,1.25591 3.80626,2.24777 3.85449,2.20413 0.0482,-0.0436 -0.10484,-1.23996 -0.34013,-2.6585 z m -16.77299,-9.3372 c 2.5436,-1.18863 8.58427,-3.63563 11.47344,-4.64774 1.97044,-0.69027 1.93758,-0.42447 0.50336,-4.07026 -3.44298,-8.75207 -8.28723,-14.97877 -12.66447,-16.27867 -1.57333,-0.46723 -2.25298,-0.46723 -3.82631,0 -4.37725,1.2999 -9.22149,7.5266 -12.66447,16.27867 -1.45318,3.69399 -1.52261,3.36174 0.87777,4.20005 2.95553,1.03218 8.44027,3.2775 11.07468,4.5337 1.23758,0.59013 2.37435,1.08285 2.52615,1.09495 0.1518,0.0121 1.36673,-0.48773 2.69985,-1.1107 z"
       style="fill:#393939;stroke-width:0.25001612" />
  </g>
</svg>
