<?xml version="1.0" encoding="UTF-8" standalone="no"?>
<!-- Created with Inkscape (http://www.inkscape.org/) -->

<svg
   xmlns:dc="http://purl.org/dc/elements/1.1/"
   xmlns:cc="http://creativecommons.org/ns#"
   xmlns:rdf="http://www.w3.org/1999/02/22-rdf-syntax-ns#"
   xmlns:svg="http://www.w3.org/2000/svg"
   xmlns="http://www.w3.org/2000/svg"
   xmlns:sodipodi="http://sodipodi.sourceforge.net/DTD/sodipodi-0.dtd"
   xmlns:inkscape="http://www.inkscape.org/namespaces/inkscape"
   version="1.1"
   id="svg7530"
   width="128"
   height="128"
   viewBox="0 0 128 128"
   sodipodi:docname="boundary.svg"
   inkscape:version="0.92.5 (2060ec1f9f, 2020-04-08)">
  <metadata
     id="metadata7536">
    <rdf:RDF>
      <cc:Work
         rdf:about="">
        <dc:format>image/svg+xml</dc:format>
        <dc:type
           rdf:resource="http://purl.org/dc/dcmitype/StillImage" />
        <dc:title></dc:title>
      </cc:Work>
    </rdf:RDF>
  </metadata>
  <defs
     id="defs7534" />
  <sodipodi:namedview
     pagecolor="#ffffff"
     bordercolor="#666666"
     borderopacity="1"
     objecttolerance="10"
     gridtolerance="10"
     guidetolerance="10"
     inkscape:pageopacity="0"
     inkscape:pageshadow="2"
     inkscape:window-width="1848"
     inkscape:window-height="1016"
     id="namedview7532"
     showgrid="false"
     inkscape:zoom="0.98939049"
     inkscape:cx="80.947325"
     inkscape:cy="356.56385"
     inkscape:window-x="72"
     inkscape:window-y="27"
     inkscape:window-maximized="1"
     inkscape:current-layer="layer1" />
  <g
     inkscape:groupmode="layer"
     id="layer1"
     inkscape:label="New"
     style="display:inline"
     transform="translate(0,-546.66669)">
    <path
       inkscape:connector-curvature="0"
       id="path8085"
       d="m 63.47906,668.14655 -11.04094,-0.0729 0.006,-9.8335 c 0.006,-10.80166 0.29453,-16.74103 0.93261,-19.20157 1.20138,-4.63267 3.64049,-7.11074 8.22407,-8.35544 1.52822,-0.415 4.56643,-0.46334 34.03814,-0.54164 l 32.36013,-0.086 -0.17253,2.21642 c -0.0949,1.21903 -0.17325,9.83467 -0.17413,19.14586 l -0.002,16.92944 -26.56516,-0.0639 c -14.61084,-0.0351 -31.53359,-0.0967 -37.6061,-0.1368 z M 0.08540984,639.5681 c -0.0962,-0.38324 -0.11354,-2.40564 -0.0385,-4.49423 0.19576,-5.45276 0.87270003,-8.3461 2.89242006,-12.36253 2.37548,-4.72391 2.71315,-5.22007 5.59888,-8.22674 2.1603701,-2.2509 3.3360101,-3.19653 6.5067401,-5.23372 3.5065,-2.25291 4.27075,-2.62167 8.13728,-3.92628 4.87754,-1.64575 7.70782,-2.14629 11.05638,-1.95537 l 2.34785,0.13387 -0.0248,-0.96841 c -0.0881,-3.43106 0.12402,-10.20265 0.31954,-10.20265 0.12918,0 1.0809,0.69257 2.11494,1.53904 2.14714,1.75766 5.63329,4.51461 7.70948,6.09689 0.77819,0.59306 1.89934,1.52652 2.49144,2.07436 0.59211,0.54784 1.16758,0.99607 1.27883,0.99607 0.11125,0 0.69832,0.48684 1.3046,1.08186 0.60629,0.59502 1.65288,1.46825 2.32577,1.94053 1.94178,1.36285 5.8264,4.55889 5.8264,4.79363 0,0.11756 -0.11184,0.21375 -0.24854,0.21375 -0.1367,0 -0.42278,0.17425 -0.63574,0.3872 -0.21296,0.21297 -1.8777,1.37929 -3.69943,2.59184 -1.82173,1.21254 -3.37245,2.28052 -3.44606,2.37329 -0.16496,0.2079 -6.45013,4.37569 -6.82356,4.5248 -0.14817,0.0592 -0.97646,0.60118 -1.84064,1.20447 -5.48669,3.83031 -6.74564,4.64715 -6.95909,4.51523 -0.13805,-0.0853 -0.15806,-2.49276 -0.0473,-5.69389 l 0.19184,-5.54607 -0.62495,-0.16734 c -0.96727,-0.25899 -6.03516,-0.19448 -8.0933,0.10301 -3.5935,0.51942 -8.51607,2.34282 -11.22969,4.15965 -0.86231,0.57734 -2.07302,1.35083 -2.69045,1.71886 -1.8818,1.12167 -7.2817701,6.90719 -9.1185101,9.76955 -1.14668,1.78698 -2.81309,5.04173 -2.95282,5.76729 -0.0498,0.2587 -0.28044,0.83749 -0.51248,1.28621 -0.23205003,0.44873 -0.42190003,1.05563 -0.42190003,1.34868 0,0.8243 -0.49874003,0.93716 -0.69451003,0.15715 z M 64.21512,591.06878 c -6.1713,-0.70453 -9.43041,-3.34276 -10.83887,-8.77396 -0.63748,-2.45818 -0.92656,-8.39739 -0.93262,-19.16065 l -0.006,-9.79259 16.26029,-0.17747 c 8.94316,-0.0976 25.8659,-0.17758 37.6061,-0.17771 l 21.34581,-2.4e-4 v 15.88369 c 0,8.73603 0.0787,17.34796 0.17496,19.13762 l 0.17496,3.25393 -31.42416,-0.0428 C 79.2923,591.195 64.72987,591.1276 64.21463,591.06881 Z"
       style="fill:#393939;stroke-width:0.26765907" />
  </g>
</svg>
