<?xml version="1.0" encoding="UTF-8" standalone="no"?>
<!-- Created with Inkscape (http://www.inkscape.org/) -->

<svg
   width="64"
   height="64"
   id="svg2869"
   version="1.1"
   viewBox="0 0 64 64"
   xmlns="http://www.w3.org/2000/svg"
   xmlns:svg="http://www.w3.org/2000/svg"
   xmlns:rdf="http://www.w3.org/1999/02/22-rdf-syntax-ns#"
   xmlns:cc="http://creativecommons.org/ns#"
   xmlns:dc="http://purl.org/dc/elements/1.1/">
  <defs
     id="defs2871">
    <linearGradient
       id="linearGradient5">
      <stop
         style="stop-color:#ef2929;stop-opacity:1;"
         offset="0"
         id="stop19" />
      <stop
         style="stop-color:#ef2929;stop-opacity:0;"
         offset="1"
         id="stop20" />
    </linearGradient>
    <linearGradient
       id="swatch18">
      <stop
         style="stop-color:#ef2929;stop-opacity:1;"
         offset="0"
         id="stop18" />
    </linearGradient>
    <linearGradient
       id="swatch15">
      <stop
         style="stop-color:#3d0000;stop-opacity:1;"
         offset="0"
         id="stop15" />
    </linearGradient>
    <linearGradient
       id="linearGradient5-1">
      <stop
         style="stop-color:#ef2929;stop-opacity:1;"
         offset="0"
         id="stop5" />
      <stop
         style="stop-color:#ef2929;stop-opacity:0;"
         offset="1"
         id="stop6" />
    </linearGradient>
    <linearGradient
       id="linearGradient3836-9">
      <stop
         style="stop-color:#a40000;stop-opacity:1"
         offset="0"
         id="stop3838-8" />
      <stop
         style="stop-color:#ef2929;stop-opacity:1"
         offset="1"
         id="stop3840-1" />
    </linearGradient>
  </defs>
  <metadata
     id="metadata2874">
    <rdf:RDF>
      <cc:Work
         rdf:about="">
        <dc:format>image/svg+xml</dc:format>
        <dc:type
           rdf:resource="http://purl.org/dc/dcmitype/StillImage" />
        <dc:creator>
          <cc:Agent>
            <dc:title>[maxwxyz]</dc:title>
          </cc:Agent>
        </dc:creator>
        <dc:relation>https://www.freecad.org/wiki/index.php?title=Artwork</dc:relation>
        <dc:publisher>
          <cc:Agent>
            <dc:title>FreeCAD</dc:title>
          </cc:Agent>
        </dc:publisher>
        <dc:identifier>FreeCAD/src/</dc:identifier>
        <dc:rights>
          <cc:Agent>
            <dc:title>FreeCAD LGPL2+</dc:title>
          </cc:Agent>
        </dc:rights>
        <dc:date>2024</dc:date>
      </cc:Work>
    </rdf:RDF>
  </metadata>
  <g
     id="layer3"
     style="display:inline">
    <path
       id="ellipse8"
       style="fill:#eeeeec;fill-opacity:1;fill-rule:evenodd;stroke:#eeeeec;stroke-width:4;stroke-dasharray:none;stroke-opacity:1"
       d="m 42.792968,3 a 5.4121456,5.3534767 0 0 0 -5.412108,5.3535157 5.4121456,5.3534767 0 0 0 2.412109,4.4511723 l -4.023438,10.777343 a 6.6317278,6.2367553 0 0 0 -0.726562,-0.03907 6.6317278,6.2367553 0 0 0 -6.566406,5.371094 L 16.810547,31.33789 A 5.4121456,5.3534767 0 0 0 11.871094,28.169922 5.4121456,5.3534767 0 0 0 6.4589844,33.523437 5.4121456,5.3534767 0 0 0 11.871094,38.875 5.4121456,5.3534767 0 0 0 17.113281,34.796875 l 11.88086,-2.466797 a 6.6317278,6.2367553 0 0 0 5.171874,3.626953 l 0.736329,15.458984 A 5.4121456,5.3534767 0 0 0 32.785156,55.646485 5.4121456,5.3534767 0 0 0 38.197266,61 5.4121456,5.3534767 0 0 0 43.609374,55.646485 5.4121456,5.3534767 0 0 0 38.300781,50.294922 L 37.59961,35.523438 a 6.6317278,6.2367553 0 0 0 2.458983,-1.666015 l 6.67383,3.441405 a 5.4121456,5.3534767 0 0 0 -0.01556,0.201173 5.4121456,5.3534767 0 0 0 5.41211,5.353515 5.4121456,5.3534767 0 0 0 5.412108,-5.353515 5.4121456,5.3534767 0 0 0 -5.412108,-5.353517 5.4121456,5.3534767 0 0 0 -4.142579,1.91797 l -6.400457,-3.302735 a 6.6317278,6.2367553 0 0 0 0.08789,-0.982423 6.6317278,6.2367553 0 0 0 -2.669922,-5.001953 L 43.146478,13.681641 A 5.4121456,5.3534767 0 0 0 48.205078,8.3535157 5.4121456,5.3534767 0 0 0 42.792968,3 Z" />
    <path
       id="path15"
       style="fill:#3a3a3a;fill-opacity:1;fill-rule:evenodd;stroke:none;stroke-width:1;stroke-dasharray:none"
       d="m 42.792968,3 a 5.4121456,5.3534767 0 0 0 -5.412108,5.3535157 5.4121456,5.3534767 0 0 0 2.412109,4.4511723 l -4.023438,10.777343 a 6.6317278,6.2367553 0 0 0 -0.726562,-0.03907 6.6317278,6.2367553 0 0 0 -6.566406,5.371094 L 16.810547,31.33789 A 5.4121456,5.3534767 0 0 0 11.871094,28.169922 5.4121456,5.3534767 0 0 0 6.4589844,33.523437 5.4121456,5.3534767 0 0 0 11.871094,38.875 5.4121456,5.3534767 0 0 0 17.113281,34.796875 l 11.88086,-2.466797 a 6.6317278,6.2367553 0 0 0 5.171874,3.626953 l 0.736329,15.458984 A 5.4121456,5.3534767 0 0 0 32.785156,55.646485 5.4121456,5.3534767 0 0 0 38.197266,61 5.4121456,5.3534767 0 0 0 43.609374,55.646485 5.4121456,5.3534767 0 0 0 38.300781,50.294922 L 37.59961,35.523438 a 6.6317278,6.2367553 0 0 0 2.458983,-1.666015 l 6.67383,3.441405 a 5.4121456,5.3534767 0 0 0 -0.01556,0.201173 5.4121456,5.3534767 0 0 0 5.41211,5.353515 5.4121456,5.3534767 0 0 0 5.412108,-5.353515 5.4121456,5.3534767 0 0 0 -5.412108,-5.353517 5.4121456,5.3534767 0 0 0 -4.142579,1.91797 l -6.400457,-3.302735 a 6.6317278,6.2367553 0 0 0 0.08789,-0.982423 6.6317278,6.2367553 0 0 0 -2.669922,-5.001953 L 43.146478,13.681641 A 5.4121456,5.3534767 0 0 0 48.205078,8.3535157 5.4121456,5.3534767 0 0 0 42.792968,3 Z" />
    <path
       id="path16"
       style="fill:#3a3a3a;fill-opacity:1;fill-rule:evenodd;stroke:none;stroke-width:1;stroke-dasharray:none"
       d="m 42.792968,3 a 5.4121456,5.3534767 0 0 0 -5.412108,5.3535157 5.4121456,5.3534767 0 0 0 2.412109,4.4511723 l -4.023438,10.777343 a 6.6317278,6.2367553 0 0 0 -0.726562,-0.03907 6.6317278,6.2367553 0 0 0 -6.566406,5.371094 L 16.810547,31.33789 A 5.4121456,5.3534767 0 0 0 11.871094,28.169922 5.4121456,5.3534767 0 0 0 6.4589844,33.523437 5.4121456,5.3534767 0 0 0 11.871094,38.875 5.4121456,5.3534767 0 0 0 17.113281,34.796875 l 11.88086,-2.466797 a 6.6317278,6.2367553 0 0 0 5.171874,3.626953 l 0.736329,15.458984 A 5.4121456,5.3534767 0 0 0 32.785156,55.646485 5.4121456,5.3534767 0 0 0 38.197266,61 5.4121456,5.3534767 0 0 0 43.609374,55.646485 5.4121456,5.3534767 0 0 0 38.300781,50.294922 L 37.59961,35.523438 a 6.6317278,6.2367553 0 0 0 2.458983,-1.666015 l 6.67383,3.441405 a 5.4121456,5.3534767 0 0 0 -0.01556,0.201173 5.4121456,5.3534767 0 0 0 5.41211,5.353515 5.4121456,5.3534767 0 0 0 5.412108,-5.353515 5.4121456,5.3534767 0 0 0 -5.412108,-5.353517 5.4121456,5.3534767 0 0 0 -4.142579,1.91797 l -6.400457,-3.302735 a 6.6317278,6.2367553 0 0 0 0.08789,-0.982423 6.6317278,6.2367553 0 0 0 -2.669922,-5.001953 L 43.146478,13.681641 A 5.4121456,5.3534767 0 0 0 48.205078,8.3535157 5.4121456,5.3534767 0 0 0 42.792968,3 Z" />
  </g>
</svg>
