<?xml version="1.0" encoding="UTF-8" standalone="no"?>
<!-- Created with Inkscape (http://www.inkscape.org/) -->

<svg
   width="64"
   height="64"
   id="svg2869"
   version="1.1"
   viewBox="0 0 64 64"
   xmlns="http://www.w3.org/2000/svg"
   xmlns:svg="http://www.w3.org/2000/svg"
   xmlns:rdf="http://www.w3.org/1999/02/22-rdf-syntax-ns#"
   xmlns:cc="http://creativecommons.org/ns#"
   xmlns:dc="http://purl.org/dc/elements/1.1/">
  <defs
     id="defs2871">
    <linearGradient
       id="linearGradient5">
      <stop
         style="stop-color:#ef2929;stop-opacity:1;"
         offset="0"
         id="stop19" />
      <stop
         style="stop-color:#ef2929;stop-opacity:0;"
         offset="1"
         id="stop20" />
    </linearGradient>
    <linearGradient
       id="swatch18">
      <stop
         style="stop-color:#ef2929;stop-opacity:1;"
         offset="0"
         id="stop18" />
    </linearGradient>
    <linearGradient
       id="swatch15">
      <stop
         style="stop-color:#3d0000;stop-opacity:1;"
         offset="0"
         id="stop15" />
    </linearGradient>
    <linearGradient
       id="linearGradient5-1">
      <stop
         style="stop-color:#ef2929;stop-opacity:1;"
         offset="0"
         id="stop5" />
      <stop
         style="stop-color:#ef2929;stop-opacity:0;"
         offset="1"
         id="stop6" />
    </linearGradient>
    <linearGradient
       id="linearGradient3836-9">
      <stop
         style="stop-color:#a40000;stop-opacity:1"
         offset="0"
         id="stop3838-8" />
      <stop
         style="stop-color:#ef2929;stop-opacity:1"
         offset="1"
         id="stop3840-1" />
    </linearGradient>
  </defs>
  <metadata
     id="metadata2874">
    <rdf:RDF>
      <cc:Work
         rdf:about="">
        <dc:format>image/svg+xml</dc:format>
        <dc:type
           rdf:resource="http://purl.org/dc/dcmitype/StillImage" />
        <dc:creator>
          <cc:Agent>
            <dc:title>[maxwxyz]</dc:title>
          </cc:Agent>
        </dc:creator>
        <dc:relation>https://www.freecad.org/wiki/index.php?title=Artwork</dc:relation>
        <dc:publisher>
          <cc:Agent>
            <dc:title>FreeCAD</dc:title>
          </cc:Agent>
        </dc:publisher>
        <dc:identifier>FreeCAD/src/</dc:identifier>
        <dc:rights>
          <cc:Agent>
            <dc:title>FreeCAD LGPL2+</dc:title>
          </cc:Agent>
        </dc:rights>
        <dc:date>2024</dc:date>
      </cc:Work>
    </rdf:RDF>
  </metadata>
  <g
     id="layer3"
     style="display:inline">
    <path
       id="path8642"
       style="display:inline;fill:#eeeeec;fill-rule:nonzero;stroke:#eeeeec;stroke-width:4;stroke-linecap:round;stroke-linejoin:round;stroke-dasharray:none"
       d="m 32,3.0000003 c -1.587422,0 -2.800184,0.5614349 -4.203675,1.9446601 -2.016348,1.9872398 -3.564212,5.0773216 -4.96815,9.9215426 -0.130924,0.451737 -0.26419,0.821288 -0.296353,0.821288 -0.03215,0 -0.655292,-0.148356 -1.383608,-0.330403 -2.672343,-0.667978 -4.60068,-0.928571 -6.874622,-0.930794 -2.961952,-0.003 -5.0668455,0.603062 -6.4593504,1.861588 -3.1676642,2.862888 -1.6907589,8.169645 3.9601754,14.23189 0.72137,0.773873 1.30999,1.437211 1.30999,1.474544 0,0.03734 -0.5891,0.704439 -1.30999,1.482095 -5.6617886,6.107639 -7.1284588,11.375794 -3.9620631,14.237555 1.3922696,1.258317 3.4394451,1.85109 6.4178231,1.855923 2.337103,0.0038 4.211346,-0.246677 6.918037,-0.923241 0.728316,-0.182052 1.351444,-0.330404 1.383608,-0.330404 0.03215,0 0.165429,0.369552 0.296353,0.821289 1.403938,4.844221 2.951802,7.934303 4.96815,9.921543 0.892005,0.879124 1.671793,1.396819 2.572792,1.706768 0.454251,0.156275 0.967804,0.231409 1.606343,0.234115 1.610129,0.0065 2.813031,-0.546136 4.228214,-1.940883 2.016348,-1.98724 3.564212,-5.077322 4.968151,-9.921543 0.130919,-0.451737 0.264189,-0.821289 0.296352,-0.821289 0.03215,0 0.655292,0.148352 1.383608,0.330404 2.706691,0.676564 4.580932,0.926818 6.918037,0.923241 2.978377,-0.0048 5.025555,-0.597606 6.417824,-1.855923 3.166395,-2.861761 1.699726,-8.129916 -3.962063,-14.237555 -0.72089,-0.777656 -1.309991,-1.444762 -1.309991,-1.482095 0,-0.03733 0.588625,-0.700671 1.309991,-1.474544 5.456357,-5.853504 7.008316,-10.907897 4.275403,-13.933583 -1.27755,-1.414414 -3.567353,-2.149545 -6.717951,-2.156119 -2.315355,-0.0048 -4.22431,0.25039 -6.93125,0.927018 -0.728316,0.182047 -1.351444,0.330403 -1.383608,0.330403 -0.03215,0 -0.165433,-0.369551 -0.296352,-0.821288 C 39.767886,10.021982 38.220022,6.9319002 36.203674,4.9446604 34.800183,3.5614352 33.587426,3.0000003 32,3.0000003 Z m 0,4.3141246 c 0.255162,0 0.510029,0.054625 0.866405,0.1604816 1.982989,0.5890162 4.178543,3.4088285 5.73829,7.3746035 0.649735,1.651996 0.664255,1.531818 -0.228399,1.844596 -1.308859,0.458611 -4.046129,1.568433 -5.198437,2.107029 -0.603933,0.282284 -1.154389,0.507723 -1.223162,0.502213 -0.06877,-0.0055 -0.58323,-0.229146 -1.143883,-0.496549 C 29.617367,18.237284 27.132507,17.22004 25.793586,16.752334 24.70616,16.372475 24.73698,16.523047 25.395304,14.84921 26.955051,10.883435 29.150601,8.0636227 31.133594,7.4746065 31.48997,7.3687499 31.744837,7.3141249 32,7.3141249 Z M 47.846362,17.415029 c 2.892475,0.120127 4.925902,1.003675 5.634471,2.522394 0.207351,0.444424 0.263358,0.761679 0.264264,1.474543 0.0024,1.963496 -1.013215,4.297177 -3.057904,7.021545 -0.420872,0.560777 -0.96364,1.233383 -1.204286,1.495311 l -0.436034,0.475781 -0.792791,-0.685351 c -1.075648,-0.930912 -2.951022,-2.387325 -4.215,-3.273826 -0.846708,-0.593846 -1.05396,-0.794532 -1.098581,-1.070507 -0.03024,-0.186927 -0.134253,-1.115027 -0.232174,-2.061717 -0.09792,-0.946695 -0.311055,-2.515334 -0.473786,-3.487172 -0.162728,-0.971839 -0.273568,-1.791863 -0.245387,-1.82005 0.0887,-0.08873 1.228491,-0.278611 2.695486,-0.451237 1.138212,-0.133941 2.197563,-0.179757 3.161722,-0.139714 z m -31.730477,0.0038 c 0.974447,-0.04318 2.047455,3.72e-4 3.199474,0.135937 1.466995,0.172626 2.606786,0.362507 2.695486,0.451237 0.02816,0.02817 -0.08266,0.848211 -0.245387,1.82005 -0.162736,0.971838 -0.375866,2.540478 -0.473786,3.487172 -0.262219,2.535071 -0.203437,2.347345 -0.870182,2.798045 -0.322614,0.21808 -1.124944,0.798791 -1.78189,1.291406 -0.65695,0.492608 -1.763454,1.37165 -2.459537,1.952212 l -1.264688,1.055403 -0.558728,-0.649479 c -3.213769,-3.740321 -4.772413,-7.65992 -3.875233,-9.745951 0.668999,-1.555478 2.711131,-2.46649 5.634471,-2.596026 z m 8.144974,1.102603 c 0.363175,0 5.670933,1.788806 5.557081,1.872915 -0.01428,0.01056 -0.829773,0.461572 -1.812092,1.002538 -0.98232,0.540972 -2.366817,1.334542 -3.07678,1.763411 -0.709968,0.428868 -1.422715,0.866829 -1.583693,0.972329 -0.359321,0.23549 -0.358566,0.265714 -0.07551,-1.363149 0.369109,-2.124043 0.864504,-4.248044 0.990988,-4.248044 z m 15.383901,0.02643 c 0.157267,-0.0056 0.19082,0.08401 0.277477,0.405924 0.228567,0.849014 0.66159,2.911314 0.85508,4.078122 0.106596,0.642776 0.174728,1.184798 0.152895,1.204557 -0.02185,0.01978 -0.80748,-0.429679 -1.746025,-0.998762 -0.938549,-0.569088 -2.448902,-1.441792 -3.358032,-1.938996 l -1.653533,-0.904362 0.639894,-0.264323 c 0.794783,-0.328369 4.137104,-1.447925 4.628384,-1.550063 0.08646,-0.01798 0.151438,-0.03023 0.20386,-0.03209 z M 32,21.296828 l 1.753575,0.887369 c 2.131022,1.080294 4.420459,2.411277 6.189426,3.596677 l 1.321317,0.885482 0.09627,1.336717 c 0.122683,1.721071 0.122674,6.276744 0,7.997651 l -0.09627,1.336717 -1.149547,0.770312 c -1.803758,1.209367 -3.871648,2.425679 -6.002552,3.528709 -1.078774,0.558417 -2.033614,1.012885 -2.121658,1.011979 -0.480697,-0.0058 -5.655488,-2.905374 -8.105333,-4.542575 l -1.149546,-0.768456 -0.09627,-1.336717 c -0.122675,-1.720907 -0.122683,-6.27658 0,-7.997651 l 0.09627,-1.336717 1.321317,-0.885482 c 1.768966,-1.1854 4.058398,-2.516383 6.189425,-3.596677 z m 0,3.989386 c -1.727172,0 -3.454771,0.651835 -4.758628,1.955988 -2.607715,2.6083 -2.607715,6.911093 0,9.519394 1.111949,1.112197 2.449114,1.747738 4.022465,1.914452 4.040173,0.428112 7.435239,-2.618909 7.435239,-6.674149 0,-1.860375 -0.659542,-3.478506 -1.940449,-4.759697 C 35.45477,25.938049 33.727171,25.286214 32,25.286214 Z M 20.844311,28.07293 v 3.947849 3.940296 c 0,-0.0029 -0.535092,-0.453877 -1.189185,-1.002538 -0.654095,-0.548662 -1.647834,-1.43767 -2.208486,-1.976756 l -1.021189,-0.979882 1.113681,-1.066731 c 0.611803,-0.586506 1.605541,-1.469957 2.208487,-1.96354 z m 22.311377,0 1.075929,0.883593 c 0.591801,0.485428 1.58554,1.368638 2.208486,1.96354 l 1.134445,1.081836 -1.134445,1.081835 c -0.622946,0.594898 -1.616685,1.478113 -2.208486,1.96354 l -1.075929,0.883593 v -3.928968 z m -28.232763,5.511129 0.694635,0.606054 c 0.9777,0.855 3.246134,2.614391 4.407535,3.419203 0.794641,0.55066 0.990507,0.744204 1.034403,1.019531 0.0298,0.186928 0.134248,1.115023 0.232174,2.061717 0.09792,0.946695 0.31105,2.515329 0.473786,3.487172 0.162728,0.971838 0.273569,1.789976 0.245387,1.818164 -0.0887,0.08873 -1.228491,0.280497 -2.695486,0.453124 -4.542419,0.534533 -7.853598,-0.362357 -8.796193,-2.38268 -0.349976,-0.750105 -0.36094,-2.03564 -0.0302,-3.230433 0.528737,-1.910055 2.003146,-4.422145 3.873345,-6.598628 z m 34.171137,0.0038 0.590818,0.708008 c 2.682509,3.219914 4.062923,6.041746 4.060217,8.295957 -8.7e-4,0.712865 -0.05691,1.030124 -0.264264,1.474544 -0.620019,1.328928 -2.132613,2.128302 -4.601956,2.431769 -1.229212,0.151061 -2.802022,0.131261 -4.307493,-0.05287 -1.311074,-0.160356 -2.499035,-0.366144 -2.580342,-0.44746 -0.02885,-0.02886 0.08077,-0.848214 0.243499,-1.820051 0.162731,-0.971844 0.375866,-2.540478 0.473786,-3.487173 0.262219,-2.535071 0.203437,-2.347344 0.870182,-2.798044 1.023066,-0.691563 2.932134,-2.152229 4.245202,-3.247394 z m -26.024275,6.179488 c 0.02184,-0.02015 0.702132,0.368285 1.511963,0.862825 0.809827,0.49454 2.313185,1.36306 3.341044,1.929556 1.027863,0.566496 1.880871,1.038951 1.895146,1.049739 0.06459,0.04884 -3.228532,1.220183 -4.298055,1.529296 -0.655175,0.189356 -1.221654,0.34362 -1.259026,0.34362 -0.176638,0 -1.339207,-5.578401 -1.191072,-5.715036 z m 17.860425,0 c 0.09336,0.08611 -0.627979,3.877628 -1.0042,5.275127 -0.06534,0.242702 -0.181243,0.438838 -0.256713,0.436132 -0.264361,-0.01 -2.64302,-0.777288 -4.069656,-1.312173 l -1.440234,-0.539974 0.420933,-0.243554 c 0.231395,-0.134605 1.083431,-0.607503 1.893258,-1.049739 0.809832,-0.442236 2.134817,-1.208322 2.944649,-1.702994 0.809827,-0.49467 1.490131,-0.88299 1.511963,-0.862825 z M 32,44.659211 33.387382,45.28981 c 1.640408,0.744265 3.513828,1.506456 4.819031,1.961653 1.087444,0.379255 1.056619,0.229245 0.398282,1.903123 -1.559747,3.965772 -3.755301,6.785588 -5.73829,7.374604 -0.731843,0.217384 -1.126618,0.209069 -1.85173,-0.04154 -1.978385,-0.683747 -4.084794,-3.431283 -5.619371,-7.333068 -0.658337,-1.673878 -0.689162,-1.523868 0.398282,-1.903123 1.305203,-0.455197 3.178623,-1.217388 4.819031,-1.961653 z" />
    <path
       id="path100"
       style="display:inline;fill:#393939;stroke:none;stroke-width:2;stroke-dasharray:none"
       d="m 31.999767,3.0000003 c -1.587408,0 -2.800158,0.5614298 -4.203636,1.9446426 -2.016331,1.9872219 -3.56418,5.0772761 -4.968106,9.9214541 -0.130923,0.451731 -0.264188,0.82128 -0.29635,0.82128 -0.03215,0 -0.655286,-0.148355 -1.383595,-0.330401 -2.67232,-0.667972 -4.60064,-0.928562 -6.87456,-0.930785 -2.961926,-0.003 -5.0668009,0.603057 -6.4592932,1.861571 -3.1676357,2.862863 -1.6907436,8.169571 3.9601392,14.231763 0.721364,0.773865 1.309979,1.437197 1.309979,1.47453 0,0.03734 -0.589095,0.704433 -1.309979,1.482082 -5.6617371,6.107583 -7.1283941,11.375691 -3.9620269,14.237427 1.3922571,1.258305 3.4394139,1.851072 6.4177659,1.855905 2.337081,0.0038 4.211308,-0.246673 6.917975,-0.923232 0.728309,-0.18205 1.351431,-0.330401 1.383595,-0.330401 0.03215,0 0.165427,0.369549 0.29635,0.821281 1.403926,4.844177 2.951775,7.934233 4.968106,9.921454 0.891996,0.879116 1.671778,1.396806 2.572769,1.706753 0.454245,0.156274 0.967795,0.231407 1.606329,0.234113 1.610114,0.0065 2.813005,-0.546131 4.228174,-1.940866 2.016331,-1.987221 3.56418,-5.077277 4.968107,-9.921454 0.130918,-0.451732 0.264187,-0.821281 0.29635,-0.821281 0.03215,0 0.655286,0.148351 1.383595,0.330401 2.706666,0.676559 4.580891,0.926809 6.917974,0.923232 2.978351,-0.0048 5.02551,-0.5976 6.417766,-1.855905 3.166368,-2.861736 1.699711,-8.129844 -3.962027,-14.237427 -0.720883,-0.777649 -1.309979,-1.444749 -1.309979,-1.482082 0,-0.03733 0.588621,-0.700665 1.309979,-1.47453 5.456308,-5.853453 7.008254,-10.9078 4.275364,-13.933458 -1.277538,-1.414401 -3.567319,-2.149526 -6.717889,-2.156099 -2.315335,-0.0048 -4.224273,0.250387 -6.931188,0.927008 -0.728309,0.182046 -1.351432,0.330401 -1.383595,0.330401 -0.03215,0 -0.165432,-0.369549 -0.29635,-0.82128 C 39.767583,10.021919 38.219734,6.9318648 36.203403,4.9446429 34.799925,3.5614301 33.587179,3.0000003 31.999767,3.0000003 Z m 0,4.3140857 c 0.255161,0 0.510026,0.054625 0.866398,0.1604802 1.982971,0.5890109 4.178506,3.4087978 5.738238,7.3745378 0.649729,1.651981 0.664249,1.531803 -0.228397,1.844579 -1.308847,0.458607 -4.046093,1.568419 -5.19839,2.10701 -0.603928,0.282281 -1.154379,0.507718 -1.223151,0.502208 -0.06877,-0.0055 -0.583225,-0.229144 -1.143872,-0.496544 -1.193437,-0.56921 -3.678274,-1.586444 -5.017184,-2.054147 -1.087416,-0.379854 -1.056596,-0.229285 -0.398278,-1.903106 1.559732,-3.96574 3.755263,-6.7855269 5.738239,-7.3745378 0.356372,-0.1058557 0.611237,-0.1604802 0.866397,-0.1604802 z m 15.84622,10.100813 c 2.892449,0.120127 4.925858,1.003666 5.63442,2.522371 0.20735,0.444421 0.263355,0.761673 0.264262,1.474531 0.0024,1.963477 -1.013207,4.297138 -3.057877,7.021481 -0.420868,0.560772 -0.963631,1.233372 -1.204274,1.495298 l -0.436031,0.475776 -0.792784,-0.685345 c -1.075638,-0.930903 -2.950995,-2.387303 -4.214962,-3.273796 -0.8467,-0.593841 -1.05395,-0.794525 -1.09857,-1.070497 -0.03024,-0.186926 -0.134253,-1.115018 -0.232172,-2.061699 -0.09792,-0.946686 -0.311053,-2.515312 -0.473782,-3.487141 -0.162727,-0.97183 -0.273566,-1.791847 -0.245386,-1.820034 0.0887,-0.08873 1.228481,-0.278607 2.695462,-0.451233 1.138202,-0.133938 2.197544,-0.179754 3.161694,-0.139712 z m -31.730192,0.0038 c 0.974439,-0.04318 2.047437,3.72e-4 3.199446,0.135936 1.466982,0.172625 2.606762,0.362503 2.695462,0.451232 0.02816,0.02817 -0.08266,0.848204 -0.245385,1.820034 -0.162735,0.971829 -0.375863,2.540456 -0.473783,3.487142 -0.262215,2.535047 -0.203434,2.347323 -0.870174,2.798019 -0.322611,0.218078 -1.124932,0.798783 -1.781873,1.291394 -0.656945,0.492604 -1.763439,1.371638 -2.459515,1.952195 l -1.264676,1.055393 -0.558724,-0.649473 c -3.213739,-3.740317 -4.7723697,-7.659881 -3.875198,-9.745892 0.668994,-1.555466 2.711107,-2.466469 5.63442,-2.596003 z m 8.144902,1.102593 c 0.36317,0 5.670882,1.78879 5.55703,1.872899 -0.01428,0.01056 -0.829765,0.461567 -1.812075,1.002529 -0.982312,0.540967 -2.366796,1.334529 -3.076753,1.763394 -0.709961,0.428864 -1.422702,0.866821 -1.583678,0.972321 -0.359319,0.235488 -0.358563,0.265711 -0.07551,-1.363137 0.369105,-2.124023 0.864496,-4.248006 0.990979,-4.248006 z m 15.383762,0.02643 c 0.157265,-0.0056 0.190818,0.08401 0.277475,0.405921 0.228565,0.849007 0.661583,2.911288 0.855072,4.078086 0.106595,0.64277 0.174725,1.184787 0.152893,1.204545 -0.02185,0.01978 -0.807472,-0.429675 -1.746008,-0.998752 -0.938542,-0.569083 -2.448882,-1.44178 -3.358003,-1.938978 L 34.17237,20.39419 34.812258,20.12987 c 0.794776,-0.328367 4.137067,-1.447913 4.628343,-1.55005 0.08646,-0.01798 0.151437,-0.03023 0.203858,-0.03209 z m -7.644692,2.748942 1.75356,0.887361 c 2.131002,1.080284 4.420419,2.411256 6.18937,3.596645 l 1.321305,0.885474 0.09627,1.336705 c 0.122682,1.721055 0.122673,6.276688 0,7.997579 l -0.09627,1.336705 -1.149536,0.770305 c -1.803742,1.209357 -3.871613,2.425657 -6.002498,3.528677 -1.078764,0.558412 -2.033596,1.012877 -2.121639,1.01197 -0.480693,-0.0058 -5.655438,-2.905347 -8.105261,-4.542535 l -1.149535,-0.768417 -0.09627,-1.336705 c -0.122674,-1.720891 -0.122682,-6.276524 0,-7.997579 l 0.09627,-1.336705 1.321304,-0.885474 c 1.768951,-1.185389 4.058363,-2.516361 6.18937,-3.596645 z m 0,3.989351 c -1.727155,0 -3.454739,0.651828 -4.758584,1.955969 -2.607692,2.608278 -2.607692,6.911032 0,9.519309 1.111938,1.112187 2.449091,1.747722 4.022428,1.914435 4.040137,0.428108 7.435172,-2.618886 7.435172,-6.674089 0,-1.860359 -0.659536,-3.478475 -1.940431,-4.759655 -1.303846,-1.304141 -3.031429,-1.955969 -4.758585,-1.955969 z m -11.155588,2.786691 v 3.947813 3.940261 c 0,-0.0029 -0.535088,-0.453874 -1.189175,-1.00253 -0.654088,-0.548656 -1.647818,-1.437656 -2.208466,-1.976738 l -1.021178,-0.979873 1.113669,-1.066721 c 0.611797,-0.586502 1.605527,-1.469943 2.208468,-1.963523 z m 22.311176,0 1.07592,0.883584 c 0.591795,0.485424 1.585526,1.368627 2.208466,1.963523 l 1.134434,1.081826 -1.134434,1.081825 c -0.62294,0.594893 -1.616671,1.478099 -2.208466,1.963523 l -1.07592,0.883584 v -3.928932 z m -28.232508,5.511079 0.694628,0.606049 c 0.977692,0.854992 3.246105,2.614367 4.407496,3.419172 0.794634,0.550655 0.990497,0.744197 1.034393,1.019521 0.0298,0.186927 0.134247,1.115014 0.232171,2.061699 0.09792,0.946686 0.311048,2.515306 0.473783,3.487141 0.162726,0.971829 0.273566,1.789959 0.245385,1.818147 -0.0887,0.08873 -1.22848,0.280495 -2.695462,0.45312 -4.542378,0.534528 -7.853528,-0.362354 -8.796115,-2.382659 -0.349972,-0.750067 -0.360936,-2.03559 -0.0302,-3.230372 0.528733,-1.910038 2.003129,-4.422106 3.873312,-6.59857 z m 34.170829,0.0038 0.590812,0.708001 c 2.682485,3.219885 4.062887,6.041692 4.060181,8.295882 -8.7e-4,0.71286 -0.05691,1.030115 -0.264262,1.474531 -0.620014,1.328916 -2.132594,2.128284 -4.601915,2.431747 -1.2292,0.15106 -2.801997,0.131261 -4.307454,-0.05287 -1.311062,-0.160354 -2.499012,-0.366141 -2.580319,-0.447456 -0.02885,-0.02886 0.08077,-0.848206 0.243498,-1.820035 0.162729,-0.971834 0.375862,-2.540455 0.473782,-3.487141 0.262216,-2.535048 0.203434,-2.347323 0.870174,-2.798019 1.023056,-0.691556 2.932107,-2.15221 4.245163,-3.247365 z m -26.024041,6.179432 c 0.02184,-0.02016 0.702125,0.368282 1.51195,0.862817 0.809819,0.494536 2.313163,1.363048 3.341013,1.929539 1.027854,0.566491 1.880855,1.038942 1.895129,1.04973 0.06459,0.04884 -3.228503,1.220172 -4.298016,1.529282 -0.655169,0.189354 -1.221643,0.343616 -1.259014,0.343616 -0.176638,0 -1.339195,-5.57835 -1.191062,-5.714984 z m 17.860264,0 c 0.09336,0.08611 -0.627973,3.877593 -1.00419,5.27508 -0.06534,0.242699 -0.181242,0.438834 -0.256711,0.436128 -0.264359,-0.01 -2.642996,-0.777281 -4.069619,-1.312161 l -1.440223,-0.539969 0.42093,-0.243553 c 0.231393,-0.134604 1.083421,-0.607497 1.893242,-1.049729 0.809824,-0.442232 2.134797,-1.208311 2.944621,-1.702979 0.80982,-0.494666 1.490119,-0.882981 1.51195,-0.862817 z m -8.930132,4.89182 1.387371,0.630593 c 1.640392,0.744259 3.513796,1.506443 4.818987,1.961635 1.087434,0.379251 1.05661,0.229244 0.398278,1.903107 -1.559732,3.965735 -3.755267,6.785527 -5.738238,7.374538 -0.731837,0.217382 -1.126608,0.209066 -1.851713,-0.04154 -1.978368,-0.68374 -4.084758,-3.431251 -5.619321,-7.333001 -0.658331,-1.673863 -0.689156,-1.523856 0.398278,-1.903107 1.305191,-0.455192 3.178595,-1.217376 4.818988,-1.961635 z" />
  </g>
</svg>
