<?xml version="1.0" standalone="no"?>
<!DOCTYPE svg PUBLIC "-//W3C//DTD SVG 20010904//EN"
 "http://www.w3.org/TR/2001/REC-SVG-20010904/DTD/svg10.dtd">
<svg version="1.0" xmlns="http://www.w3.org/2000/svg"
 width="128.000000pt" height="128.000000pt" viewBox="0 0 128.000000 128.000000"
 preserveAspectRatio="xMidYMid meet">
<metadata>
Created by potrace 1.16, written by Peter Selinger 2001-2019
</metadata>
<g transform="translate(0.000000,128.000000) scale(0.100000,-0.100000)"
fill="#000000" stroke="none">
<path d="M550 1038 l0 -223 -87 3 c-148 6 -291 -39 -378 -119 -83 -77 -100
-147 -45 -193 66 -55 153 -59 401 -16 96 17 221 38 279 46 117 18 379 22 478
7 34 -5 62 -6 62 -3 0 4 -69 42 -153 84 -146 72 -377 158 -462 171 l-40 7 3
99 3 99 52 0 c70 0 90 -16 137 -111 37 -72 43 -79 70 -79 l30 0 -41 81 c-22
45 -52 93 -66 106 -19 20 -22 28 -11 34 7 5 16 9 20 9 19 0 40 65 35 108 -9
83 -63 111 -209 112 l-78 0 0 -222z m205 147 c33 -32 33 -78 0 -110 -20 -21
-34 -25 -85 -25 l-60 0 0 80 0 80 60 0 c51 0 65 -4 85 -25z"/>
<path d="M980 1035 l0 -225 30 0 30 0 0 90 0 90 53 1 c121 2 172 41 172 134 0
100 -50 133 -202 134 l-83 1 0 -225z m205 150 c34 -33 34 -87 0 -120 -20 -21
-34 -25 -85 -25 l-60 0 0 85 0 85 60 0 c51 0 65 -4 85 -25z"/>
</g>
</svg>
