<?xml version="1.0" encoding="UTF-8" standalone="no"?>
<!-- Created with Inkscape (http://www.inkscape.org/) -->

<svg
   width="64"
   height="64"
   id="svg2869"
   version="1.1"
   viewBox="0 0 64 64"
   xmlns="http://www.w3.org/2000/svg"
   xmlns:svg="http://www.w3.org/2000/svg"
   xmlns:rdf="http://www.w3.org/1999/02/22-rdf-syntax-ns#"
   xmlns:cc="http://creativecommons.org/ns#"
   xmlns:dc="http://purl.org/dc/elements/1.1/">
  <defs
     id="defs2871">
    <linearGradient
       id="linearGradient5">
      <stop
         style="stop-color:#ef2929;stop-opacity:1;"
         offset="0"
         id="stop19" />
      <stop
         style="stop-color:#ef2929;stop-opacity:0;"
         offset="1"
         id="stop20" />
    </linearGradient>
    <linearGradient
       id="swatch18">
      <stop
         style="stop-color:#ef2929;stop-opacity:1;"
         offset="0"
         id="stop18" />
    </linearGradient>
    <linearGradient
       id="swatch15">
      <stop
         style="stop-color:#3d0000;stop-opacity:1;"
         offset="0"
         id="stop15" />
    </linearGradient>
    <linearGradient
       id="linearGradient5-1">
      <stop
         style="stop-color:#ef2929;stop-opacity:1;"
         offset="0"
         id="stop5" />
      <stop
         style="stop-color:#ef2929;stop-opacity:0;"
         offset="1"
         id="stop6" />
    </linearGradient>
    <linearGradient
       id="linearGradient3836-9">
      <stop
         style="stop-color:#a40000;stop-opacity:1"
         offset="0"
         id="stop3838-8" />
      <stop
         style="stop-color:#ef2929;stop-opacity:1"
         offset="1"
         id="stop3840-1" />
    </linearGradient>
  </defs>
  <metadata
     id="metadata2874">
    <rdf:RDF>
      <cc:Work
         rdf:about="">
        <dc:format>image/svg+xml</dc:format>
        <dc:type
           rdf:resource="http://purl.org/dc/dcmitype/StillImage" />
        <dc:creator>
          <cc:Agent>
            <dc:title>[maxwxyz]</dc:title>
          </cc:Agent>
        </dc:creator>
        <dc:relation>https://www.freecad.org/wiki/index.php?title=Artwork</dc:relation>
        <dc:publisher>
          <cc:Agent>
            <dc:title>FreeCAD</dc:title>
          </cc:Agent>
        </dc:publisher>
        <dc:identifier>FreeCAD/src/</dc:identifier>
        <dc:rights>
          <cc:Agent>
            <dc:title>FreeCAD LGPL2+</dc:title>
          </cc:Agent>
        </dc:rights>
        <dc:date>2024</dc:date>
      </cc:Work>
    </rdf:RDF>
  </metadata>
  <g
     id="layer3"
     style="display:inline">
    <path
       id="path9"
       style="color:#000000;fill:#28b128;stroke:#0b1e23;stroke-width:4;stroke-linecap:round;stroke-linejoin:round;stroke-dasharray:none;stroke-opacity:1"
       d="m 59.33884,29.607296 -23.311151,15.569153 8.719065,-0.714246 -4.651041,5.479668 c -0.834819,-0.416204 -1.776334,-0.652175 -2.763003,-0.652175 -3.282475,0 -6.068819,2.592134 -6.068819,5.855594 0,3.263459 2.786344,5.85471 6.068819,5.85471 3.282472,0 6.068817,-2.591251 6.068817,-5.85471 0,-1.195333 -0.374496,-2.299957 -1.009576,-3.220664 l 4.666775,-5.498905 0.714137,8.719569 z" />
    <path
       id="path101"
       style="color:#000000;fill:#28b128;stroke-width:3.77953;-inkscape-stroke:none"
       d="m 59.33884,29.607296 -23.311151,15.569153 8.719065,-0.714246 -4.651041,5.479668 c -0.834819,-0.416204 -1.776334,-0.652175 -2.763003,-0.652175 -3.282475,0 -6.068819,2.592134 -6.068819,5.855594 0,3.263459 2.786344,5.85471 6.068819,5.85471 3.282472,0 6.068817,-2.591251 6.068817,-5.85471 0,-1.195333 -0.374496,-2.299957 -1.009576,-3.220664 l 4.666775,-5.498905 0.714137,8.719569 z" />
    <path
       id="path103"
       style="color:#000000;fill:#28b128;stroke:#0b1e23;stroke-width:4;stroke-linecap:round;stroke-linejoin:round;stroke-dasharray:none;stroke-opacity:1"
       d="M 32.736379,2.9996455 9.425228,18.5688 l 8.719065,-0.714247 -4.651042,5.479668 c -0.834818,-0.416204 -1.776333,-0.652174 -2.763002,-0.652174 -3.2824751,0 -6.0688188,2.592133 -6.0688188,5.855594 0,3.263458 2.7863437,5.85471 6.0688188,5.85471 3.282472,0 6.068816,-2.591252 6.068816,-5.85471 0,-1.195334 -0.374496,-2.299957 -1.009575,-3.220665 l 4.666774,-5.498905 0.714138,8.71957 z" />
    <path
       id="path104"
       style="color:#000000;fill:#28b128;stroke-width:3.77953;-inkscape-stroke:none"
       d="M 32.736379,2.9996455 9.425228,18.5688 l 8.719065,-0.714247 -4.651042,5.479668 c -0.834818,-0.416204 -1.776333,-0.652174 -2.763002,-0.652174 -3.2824751,0 -6.0688188,2.592133 -6.0688188,5.855594 0,3.263458 2.7863437,5.85471 6.0688188,5.85471 3.282472,0 6.068816,-2.591252 6.068816,-5.85471 0,-1.195334 -0.374496,-2.299957 -1.009575,-3.220665 l 4.666774,-5.498905 0.714138,8.71957 z" />
    <path
       id="path5"
       style="color:#000000;fill:#585858;stroke:#eeeeec;stroke-width:4;stroke-linecap:round;stroke-linejoin:round;stroke-dasharray:none;stroke-opacity:1"
       d="M 56.609924,6.8213761 26.050809,25.275488 37.18149,24.871594 16.305563,47.314814 c -0.783456,-0.356182 -1.652419,-0.55601 -2.560215,-0.55601 -3.282474,0 -6.0688169,2.594751 -6.0688169,5.85821 0,3.26347 2.7863429,5.855594 6.0688169,5.855585 3.282474,0 6.068818,-2.592115 6.068818,-5.855585 0,-0.967931 -0.246945,-1.875981 -0.677419,-2.676017 l 20.871557,-22.436223 0.403831,11.132438 z" />
    <path
       id="path102"
       style="color:#000000;fill:#585858;stroke-width:3.77953;-inkscape-stroke:none"
       d="M 56.609924,6.8213761 26.050809,25.275488 37.18149,24.871594 16.305563,47.314814 c -0.783456,-0.356182 -1.652419,-0.55601 -2.560215,-0.55601 -3.282474,0 -6.0688169,2.594751 -6.0688169,5.85821 0,3.26347 2.7863429,5.855594 6.0688169,5.855585 3.282474,0 6.068818,-2.592115 6.068818,-5.855585 0,-0.967931 -0.246945,-1.875981 -0.677419,-2.676017 l 20.871557,-22.436223 0.403831,11.132438 z" />
  </g>
</svg>
